<svg xmlns="http://www.w3.org/2000/svg" xmlns:xlink="http://www.w3.org/1999/xlink" contentStyleType="text/css" data-diagram-type="DESCRIPTION" height="1093px" preserveAspectRatio="none" style="width:1022px;height:1093px;background:#FFFFFF;" version="1.1" viewBox="0 0 1022 1093" width="1022px" zoomAndPan="magnify"><?plantuml 1.2026.4?><defs/><g><!--cluster Administrateur--><g class="cluster" data-qualified-name="Administrateur" data-source-line="15" id="ent0001"><path d="M41.5,6 L106.5107,6 A3.75,3.75 0 0 1 109.0107,8.5 L116.0107,23.3203 L176.5,23.3203 A2.5,2.5 0 0 1 179,25.8203 L179,81.5 A2.5,2.5 0 0 1 176.5,84 L41.5,84 A2.5,2.5 0 0 1 39,81.5 L39,8.5 A2.5,2.5 0 0 1 41.5,6" fill="#EEF4FB" style="stroke:#2E75B6;stroke-width:1.5;"/><line style="stroke:#2E75B6;stroke-width:1.5;" x1="39" x2="116.0107" y1="23.3203" y2="23.3203"/><text fill="#000000" font-family="sans-serif" font-size="9" font-weight="700" lengthAdjust="spacing" textLength="64.0107" x="43" y="17.3428">Administrateur</text></g><!--cluster Acheteur--><g class="cluster" data-qualified-name="Acheteur" data-source-line="19" id="ent0003"><path d="M8.5,108 L48.5103,108 A3.75,3.75 0 0 1 51.0103,110.5 L58.0103,125.3203 L534,125.3203 A2.5,2.5 0 0 1 536.5,127.8203 L536.5,579.5 A2.5,2.5 0 0 1 534,582 L8.5,582 A2.5,2.5 0 0 1 6,579.5 L6,110.5 A2.5,2.5 0 0 1 8.5,108" fill="#EEF4FB" style="stroke:#2E75B6;stroke-width:1.5;"/><line style="stroke:#2E75B6;stroke-width:1.5;" x1="6" x2="58.0103" y1="125.3203" y2="125.3203"/><text fill="#000000" font-family="sans-serif" font-size="9" font-weight="700" lengthAdjust="spacing" textLength="39.0103" x="10" y="119.3428">Acheteur</text></g><!--cluster Vendeur--><g class="cluster" data-qualified-name="Vendeur" data-source-line="33" id="ent0015"><path d="M377.5,606 L414.5088,606 A3.75,3.75 0 0 1 417.0088,608.5 L424.0088,623.3203 L1004.5,623.3203 A2.5,2.5 0 0 1 1007,625.8203 L1007,945.5 A2.5,2.5 0 0 1 1004.5,948 L377.5,948 A2.5,2.5 0 0 1 375,945.5 L375,608.5 A2.5,2.5 0 0 1 377.5,606" fill="#EEF4FB" style="stroke:#2E75B6;stroke-width:1.5;"/><line style="stroke:#2E75B6;stroke-width:1.5;" x1="375" x2="424.0088" y1="623.3203" y2="623.3203"/><text fill="#000000" font-family="sans-serif" font-size="9" font-weight="700" lengthAdjust="spacing" textLength="36.0088" x="379" y="617.3428">Vendeur</text></g><!--cluster Paiement--><g class="cluster" data-qualified-name="Paiement" data-source-line="46" id="ent0026"><path d="M669.5,270 L710.5166,270 A3.75,3.75 0 0 1 713.0166,272.5 L720.0166,287.3203 L816.5,287.3203 A2.5,2.5 0 0 1 819,289.8203 L819,477.5 A2.5,2.5 0 0 1 816.5,480 L669.5,480 A2.5,2.5 0 0 1 667,477.5 L667,272.5 A2.5,2.5 0 0 1 669.5,270" fill="#EEF4FB" style="stroke:#2E75B6;stroke-width:1.5;"/><line style="stroke:#2E75B6;stroke-width:1.5;" x1="667" x2="720.0166" y1="287.3203" y2="287.3203"/><text fill="#000000" font-family="sans-serif" font-size="9" font-weight="700" lengthAdjust="spacing" textLength="40.0166" x="671" y="281.3428">Paiement</text></g><!--cluster Transporteur--><g class="cluster" data-qualified-name="Transporteur" data-source-line="52" id="ent0030"><path d="M667.5,504 L724.5083,504 A3.75,3.75 0 0 1 727.0083,506.5 L734.0083,521.3203 L818.5,521.3203 A2.5,2.5 0 0 1 821,523.8203 L821,579.5 A2.5,2.5 0 0 1 818.5,582 L667.5,582 A2.5,2.5 0 0 1 665,579.5 L665,506.5 A2.5,2.5 0 0 1 667.5,504" fill="#EEF4FB" style="stroke:#2E75B6;stroke-width:1.5;"/><line style="stroke:#2E75B6;stroke-width:1.5;" x1="665" x2="734.0083" y1="521.3203" y2="521.3203"/><text fill="#000000" font-family="sans-serif" font-size="9" font-weight="700" lengthAdjust="spacing" textLength="56.0083" x="669" y="515.3428">Transporteur</text></g><!--entity FSA01--><g class="entity" data-qualified-name="Administrateur.FSA01" data-source-line="16" id="ent0002"><rect fill="#FEFEFE" height="31.3203" rx="2.5" ry="2.5" style="stroke:#2E75B6;stroke-width:0.5;" width="107.5303" x="55" y="36.5"/><text fill="#000000" font-family="sans-serif" font-size="9" lengthAdjust="spacing" textLength="87.5303" x="65" y="55.8428">FS-A01 Creer compte</text></g><!--entity FSB01--><g class="entity" data-qualified-name="Acheteur.FSB01" data-source-line="20" id="ent0004"><rect fill="#FEFEFE" height="31.3203" rx="2.5" ry="2.5" style="stroke:#2E75B6;stroke-width:0.5;" width="94.0303" x="62" y="138.5"/><text fill="#000000" font-family="sans-serif" font-size="9" lengthAdjust="spacing" textLength="74.0303" x="72" y="157.8428">FS-B01 Inscription</text></g><!--entity FSB10--><g class="entity" data-qualified-name="Acheteur.FSB10" data-source-line="21" id="ent0005"><rect fill="#FEFEFE" height="31.3203" rx="2.5" ry="2.5" style="stroke:#2E75B6;stroke-width:0.5;" width="124.0449" x="396.5" y="138.5"/><text fill="#000000" font-family="sans-serif" font-size="9" lengthAdjust="spacing" textLength="104.0449" x="406.5" y="157.8428">FS-B10 Activation compte</text></g><!--entity FSB03--><g class="entity" data-qualified-name="Acheteur.FSB03" data-source-line="22" id="ent0006"><rect fill="#FEFEFE" height="31.3203" rx="2.5" ry="2.5" style="stroke:#2E75B6;stroke-width:0.5;" width="94.0435" x="62" y="534.5"/><text fill="#000000" font-family="sans-serif" font-size="9" lengthAdjust="spacing" textLength="74.0435" x="72" y="553.8428">FS-B03 Catalogue</text></g><!--entity FSB04--><g class="entity" data-qualified-name="Acheteur.FSB04" data-source-line="23" id="ent0007"><rect fill="#FEFEFE" height="31.3203" rx="2.5" ry="2.5" style="stroke:#2E75B6;stroke-width:0.5;" width="79.0273" x="419" y="206.5"/><text fill="#000000" font-family="sans-serif" font-size="9" lengthAdjust="spacing" textLength="59.0273" x="429" y="225.8428">FS-B04 Panier</text></g><!--entity FSB05--><g class="entity" data-qualified-name="Acheteur.FSB05" data-source-line="24" id="ent0008"><rect fill="#FEFEFE" height="31.3203" rx="2.5" ry="2.5" style="stroke:#2E75B6;stroke-width:0.5;" width="127.5518" x="45" y="204.5"/><text fill="#000000" font-family="sans-serif" font-size="9" lengthAdjust="spacing" textLength="107.5518" x="55" y="223.8428">FS-B05 Persistance panier</text></g><!--entity FSB11--><g class="entity" data-qualified-name="Acheteur.FSB11" data-source-line="25" id="ent0009"><rect fill="#FEFEFE" height="31.3203" rx="2.5" ry="2.5" style="stroke:#2E75B6;stroke-width:0.5;" width="90.5278" x="413" y="275.5"/><text fill="#000000" font-family="sans-serif" font-size="9" lengthAdjust="spacing" textLength="70.5278" x="423" y="294.8428">FS-B11 Adresses</text></g><!--entity FSB06--><g class="entity" data-qualified-name="Acheteur.FSB06" data-source-line="26" id="ent0010"><rect fill="#FEFEFE" height="31.3203" rx="2.5" ry="2.5" style="stroke:#2E75B6;stroke-width:0.5;" width="105.0474" x="56.5" y="270.5"/><text fill="#000000" font-family="sans-serif" font-size="9" lengthAdjust="spacing" textLength="85.0474" x="66.5" y="289.8428">FS-B06 Tunnel achat</text></g><!--entity FSB07--><g class="entity" data-qualified-name="Acheteur.FSB07" data-source-line="27" id="ent0011"><rect fill="#FEFEFE" height="31.3203" rx="2.5" ry="2.5" style="stroke:#2E75B6;stroke-width:0.5;" width="91.0332" x="413" y="341.5"/><text fill="#000000" font-family="sans-serif" font-size="9" lengthAdjust="spacing" textLength="71.0332" x="423" y="360.8428">FS-B07 Paiement</text></g><!--entity FSB08--><g class="entity" data-qualified-name="Acheteur.FSB08" data-source-line="28" id="ent0012"><rect fill="#FEFEFE" height="31.3203" rx="2.5" ry="2.5" style="stroke:#2E75B6;stroke-width:0.5;" width="119.5405" x="49" y="402.5"/><text fill="#000000" font-family="sans-serif" font-size="9" lengthAdjust="spacing" textLength="99.5405" x="59" y="421.8428">FS-B08 Suivi commande</text></g><!--entity FSB09--><g class="entity" data-qualified-name="Acheteur.FSB09" data-source-line="29" id="ent0013"><rect fill="#FEFEFE" height="31.3203" rx="2.5" ry="2.5" style="stroke:#2E75B6;stroke-width:0.5;" width="149.5859" x="34" y="336.5"/><text fill="#000000" font-family="sans-serif" font-size="9" lengthAdjust="spacing" textLength="129.5859" x="44" y="355.8428">FS-B09 Annulation avant exped.</text></g><!--entity FSB12--><g class="entity" data-qualified-name="Acheteur.FSB12" data-source-line="30" id="ent0014"><rect fill="#FEFEFE" height="31.3203" rx="2.5" ry="2.5" style="stroke:#2E75B6;stroke-width:0.5;" width="173.5933" x="22" y="468.5"/><text fill="#000000" font-family="sans-serif" font-size="9" lengthAdjust="spacing" textLength="153.5933" x="32" y="487.8428">FS-B12 Demande annul. apres exped.</text></g><!--entity FSV02--><g class="entity" data-qualified-name="Vendeur.FSV02" data-source-line="34" id="ent0016"><rect fill="#FEFEFE" height="31.3203" rx="2.5" ry="2.5" style="stroke:#2E75B6;stroke-width:0.5;" width="122.542" x="681.5" y="765.5"/><text fill="#000000" font-family="sans-serif" font-size="9" lengthAdjust="spacing" textLength="102.542" x="691.5" y="784.8428">FS-V02 Catalogue CRUD</text></g><!--entity FSV03--><g class="entity" data-qualified-name="Vendeur.FSV03" data-source-line="35" id="ent0017"><rect fill="#FEFEFE" height="31.3203" rx="2.5" ry="2.5" style="stroke:#2E75B6;stroke-width:0.5;" width="75.5205" x="915" y="855.5"/><text fill="#000000" font-family="sans-serif" font-size="9" lengthAdjust="spacing" textLength="55.5205" x="925" y="874.8428">FS-V03 Stock</text></g><!--entity FSV04--><g class="entity" data-qualified-name="Vendeur.FSV04" data-source-line="36" id="ent0018"><rect fill="#FEFEFE" height="31.3203" rx="2.5" ry="2.5" style="stroke:#2E75B6;stroke-width:0.5;" width="104.0322" x="691" y="831.5"/><text fill="#000000" font-family="sans-serif" font-size="9" lengthAdjust="spacing" textLength="84.0322" x="701" y="850.8428">FS-V04 Commandes</text></g><!--entity FSV05--><g class="entity" data-qualified-name="Vendeur.FSV05" data-source-line="37" id="ent0019"><rect fill="#FEFEFE" height="31.3203" rx="2.5" ry="2.5" style="stroke:#2E75B6;stroke-width:0.5;" width="95.041" x="411" y="636.5"/><text fill="#000000" font-family="sans-serif" font-size="9" lengthAdjust="spacing" textLength="75.041" x="421" y="655.8428">FS-V05 Expedition</text></g><!--entity FSV08--><g class="entity" data-qualified-name="Vendeur.FSV08" data-source-line="38" id="ent0020"><rect fill="#FEFEFE" height="31.3203" rx="2.5" ry="2.5" style="stroke:#2E75B6;stroke-width:0.5;" width="135.0664" x="391" y="702.5"/><text fill="#000000" font-family="sans-serif" font-size="9" lengthAdjust="spacing" textLength="115.0664" x="401" y="721.8428">FS-V08 Annulation post-exp.</text></g><!--entity FSV09--><g class="entity" data-qualified-name="Vendeur.FSV09" data-source-line="39" id="ent0021"><rect fill="#FEFEFE" height="31.3203" rx="2.5" ry="2.5" style="stroke:#2E75B6;stroke-width:0.5;" width="111.5337" x="402.5" y="900.5"/><text fill="#000000" font-family="sans-serif" font-size="9" lengthAdjust="spacing" textLength="91.5337" x="412.5" y="919.8428">FS-V09 Conf. virement</text></g><!--entity FSV10--><g class="entity" data-qualified-name="Vendeur.FSV10" data-source-line="40" id="ent0022"><rect fill="#FEFEFE" height="31.3203" rx="2.5" ry="2.5" style="stroke:#2E75B6;stroke-width:0.5;" width="134.0381" x="676" y="693.5"/><text fill="#000000" font-family="sans-serif" font-size="9" lengthAdjust="spacing" textLength="114.0381" x="686" y="712.8428">FS-V10 Rembours. virement</text></g><!--entity FSV12--><g class="entity" data-qualified-name="Vendeur.FSV12" data-source-line="41" id="ent0023"><rect fill="#FEFEFE" height="31.3203" rx="2.5" ry="2.5" style="stroke:#2E75B6;stroke-width:0.5;" width="99.5234" x="408.5" y="834.5"/><text fill="#000000" font-family="sans-serif" font-size="9" lengthAdjust="spacing" textLength="79.5234" x="418.5" y="853.8428">FS-V12 Import CSV</text></g><!--entity FSV13--><g class="entity" data-qualified-name="Vendeur.FSV13" data-source-line="42" id="ent0024"><rect fill="#FEFEFE" height="31.3203" rx="2.5" ry="2.5" style="stroke:#2E75B6;stroke-width:0.5;" width="100.0288" x="408.5" y="768.5"/><text fill="#000000" font-family="sans-serif" font-size="9" lengthAdjust="spacing" textLength="80.0288" x="418.5" y="787.8428">FS-V13 Export CSV</text></g><!--entity FSV14--><g class="entity" data-qualified-name="Vendeur.FSV14" data-source-line="43" id="ent0025"><rect fill="#FEFEFE" height="31.3203" rx="2.5" ry="2.5" style="stroke:#2E75B6;stroke-width:0.5;" width="109.0332" x="688.5" y="897.5"/><text fill="#000000" font-family="sans-serif" font-size="9" lengthAdjust="spacing" textLength="89.0332" x="698.5" y="916.8428">FS-V14 Stock multiple</text></g><!--entity FSP01--><g class="entity" data-qualified-name="Paiement.FSP01" data-source-line="47" id="ent0027"><rect fill="#FEFEFE" height="31.3203" rx="2.5" ry="2.5" style="stroke:#2E75B6;stroke-width:0.5;" width="100.5386" x="692.5" y="300.5"/><text fill="#000000" font-family="sans-serif" font-size="9" lengthAdjust="spacing" textLength="80.5386" x="702.5" y="319.8428">FS-P01 Autorisation</text></g><!--entity FSP02--><g class="entity" data-qualified-name="Paiement.FSP02" data-source-line="48" id="ent0028"><rect fill="#FEFEFE" height="31.3203" rx="2.5" ry="2.5" style="stroke:#2E75B6;stroke-width:0.5;" width="104.0322" x="691" y="432.5"/><text fill="#000000" font-family="sans-serif" font-size="9" lengthAdjust="spacing" textLength="84.0322" x="701" y="451.8428">FS-P02 Confirmation</text></g><!--entity FSP03--><g class="entity" data-qualified-name="Paiement.FSP03" data-source-line="49" id="ent0029"><rect fill="#FEFEFE" height="31.3203" rx="2.5" ry="2.5" style="stroke:#2E75B6;stroke-width:0.5;" width="119.5405" x="683" y="366.5"/><text fill="#000000" font-family="sans-serif" font-size="9" lengthAdjust="spacing" textLength="99.5405" x="693" y="385.8428">FS-P03 Remboursement</text></g><!--entity FSC01--><g class="entity" data-qualified-name="Transporteur.FSC01" data-source-line="53" id="ent0031"><rect fill="#FEFEFE" height="31.3203" rx="2.5" ry="2.5" style="stroke:#2E75B6;stroke-width:0.5;" width="124.0405" x="681" y="534.5"/><text fill="#000000" font-family="sans-serif" font-size="9" lengthAdjust="spacing" textLength="104.0405" x="691" y="553.8428">FS-C01 Suivi transporteur</text></g><g class="entity" data-qualified-name="NoteS" data-source-line="56" id="ent0032"><path d="M28.5,600.5 L28.5,633.1406 L189.5625,633.1406 L189.5625,610.5 L179.5625,600.5 L28.5,600.5" fill="#FFFBE6" style="stroke:#F0A500;stroke-width:0.5;"/><path d="M179.5625,600.5 L179.5625,610.5 L189.5625,610.5 L179.5625,600.5" fill="#FFFBE6" style="stroke:#F0A500;stroke-width:1;"/><text fill="#000000" font-family="sans-serif" font-size="9" lengthAdjust="spacing" textLength="140.0625" x="34.5" y="614.8428">FS-S01 a S07 : securite transverse</text><text fill="#000000" font-family="sans-serif" font-size="9" lengthAdjust="spacing" textLength="116.2793" x="34.5" y="626.1631">(s'appliquent a toutes les FS)</text></g><!--link FSA01 to FSB10--><g class="link" data-entity-1="ent0002" data-entity-2="ent0005" data-link-type="dependency" data-source-line="58" id="lnk33"><path d="M163.16,67.6 C228.65,86.83 334.4725,117.8814 399.8325,137.0714" fill="none" id="FSA01-to-FSB10" style="stroke:#444444;stroke-width:1;"/><polygon fill="#444444" points="404.63,138.48,397.1214,132.1066,399.8325,137.0714,394.8677,139.7826,404.63,138.48" style="stroke:#444444;stroke-width:1;stroke-linejoin:miter;stroke-miterlimit:10;"/><text fill="#000000" font-family="sans-serif" font-size="9" lengthAdjust="spacing" textLength="38.0215" x="273.5" y="85.3428">activation</text></g><!--link FSB01 to FSB10--><g class="link" data-entity-1="ent0004" data-entity-2="ent0005" data-link-type="dependency" data-source-line="59" id="lnk34"><path d="M156.15,154 C217.9,154 322.59,154 391.22,154" fill="none" id="FSB01-to-FSB10" style="stroke:#444444;stroke-width:1;"/><polygon fill="#444444" points="396.22,154,387.22,150,391.22,154,387.22,158,396.22,154" style="stroke:#444444;stroke-width:1;stroke-linejoin:miter;stroke-miterlimit:10;"/><text fill="#000000" font-family="sans-serif" font-size="9" lengthAdjust="spacing" textLength="38.0215" x="273.5" y="151.3428">activation</text></g><!--link FSB03 to FSV02--><g class="link" data-entity-1="ent0006" data-entity-2="ent0016" data-link-type="dependency" data-source-line="60" id="lnk35"><path d="M156.3,558.5 C170.93,563.37 185.9,571.01 196,583 C240.09,635.32 204.71,668.97 226,734 C272.1,874.77 242.05,956.44 367,1036 C433.54,1078.37 472.52,1068.29 544.5,1036 C606.4,1008.23 618.68,984.09 646,922 C655.72,899.92 642.38,833.19 657,814 C663.33,805.69 667.5656,801.6814 677.0156,797.0214" fill="none" id="FSB03-to-FSV02" style="stroke:#444444;stroke-width:1;"/><polygon fill="#444444" points="681.5,794.81,671.659,795.2029,677.0156,797.0214,675.1972,802.378,681.5,794.81" style="stroke:#444444;stroke-width:1;stroke-linejoin:miter;stroke-miterlimit:10;"/><text fill="#000000" font-family="sans-serif" font-size="9" lengthAdjust="spacing" textLength="27.0132" x="445" y="1033.3428">lecture</text></g><!--link FSB05 to FSB04--><g class="link" data-entity-1="ent0008" data-entity-2="ent0007" data-link-type="dependency" data-source-line="61" id="lnk36"><path d="M173.33,220.36 C244.98,220.77 354.4101,221.4006 413.8401,221.7506" fill="none" id="FSB05-to-FSB04" style="stroke:#444444;stroke-width:1;"/><polygon fill="#444444" points="418.84,221.78,409.8637,217.7271,413.8401,221.7506,409.8166,225.7269,418.84,221.78" style="stroke:#444444;stroke-width:1;stroke-linejoin:miter;stroke-miterlimit:10;"/><text fill="#000000" font-family="sans-serif" font-size="9" lengthAdjust="spacing" textLength="47.5269" x="269" y="218.3428">restauration</text></g><!--link FSB06 to FSB04--><g class="link" data-entity-1="ent0010" data-entity-2="ent0007" data-link-type="dependency" data-source-line="62" id="lnk37"><path d="M161.61,277.69 C212.04,269.43 290.94,256.12 359,243 C378.74,239.19 395.7443,235.6329 413.8543,231.6929" fill="none" id="FSB06-to-FSB04" style="stroke:#444444;stroke-width:1;"/><polygon fill="#444444" points="418.74,230.63,409.0954,228.6347,413.8543,231.6929,410.7961,236.4518,418.74,230.63" style="stroke:#444444;stroke-width:1;stroke-linejoin:miter;stroke-miterlimit:10;"/><text fill="#000000" font-family="sans-serif" font-size="9" lengthAdjust="spacing" textLength="59.5459" x="263" y="240.3428">contenu panier</text></g><!--link FSB06 to FSB11--><g class="link" data-entity-1="ent0010" data-entity-2="ent0009" data-link-type="dependency" data-source-line="63" id="lnk38"><path d="M161.53,300.66 C181.49,305.63 204.64,310.54 226,313 C284.73,319.74 300.25,319.48 359,313 C376.76,311.04 391.1451,308.3044 407.8751,304.3344" fill="none" id="FSB06-to-FSB11" style="stroke:#444444;stroke-width:1;"/><polygon fill="#444444" points="412.74,303.18,403.0596,301.3661,407.8751,304.3344,404.9067,309.1499,412.74,303.18" style="stroke:#444444;stroke-width:1;stroke-linejoin:miter;stroke-miterlimit:10;"/><text fill="#000000" font-family="sans-serif" font-size="9" lengthAdjust="spacing" textLength="67.5308" x="259" y="310.3428">adresse livraison</text></g><!--link FSB06 to FSB07--><g class="link" data-entity-1="ent0010" data-entity-2="ent0011" data-link-type="dependency" data-source-line="64" id="lnk39"><path d="M156.35,301.63 C169.43,306.61 183.5,312.53 196,319 C210.23,326.36 210.85,333.76 226,339 C288.1,360.46 359.9735,362.0777 407.6335,360.2877" fill="none" id="FSB06-to-FSB07" style="stroke:#444444;stroke-width:1;"/><polygon fill="#444444" points="412.63,360.1,403.4862,356.4406,407.6335,360.2877,403.7865,364.435,412.63,360.1" style="stroke:#444444;stroke-width:1;stroke-linejoin:miter;stroke-miterlimit:10;"/><text fill="#000000" font-family="sans-serif" font-size="9" lengthAdjust="spacing" textLength="37.0239" x="274" y="336.3428">paiement</text></g><!--link FSB06 to FSV04--><g class="link" data-entity-1="ent0010" data-entity-2="ent0018" data-link-type="dependency" data-source-line="65" id="lnk40"><path d="M161.71,299.5 C173.83,304.31 186.08,310.67 196,319 C215.85,335.66 212.25,347.03 226,369 C283.41,460.75 327.1,469.57 359,573 C365.37,593.65 351.56,946.87 367,962 C423.35,1017.2 467,976.72 544.5,962 C592.14,952.95 613.82,958.27 646,922 C658.81,907.56 644.16,894.4 657,880 C665.96,869.96 673.6804,864.7533 686.2204,859.8733" fill="none" id="FSB06-to-FSV04" style="stroke:#444444;stroke-width:1;"/><polygon fill="#444444" points="690.88,858.06,681.0421,857.5963,686.2204,859.8733,683.9434,865.0516,690.88,858.06" style="stroke:#444444;stroke-width:1;stroke-linejoin:miter;stroke-miterlimit:10;"/><text fill="#000000" font-family="sans-serif" font-size="9" lengthAdjust="spacing" textLength="79.04" x="419" y="959.3428">creation commande</text></g><!--link FSB07 to FSP01--><g class="link" data-entity-1="ent0011" data-entity-2="ent0027" data-link-type="dependency" data-source-line="66" id="lnk41"><path d="M504.26,350.5 C555.45,343.07 634.0718,331.6582 687.2618,323.9382" fill="none" id="FSB07-to-FSP01" style="stroke:#444444;stroke-width:1;"/><polygon fill="#444444" points="692.21,323.22,682.7288,320.5542,687.2618,323.9382,683.8779,328.4712,692.21,323.22" style="stroke:#444444;stroke-width:1;stroke-linejoin:miter;stroke-miterlimit:10;"/><text fill="#000000" font-family="sans-serif" font-size="9" lengthAdjust="spacing" textLength="46.5293" x="578" y="328.3428">autorisation</text></g><!--link FSB08 to FSC01--><g class="link" data-entity-1="ent0012" data-entity-2="ent0031" data-link-type="dependency" data-source-line="67" id="lnk42"><path d="M159.59,433.59 C241.33,458.65 409.85,507.65 556,533 C597.37,540.17 639.5013,544.1033 675.9513,546.5633" fill="none" id="FSB08-to-FSC01" style="stroke:#444444;stroke-width:1;"/><polygon fill="#444444" points="680.94,546.9,672.2298,542.303,675.9513,546.5633,671.6911,550.2849,680.94,546.9" style="stroke:#444444;stroke-width:1;stroke-linejoin:miter;stroke-miterlimit:10;"/><text fill="#000000" font-family="sans-serif" font-size="9" lengthAdjust="spacing" textLength="57.0322" x="430" y="490.3428">affichage suivi</text></g><!--link FSB09 to FSP03--><g class="link" data-entity-1="ent0013" data-entity-2="ent0029" data-link-type="dependency" data-source-line="68" id="lnk43"><path d="M170.77,367.56 C222.53,379.96 299.09,396.33 367,403 C445.51,410.71 465.72,407.17 544.5,403 C591.16,400.52 638.788,395.4055 677.968,390.5455" fill="none" id="FSB09-to-FSP03" style="stroke:#444444;stroke-width:1;"/><polygon fill="#444444" points="682.93,389.93,673.5061,387.0683,677.968,390.5455,674.4908,395.0075,682.93,389.93" style="stroke:#444444;stroke-width:1;stroke-linejoin:miter;stroke-miterlimit:10;"/><text fill="#000000" font-family="sans-serif" font-size="9" lengthAdjust="spacing" textLength="63.0264" x="427" y="400.3428">remboursement</text></g><!--link FSB12 to FSV08--><g class="link" data-entity-1="ent0014" data-entity-2="ent0020" data-link-type="dependency" data-source-line="69" id="lnk44"><path d="M173.68,499.67 C182.14,504.09 189.96,509.75 196,517 C242.57,572.93 174.2,626.87 226,678 C268.75,720.19 333.9128,727.2385 385.8128,725.4885" fill="none" id="FSB12-to-FSV08" style="stroke:#444444;stroke-width:1;"/><polygon fill="#444444" points="390.81,725.32,381.6803,721.6256,385.8128,725.4885,381.9499,729.621,390.81,725.32" style="stroke:#444444;stroke-width:1;stroke-linejoin:miter;stroke-miterlimit:10;"/><text fill="#000000" font-family="sans-serif" font-size="9" lengthAdjust="spacing" textLength="131.0977" x="227" y="675.3428">demande annulation post-exped.</text></g><!--link FSP02 to FSV04--><g class="link" data-entity-1="ent0028" data-entity-2="ent0018" data-link-type="dependency" data-source-line="70" id="lnk45"><path d="M716.69,463.65 C697.68,476.18 672.69,495.38 657,518 C592,611.73 524.96,662.05 579,762.5 C601.23,803.82 646.9166,824.1669 686.0466,835.1669" fill="none" id="FSP02-to-FSV04" style="stroke:#444444;stroke-width:1;"/><polygon fill="#444444" points="690.86,836.52,683.2783,830.2336,686.0466,835.1669,681.1133,837.9351,690.86,836.52" style="stroke:#444444;stroke-width:1;stroke-linejoin:miter;stroke-miterlimit:10;"/><text fill="#000000" font-family="sans-serif" font-size="9" lengthAdjust="spacing" textLength="88.5454" x="557" y="759.8428">confirmation paiement</text></g><!--link FSV04 to FSV03--><g class="link" data-entity-1="ent0018" data-entity-2="ent0017" data-link-type="dependency" data-source-line="71" id="lnk46"><path d="M795.15,852.9 C832.2,857.17 876.4628,862.2882 909.8228,866.1282" fill="none" id="FSV04-to-FSV03" style="stroke:#444444;stroke-width:1;"/><polygon fill="#444444" points="914.79,866.7,906.3064,861.6971,909.8228,866.1282,905.3916,869.6446,914.79,866.7" style="stroke:#444444;stroke-width:1;stroke-linejoin:miter;stroke-miterlimit:10;"/><text fill="#000000" font-family="sans-serif" font-size="9" lengthAdjust="spacing" textLength="43.0093" x="841" y="856.3428">verif. stock</text></g><!--link FSV05 to FSC01--><g class="link" data-entity-1="ent0019" data-entity-2="ent0031" data-link-type="dependency" data-source-line="72" id="lnk47"><path d="M506.05,639.32 C544.12,628.52 599.13,611.94 646,594 C667.92,585.61 687.4143,576.7777 705.9343,567.8677" fill="none" id="FSV05-to-FSC01" style="stroke:#444444;stroke-width:1;"/><polygon fill="#444444" points="710.44,565.7,700.5956,565.9973,705.9343,567.8677,704.0639,573.2064,710.44,565.7" style="stroke:#444444;stroke-width:1;stroke-linejoin:miter;stroke-miterlimit:10;"/><text fill="#000000" font-family="sans-serif" font-size="9" lengthAdjust="spacing" textLength="69.0293" x="566.5" y="591.3428">URL transporteur</text></g><!--link FSV05 to FSB08--><g class="link" data-entity-1="ent0019" data-entity-2="ent0012" data-link-type="dependency" data-source-line="73" id="lnk48"><path d="M410.88,653.93 C358.37,653.41 274.12,644.01 226,594 C180.98,547.2 238.11,500.43 196,451 C188.84,442.6 183.839,438.427 173.709,433.747" fill="none" id="FSV05-to-FSB08" style="stroke:#444444;stroke-width:1;"/><polygon fill="#444444" points="169.17,431.65,175.6626,439.0558,173.709,433.747,179.0178,431.7934,169.17,431.65" style="stroke:#444444;stroke-width:1;stroke-linejoin:miter;stroke-miterlimit:10;"/><text fill="#000000" font-family="sans-serif" font-size="9" lengthAdjust="spacing" textLength="57.0366" x="264" y="591.3428">notif. acheteur</text></g><!--link FSV08 to FSP03--><g class="link" data-entity-1="ent0020" data-entity-2="ent0029" data-link-type="dependency" data-source-line="74" id="lnk49"><path d="M523.4,702.42 C531.53,697.99 538.93,692.3 544.5,685 C559.67,665.1 546.55,596.16 556,573 C580.26,513.55 617.72,517.64 646,460 C655.07,441.51 643.42,430.48 657,415 C663.99,407.02 668.6314,403.1006 678.3414,398.5006" fill="none" id="FSV08-to-FSP03" style="stroke:#444444;stroke-width:1;"/><polygon fill="#444444" points="682.86,396.36,673.014,396.5983,678.3414,398.5006,676.439,403.828,682.86,396.36" style="stroke:#444444;stroke-width:1;stroke-linejoin:miter;stroke-miterlimit:10;"/><text fill="#000000" font-family="sans-serif" font-size="9" lengthAdjust="spacing" textLength="85.5352" x="558.5" y="457.3428">remboursement carte</text></g><!--link FSV08 to FSV10--><g class="link" data-entity-1="ent0020" data-entity-2="ent0022" data-link-type="dependency" data-source-line="75" id="lnk50"><path d="M526.09,715.88 C571.28,714.44 625.7725,712.6996 670.8625,711.2596" fill="none" id="FSV08-to-FSV10" style="stroke:#444444;stroke-width:1;"/><polygon fill="#444444" points="675.86,711.1,666.7369,707.3893,670.8625,711.2596,666.9923,715.3852,675.86,711.1" style="stroke:#444444;stroke-width:1;stroke-linejoin:miter;stroke-miterlimit:10;"/><text fill="#000000" font-family="sans-serif" font-size="9" lengthAdjust="spacing" textLength="66.0234" x="568" y="710.3428">virement inverse</text></g><!--link FSV09 to FSV04--><g class="link" data-entity-1="ent0021" data-entity-2="ent0018" data-link-type="dependency" data-source-line="76" id="lnk51"><path d="M514.56,916.77 C553.03,915.33 604.7,909.35 646,890 C651.98,887.19 651.38,883.47 657,880 C668.04,873.17 676.0789,869.1651 688.2189,864.3751" fill="none" id="FSV09-to-FSV04" style="stroke:#444444;stroke-width:1;"/><polygon fill="#444444" points="692.87,862.54,683.03,862.1224,688.2189,864.3751,685.9662,869.5641,692.87,862.54" style="stroke:#444444;stroke-width:1;stroke-linejoin:miter;stroke-miterlimit:10;"/><text fill="#000000" font-family="sans-serif" font-size="9" lengthAdjust="spacing" textLength="61.04" x="570.5" y="887.3428">declenchement</text></g><!--link FSV12 to FSV02--><g class="link" data-entity-1="ent0023" data-entity-2="ent0016" data-link-type="dependency" data-source-line="77" id="lnk52"><path d="M508.61,838.26 C546.23,829.25 599.42,816.44 646,805 C657.43,802.19 664.7593,800.3827 676.4793,797.4527" fill="none" id="FSV12-to-FSV02" style="stroke:#444444;stroke-width:1;"/><polygon fill="#444444" points="681.33,796.24,671.6286,794.5423,676.4793,797.4527,673.5689,802.3034,681.33,796.24" style="stroke:#444444;stroke-width:1;stroke-linejoin:miter;stroke-miterlimit:10;"/><text fill="#000000" font-family="sans-serif" font-size="9" lengthAdjust="spacing" textLength="25.0049" x="588.5" y="802.3428">import</text></g><!--link FSV13 to FSV02--><g class="link" data-entity-1="ent0024" data-entity-2="ent0016" data-link-type="dependency" data-source-line="78" id="lnk53"><path d="M508.59,783.94 C546.2,783.85 599.38,783.61 646,783 C657.42,782.85 664.601,782.7424 676.321,782.5024" fill="none" id="FSV13-to-FSV02" style="stroke:#444444;stroke-width:1;"/><polygon fill="#444444" points="681.32,782.4,672.24,778.5851,676.321,782.5024,672.4038,786.5834,681.32,782.4" style="stroke:#444444;stroke-width:1;stroke-linejoin:miter;stroke-miterlimit:10;"/><text fill="#000000" font-family="sans-serif" font-size="9" lengthAdjust="spacing" textLength="25.0137" x="588.5" y="780.3428">export</text></g><!--link FSV14 to FSV03--><g class="link" data-entity-1="ent0025" data-entity-2="ent0017" data-link-type="dependency" data-source-line="79" id="lnk54"><path d="M797.59,902.49 C823.93,897.29 856.14,890.88 885,885 C894.66,883.03 900.205,881.8794 909.905,879.8594" fill="none" id="FSV14-to-FSV03" style="stroke:#444444;stroke-width:1;"/><polygon fill="#444444" points="914.8,878.84,905.1735,876.7589,909.905,879.8594,906.8045,884.5909,914.8,878.84" style="stroke:#444444;stroke-width:1;stroke-linejoin:miter;stroke-miterlimit:10;"/><text fill="#000000" font-family="sans-serif" font-size="9" lengthAdjust="spacing" textLength="38.0083" x="843.5" y="882.3428">maj stock</text></g><?plantuml-src VLLDSzis4BtpLsoTGzk3FVgq9Hyo8odYJ6Ow7OsLy9BqW90h6J49i02eV7Jwtxi0gJKGkR5lUc_VVhq5VscDE3O2Ql5DTmugxJBx95KhZ6YWr4sh5IgtTzzg18Eb4-fOOqIfy22wskMQIF8xmZB2xAEez1UfZd0GjOsZLiReBnjTQmElPk7lfQnhKJuTZUvKDL3phVz_aQfDXMQWJRPty_LjH6j9I1pnGc-xpMVv-WNYJzMKTfTIUPwljnUiM2SVhUQZKPRLU73WD1XvVAI1IpzLgLMM3SdXQbKrKadhZ73OcIlu9mFuaE-lLwCnR0oY2Nqx_0k4XNnFFsV_nk7b8wQ1QmfygsnfPEjJ3N7qwnaVZs15LPo4XrDrmbXb2XlXHAsF7QEZAQCps0abqJ0qOsWEEpIMMXAgH9foGfjp5MDOLGQjHSl9kSJHBRphbC8QHFae74VVCk6Eyajio0qCtZ6uW7qdJzBtrWXLFTU_OCeILafrTJy3SHBA0NvjiRfXxf8hdS0R33eWVCmDY9OA_u4_dYHxAP3uyLgAqUHveB1vUFzcY2I0ALFOErq-CJ9bP0QReHdBw8pHEMnzCJ9QUC6ZBcWUKREjjkwQQhzXueA9IygY3ZTm8gD6ioru60MPvm6RJxepzfB6xYbePc_fMes3pRvWc1iTJtt1FyBSxNZMpm4QUcraMoDJPicGpnPudlAEpB_gd3RIYcWOEtR_pg-1UfIcIGaJ9aovmxWv-Zt9_Su8PNqBoPOtbB_tdelmGMBJtwv_BE2Ao7iY2zYJb-_1OjaPIK28Ez41uKVrc_rLj6qj_-we3g8wUhN9U3LwjT-llEgV9BRFil0mmFNrw_w8IL3mYMVX-dy6JWVGU_IUv4lN6Gp8_1n61hodRm8TTMUU0syJkAJl0gfkEFcKGETEQVk3XrgUZ93sGiGFeXrsca15hs-Gtwnm2baVr7FywYb5jFm0BmPuqyE7WwGNXHPe_PO2Oya2qz1ZjFii73ONiI2yYf-2zABeDSY2bTAg8xV5tNdqpFE9QUUIJizwumTudbJ-_k6Fn5C9PHrA8sDv1J5y4hA-vFzj3af1IWch2EuudpL85OmOACkagGhB6XKbEZSJJSbxI8RZ3q1gBlpAGDf-8puFlVy7?></g></svg>