<?plantuml 1.2026.2?><svg xmlns="http://www.w3.org/2000/svg" xmlns:xlink="http://www.w3.org/1999/xlink" contentStyleType="text/css" data-diagram-type="DESCRIPTION" height="384px" preserveAspectRatio="none" style="width:573px;height:384px;background:#FFFFFF;" version="1.1" viewBox="0 0 573 384" width="573px" zoomAndPan="magnify"><defs/><g><!--entity UI Controller--><g class="entity" data-qualified-name="UI Controller" data-source-line="3" id="ent0002"><rect fill="#F1F1F1" height="47.6094" rx="2.5" ry="2.5" style="stroke:#181818;stroke-width:0.5;" width="118.5791" x="73" y="7"/><rect fill="#F1F1F1" height="10" style="stroke:#181818;stroke-width:0.5;" width="15" x="171.5791" y="12"/><rect fill="#F1F1F1" height="2" style="stroke:#181818;stroke-width:0.5;" width="4" x="169.5791" y="14"/><rect fill="#F1F1F1" height="2" style="stroke:#181818;stroke-width:0.5;" width="4" x="169.5791" y="18"/><text fill="#000000" font-family="sans-serif" font-size="14" lengthAdjust="spacing" textLength="78.5791" x="88" y="41.5332">UI Controller</text></g><!--entity Catalog Service--><g class="entity" data-qualified-name="Catalog Service" data-source-line="4" id="ent0003"><rect fill="#F1F1F1" height="47.6094" rx="2.5" ry="2.5" style="stroke:#181818;stroke-width:0.5;" width="138.8271" x="7" y="331"/><rect fill="#F1F1F1" height="10" style="stroke:#181818;stroke-width:0.5;" width="15" x="125.8271" y="336"/><rect fill="#F1F1F1" height="2" style="stroke:#181818;stroke-width:0.5;" width="4" x="123.8271" y="338"/><rect fill="#F1F1F1" height="2" style="stroke:#181818;stroke-width:0.5;" width="4" x="123.8271" y="342"/><text fill="#000000" font-family="sans-serif" font-size="14" lengthAdjust="spacing" textLength="98.8271" x="22" y="365.5332">Catalog Service</text></g><!--entity Cart Service--><g class="entity" data-qualified-name="Cart Service" data-source-line="5" id="ent0004"><rect fill="#F1F1F1" height="47.6094" rx="2.5" ry="2.5" style="stroke:#181818;stroke-width:0.5;" width="117.0205" x="74" y="223"/><rect fill="#F1F1F1" height="10" style="stroke:#181818;stroke-width:0.5;" width="15" x="171.0205" y="228"/><rect fill="#F1F1F1" height="2" style="stroke:#181818;stroke-width:0.5;" width="4" x="169.0205" y="230"/><rect fill="#F1F1F1" height="2" style="stroke:#181818;stroke-width:0.5;" width="4" x="169.0205" y="234"/><text fill="#000000" font-family="sans-serif" font-size="14" lengthAdjust="spacing" textLength="77.0205" x="89" y="257.5332">Cart Service</text></g><!--entity Order Service--><g class="entity" data-qualified-name="Order Service" data-source-line="6" id="ent0005"><rect fill="#F1F1F1" height="47.6094" rx="2.5" ry="2.5" style="stroke:#181818;stroke-width:0.5;" width="126.3584" x="210.5" y="115"/><rect fill="#F1F1F1" height="10" style="stroke:#181818;stroke-width:0.5;" width="15" x="316.8584" y="120"/><rect fill="#F1F1F1" height="2" style="stroke:#181818;stroke-width:0.5;" width="4" x="314.8584" y="122"/><rect fill="#F1F1F1" height="2" style="stroke:#181818;stroke-width:0.5;" width="4" x="314.8584" y="126"/><text fill="#000000" font-family="sans-serif" font-size="14" lengthAdjust="spacing" textLength="86.3584" x="225.5" y="149.5332">Order Service</text></g><!--entity Payment Service--><g class="entity" data-qualified-name="Payment Service" data-source-line="7" id="ent0006"><rect fill="#F1F1F1" height="47.6094" rx="2.5" ry="2.5" style="stroke:#181818;stroke-width:0.5;" width="145.8203" x="226.5" y="223"/><rect fill="#F1F1F1" height="10" style="stroke:#181818;stroke-width:0.5;" width="15" x="352.3203" y="228"/><rect fill="#F1F1F1" height="2" style="stroke:#181818;stroke-width:0.5;" width="4" x="350.3203" y="230"/><rect fill="#F1F1F1" height="2" style="stroke:#181818;stroke-width:0.5;" width="4" x="350.3203" y="234"/><text fill="#000000" font-family="sans-serif" font-size="14" lengthAdjust="spacing" textLength="105.8203" x="241.5" y="257.5332">Payment Service</text></g><!--entity Notification Service--><g class="entity" data-qualified-name="Notification Service" data-source-line="8" id="ent0007"><rect fill="#F1F1F1" height="47.6094" rx="2.5" ry="2.5" style="stroke:#181818;stroke-width:0.5;" width="159.8271" x="407.5" y="223"/><rect fill="#F1F1F1" height="10" style="stroke:#181818;stroke-width:0.5;" width="15" x="547.3271" y="228"/><rect fill="#F1F1F1" height="2" style="stroke:#181818;stroke-width:0.5;" width="4" x="545.3271" y="230"/><rect fill="#F1F1F1" height="2" style="stroke:#181818;stroke-width:0.5;" width="4" x="545.3271" y="234"/><text fill="#000000" font-family="sans-serif" font-size="14" lengthAdjust="spacing" textLength="119.8271" x="422.5" y="257.5332">Notification Service</text></g><!--link UI Controller to Catalog Service--><g class="link" data-entity-1="ent0002" data-entity-2="ent0003" data-link-type="dependency" data-source-line="10" id="lnk8"><path d="M119.88,55.24 C101.62,90.35 68.66,159.56 56.5,223 C49.31,260.51 58.0524,298.7288 66.3524,324.9988" fill="none" id="UI Controller-to-Catalog Service" style="stroke:#181818;stroke-width:1;"/><polygon fill="#181818" points="68.16,330.72,69.2627,320.9331,66.6536,325.9523,61.6344,323.3432,68.16,330.72" style="stroke:#181818;stroke-width:1;"/></g><!--link UI Controller to Cart Service--><g class="link" data-entity-1="ent0002" data-entity-2="ent0004" data-link-type="dependency" data-source-line="11" id="lnk9"><path d="M132.5,55.31 C132.5,96.47 132.5,175.58 132.5,216.72" fill="none" id="UI Controller-to-Cart Service" style="stroke:#181818;stroke-width:1;"/><polygon fill="#181818" points="132.5,222.72,136.5,213.72,132.5,217.72,128.5,213.72,132.5,222.72" style="stroke:#181818;stroke-width:1;"/></g><!--link UI Controller to Order Service--><g class="link" data-entity-1="ent0002" data-entity-2="ent0005" data-link-type="dependency" data-source-line="12" id="lnk10"><path d="M163.09,55 C186.58,72.66 214.0839,93.3348 237.6839,111.0748" fill="none" id="UI Controller-to-Order Service" style="stroke:#181818;stroke-width:1;"/><polygon fill="#181818" points="242.48,114.68,237.6893,106.0748,238.4833,111.6757,232.8824,112.4696,242.48,114.68" style="stroke:#181818;stroke-width:1;"/></g><!--link Cart Service to Catalog Service--><g class="link" data-entity-1="ent0004" data-entity-2="ent0003" data-link-type="dependency" data-source-line="13" id="lnk11"><path d="M120.35,271 C111.02,288.66 100.9922,307.6346 91.6222,325.3746" fill="none" id="Cart Service-to-Catalog Service" style="stroke:#181818;stroke-width:1;"/><polygon fill="#181818" points="88.82,330.68,96.5603,324.59,91.1552,326.2588,89.4864,320.8537,88.82,330.68" style="stroke:#181818;stroke-width:1;"/></g><!--link Order Service to Cart Service--><g class="link" data-entity-1="ent0005" data-entity-2="ent0004" data-link-type="dependency" data-source-line="14" id="lnk12"><path d="M242.91,163 C219.42,180.66 191.9161,201.3348 168.3161,219.0748" fill="none" id="Order Service-to-Cart Service" style="stroke:#181818;stroke-width:1;"/><polygon fill="#181818" points="163.52,222.68,173.1176,220.4696,167.5167,219.6757,168.3107,214.0748,163.52,222.68" style="stroke:#181818;stroke-width:1;"/></g><!--link Order Service to Payment Service--><g class="link" data-entity-1="ent0005" data-entity-2="ent0006" data-link-type="dependency" data-source-line="15" id="lnk13"><path d="M279.14,163 C283.47,180.66 288.0011,199.1126 292.3511,216.8526" fill="none" id="Order Service-to-Payment Service" style="stroke:#181818;stroke-width:1;"/><polygon fill="#181818" points="293.78,222.68,295.5215,212.9863,292.5892,217.8239,287.7517,214.8916,293.78,222.68" style="stroke:#181818;stroke-width:1;"/></g><!--link Order Service to Notification Service--><g class="link" data-entity-1="ent0005" data-entity-2="ent0007" data-link-type="dependency" data-source-line="16" id="lnk14"><path d="M319.93,163 C355.71,180.72 399.5733,202.4471 435.4133,220.1971" fill="none" id="Order Service-to-Notification Service" style="stroke:#181818;stroke-width:1;"/><polygon fill="#181818" points="440.79,222.86,434.5002,215.2812,436.3094,220.641,430.9497,222.4502,440.79,222.86" style="stroke:#181818;stroke-width:1;"/></g><?plantuml-src TP2n3e9038RtUuhw0EnEBaGJ5Z0vMJGE3HJJ25TIBoRwzEe4d6Lhydr_-hURbZeE18UgFFdYl8UjUzmvZAWuG2SXUdvFr3KoZ18eHBZK1UHVhjBtfDSvoJ5YBpVmf4zkA64QJL1fIsgI8xw6ts2nKY9tt61a2PFWadAGPJkZreerBsWgITLbP6tNCcJkifI_uqtBVCC7?></g></svg>