<?plantuml 1.2026.2?><svg xmlns="http://www.w3.org/2000/svg" xmlns:xlink="http://www.w3.org/1999/xlink" contentStyleType="text/css" data-diagram-type="DESCRIPTION" height="164px" preserveAspectRatio="none" style="width:678px;height:164px;background:#FFFFFF;" version="1.1" viewBox="0 0 678 164" width="678px" zoomAndPan="magnify"><defs/><g><!--cluster Front-office--><g class="cluster" data-qualified-name="Front-office" data-source-line="12" id="ent0002"><path d="M8.5,6 L70.6016,6 A3.75,3.75 0 0 1 73.1016,8.5 L80.1016,25.8359 L136.5,25.8359 A2.5,2.5 0 0 1 139,28.3359 L139,154.5 A2.5,2.5 0 0 1 136.5,157 L8.5,157 A2.5,2.5 0 0 1 6,154.5 L6,8.5 A2.5,2.5 0 0 1 8.5,6" fill="#EEF4FB" style="stroke:#2E75B6;stroke-width:1.5;"/><line style="stroke:#2E75B6;stroke-width:1.5;" x1="6" x2="80.1016" y1="25.8359" y2="25.8359"/><text fill="#000000" font-family="sans-serif" font-size="11" font-weight="bold" lengthAdjust="spacing" textLength="61.1016" x="10" y="19.4189">Front-office</text></g><!--cluster Noyau M?tier--><g class="cluster" data-qualified-name="Noyau M.tier" data-source-line="17" id="ent0005"><path d="M169.5,6 L239.5723,6 A3.75,3.75 0 0 1 242.0723,8.5 L249.0723,25.8359 L485.5,25.8359 A2.5,2.5 0 0 1 488,28.3359 L488,154.5 A2.5,2.5 0 0 1 485.5,157 L169.5,157 A2.5,2.5 0 0 1 167,154.5 L167,8.5 A2.5,2.5 0 0 1 169.5,6" fill="#EEF4FB" style="stroke:#2E75B6;stroke-width:1.5;"/><line style="stroke:#2E75B6;stroke-width:1.5;" x1="167" x2="249.0723" y1="25.8359" y2="25.8359"/><text fill="#000000" font-family="sans-serif" font-size="11" font-weight="bold" lengthAdjust="spacing" textLength="69.0723" x="171" y="19.4189">Noyau M&#233;tier</text></g><!--cluster Syst?mes externes--><g class="cluster" data-qualified-name="Syst.mes externes" data-source-line="23" id="ent0009"><path d="M518.5,6 L619.1768,6 A3.75,3.75 0 0 1 621.6768,8.5 L628.6768,25.8359 L668.5,25.8359 A2.5,2.5 0 0 1 671,28.3359 L671,154.5 A2.5,2.5 0 0 1 668.5,157 L518.5,157 A2.5,2.5 0 0 1 516,154.5 L516,8.5 A2.5,2.5 0 0 1 518.5,6" fill="#EEF4FB" style="stroke:#2E75B6;stroke-width:1.5;"/><line style="stroke:#2E75B6;stroke-width:1.5;" x1="516" x2="628.6768" y1="25.8359" y2="25.8359"/><text fill="#000000" font-family="sans-serif" font-size="11" font-weight="bold" lengthAdjust="spacing" textLength="99.6768" x="520" y="19.4189">Syst&#232;mes externes</text></g><!--entity PA--><g class="entity" data-qualified-name="Front-office.PA" data-source-line="13" id="ent0003"><rect fill="#E8F4FD" height="33.8359" rx="2.5" ry="2.5" style="stroke:#2E75B6;stroke-width:0.5;" width="98.2622" x="23.5" y="38"/><text fill="#000000" font-family="sans-serif" font-size="11" lengthAdjust="spacing" textLength="78.2622" x="33.5" y="59.4189">Portail Acheteur</text></g><!--entity EV--><g class="entity" data-qualified-name="Front-office.EV" data-source-line="14" id="ent0004"><rect fill="#E8F4FD" height="33.8359" rx="2.5" ry="2.5" style="stroke:#2E75B6;stroke-width:0.5;" width="101.3345" x="22" y="107"/><text fill="#000000" font-family="sans-serif" font-size="11" lengthAdjust="spacing" textLength="81.3345" x="32" y="128.4189">Espace Vendeur</text></g><!--entity GC--><g class="entity" data-qualified-name="Noyau M.tier.GC" data-source-line="18" id="ent0006"><rect fill="#E8F4FD" height="33.8359" rx="2.5" ry="2.5" style="stroke:#2E75B6;stroke-width:0.5;" width="123.3237" x="183" y="38"/><text fill="#000000" font-family="sans-serif" font-size="11" lengthAdjust="spacing" textLength="103.3237" x="193" y="59.4189">Gestion Commandes</text></g><!--entity GCat--><g class="entity" data-qualified-name="Noyau M.tier.GCat" data-source-line="19" id="ent0007"><rect fill="#E8F4FD" height="33.8359" rx="2.5" ry="2.5" style="stroke:#2E75B6;stroke-width:0.5;" width="111.1152" x="189" y="107"/><text fill="#000000" font-family="sans-serif" font-size="11" lengthAdjust="spacing" textLength="91.1152" x="199" y="128.4189">Gestion Catalogue</text></g><!--entity SP--><g class="entity" data-qualified-name="Noyau M.tier.SP" data-source-line="20" id="ent0008"><rect fill="#E8F4FD" height="33.8359" rx="2.5" ry="2.5" style="stroke:#2E75B6;stroke-width:0.5;" width="106.2061" x="366" y="38"/><text fill="#000000" font-family="sans-serif" font-size="11" lengthAdjust="spacing" textLength="86.2061" x="376" y="59.4189">Service Paiement</text></g><!--entity PP--><g class="entity" data-qualified-name="Syst.mes externes.PP" data-source-line="24" id="ent0010"><rect fill="#E8F4FD" height="33.8359" rx="2.5" ry="2.5" style="stroke:#2E75B6;stroke-width:0.5;" width="122.7168" x="532" y="38"/><text fill="#000000" font-family="sans-serif" font-size="11" lengthAdjust="spacing" textLength="102.7168" x="542" y="59.4189">Prestataire Paiement</text></g><!--entity TR--><g class="entity" data-qualified-name="Syst.mes externes.TR" data-source-line="25" id="ent0011"><rect fill="#E8F4FD" height="33.8359" rx="2.5" ry="2.5" style="stroke:#2E75B6;stroke-width:0.5;" width="82.9707" x="552" y="107"/><text fill="#000000" font-family="sans-serif" font-size="11" lengthAdjust="spacing" textLength="62.9707" x="562" y="128.4189">Transporteur</text></g><!--link PA to GC--><g class="link" data-entity-1="ent0003" data-entity-2="ent0006" data-link-type="dependency" data-source-line="28" id="lnk12"><path d="M121.76,55 C140.8,55 156.89,55 176.99,55" fill="none" id="PA-to-GC" style="stroke:#2E75B6;stroke-width:1;"/><polygon fill="#2E75B6" points="182.99,55,173.99,51,177.99,55,173.99,59,182.99,55" style="stroke:#2E75B6;stroke-width:1;"/></g><!--link PA to GCat--><g class="link" data-entity-1="ent0003" data-entity-2="ent0007" data-link-type="dependency" data-source-line="29" id="lnk13"><path d="M115.52,72.06 C141.68,82.67 169.6403,94.0238 195.8103,104.6438" fill="none" id="PA-to-GCat" style="stroke:#2E75B6;stroke-width:1;"/><polygon fill="#2E75B6" points="201.37,106.9,194.5346,99.8093,196.737,105.0199,191.5264,107.2222,201.37,106.9" style="stroke:#2E75B6;stroke-width:1;"/></g><!--link EV to GCat--><g class="link" data-entity-1="ent0004" data-entity-2="ent0007" data-link-type="dependency" data-source-line="30" id="lnk14"><path d="M123.13,124 C143.71,124 161.66,124 182.75,124" fill="none" id="EV-to-GCat" style="stroke:#2E75B6;stroke-width:1;"/><polygon fill="#2E75B6" points="188.75,124,179.75,120,183.75,124,179.75,128,188.75,124" style="stroke:#2E75B6;stroke-width:1;"/></g><!--link EV to GC--><g class="link" data-entity-1="ent0004" data-entity-2="ent0006" data-link-type="dependency" data-source-line="31" id="lnk15"><path d="M115.23,106.86 C129.14,101.16 144.73,94.79 159,89 C172.63,83.47 181.9332,79.7083 195.3632,74.3083" fill="none" id="EV-to-GC" style="stroke:#2E75B6;stroke-width:1;"/><polygon fill="#2E75B6" points="200.93,72.07,191.0875,71.7163,196.291,73.9353,194.072,79.1388,200.93,72.07" style="stroke:#2E75B6;stroke-width:1;"/></g><!--link GC to SP--><g class="link" data-entity-1="ent0006" data-entity-2="ent0008" data-link-type="dependency" data-source-line="32" id="lnk16"><path d="M306.32,55 C325.72,55 341,55 359.74,55" fill="none" id="GC-to-SP" style="stroke:#2E75B6;stroke-width:1;"/><polygon fill="#2E75B6" points="365.74,55,356.74,51,360.74,55,356.74,59,365.74,55" style="stroke:#2E75B6;stroke-width:1;"/></g><!--link SP to PP--><g class="link" data-entity-1="ent0008" data-entity-2="ent0010" data-link-type="dependency" data-source-line="33" id="lnk17"><path d="M472.22,55 C491.06,55 506.49,55 525.98,55" fill="none" id="SP-to-PP" style="stroke:#2E75B6;stroke-width:1;"/><polygon fill="#2E75B6" points="531.98,55,522.98,51,526.98,55,522.98,59,531.98,55" style="stroke:#2E75B6;stroke-width:1;"/></g><!--link GC to TR--><g class="link" data-entity-1="ent0006" data-entity-2="ent0011" data-link-type="dependency" data-source-line="34" id="lnk18"><path d="M300.64,72.08 C321.04,78 344.44,84.31 366,89 C430.35,103 500.2064,112.7751 545.7664,118.4751" fill="none" id="GC-to-TR" style="stroke:#2E75B6;stroke-width:1;"/><polygon fill="#2E75B6" points="551.72,119.22,543.2862,114.1337,546.7587,118.5993,542.2931,122.0718,551.72,119.22" style="stroke:#2E75B6;stroke-width:1;"/></g><?plantuml-src TP1DJiD038NtEOLLrbqKyRT2IaFI5IWYLJU8XPKuwQYJcSWpeHJ4VU0SlHXEbLQf23lBxxtFFswZJ8ECDUIsRgmXupE_qmHCkKTJQGhSoL9GYQtsYHMJ-Y2OpGQYMsDXjyfKKA9smrZ8RBUHrPRXuZA-lPxV3CJJs3dccufjQuhU6jybLyd3gDLoGVmViH4GLlIN5mjlFc8SeGMQIW_U0gjgxQ5GtJkKDK7GXs2IiBnXQijIvJI1pm3W9RNiKMa8ypLvQlaLq44QTbBi94Ym8bCSXNWLV0ruJtQ7BJpkVxmYxe4BSjrKY6nTeoJT8RY8pZJqg6tLKg-XxzIC-4qMWnGLrVAoWvYbPnEpdVFxxveSqBidDkIETx2m1IjNdmFIj9ENZCOrSklnakLpnqr3c4xlk-rEbUmIhqRgO14TAbaeIm-LaFkUm7u1?></g></svg>