<?plantuml 1.2026.2?><svg xmlns="http://www.w3.org/2000/svg" xmlns:xlink="http://www.w3.org/1999/xlink" contentStyleType="text/css" data-diagram-type="DESCRIPTION" height="164px" preserveAspectRatio="none" style="width:632px;height:164px;background:#FFFFFF;" version="1.1" viewBox="0 0 632 164" width="632px" zoomAndPan="magnify"><defs/><g><!--cluster Front-office--><g class="cluster" data-qualified-name="Front-office" data-source-line="12" id="ent0002"><path d="M8.5,6 L70.6016,6 A3.75,3.75 0 0 1 73.1016,8.5 L80.1016,25.8359 L117.5,25.8359 A2.5,2.5 0 0 1 120,28.3359 L120,154.5 A2.5,2.5 0 0 1 117.5,157 L8.5,157 A2.5,2.5 0 0 1 6,154.5 L6,8.5 A2.5,2.5 0 0 1 8.5,6" fill="#EEF4FB" style="stroke:#2E75B6;stroke-width:1.5;"/><line style="stroke:#2E75B6;stroke-width:1.5;" x1="6" x2="80.1016" y1="25.8359" y2="25.8359"/><text fill="#000000" font-family="sans-serif" font-size="11" font-weight="bold" lengthAdjust="spacing" textLength="61.1016" x="10" y="19.4189">Front-office</text></g><!--cluster Business Core--><g class="cluster" data-qualified-name="Business Core" data-source-line="17" id="ent0005"><path d="M150.5,6 L228.5269,6 A3.75,3.75 0 0 1 231.0269,8.5 L238.0269,25.8359 L455.5,25.8359 A2.5,2.5 0 0 1 458,28.3359 L458,154.5 A2.5,2.5 0 0 1 455.5,157 L150.5,157 A2.5,2.5 0 0 1 148,154.5 L148,8.5 A2.5,2.5 0 0 1 150.5,6" fill="#EEF4FB" style="stroke:#2E75B6;stroke-width:1.5;"/><line style="stroke:#2E75B6;stroke-width:1.5;" x1="148" x2="238.0269" y1="25.8359" y2="25.8359"/><text fill="#000000" font-family="sans-serif" font-size="11" font-weight="bold" lengthAdjust="spacing" textLength="77.0269" x="152" y="19.4189">Business Core</text></g><!--cluster External Systems--><g class="cluster" data-qualified-name="External Systems" data-source-line="23" id="ent0009"><path d="M488.5,6 L581.2168,6 A3.75,3.75 0 0 1 583.7168,8.5 L590.7168,25.8359 L622.5,25.8359 A2.5,2.5 0 0 1 625,28.3359 L625,154.5 A2.5,2.5 0 0 1 622.5,157 L488.5,157 A2.5,2.5 0 0 1 486,154.5 L486,8.5 A2.5,2.5 0 0 1 488.5,6" fill="#EEF4FB" style="stroke:#2E75B6;stroke-width:1.5;"/><line style="stroke:#2E75B6;stroke-width:1.5;" x1="486" x2="590.7168" y1="25.8359" y2="25.8359"/><text fill="#000000" font-family="sans-serif" font-size="11" font-weight="bold" lengthAdjust="spacing" textLength="91.7168" x="490" y="19.4189">External Systems</text></g><!--entity PA--><g class="entity" data-qualified-name="Front-office.PA" data-source-line="13" id="ent0003"><rect fill="#E8F4FD" height="33.8359" rx="2.5" ry="2.5" style="stroke:#2E75B6;stroke-width:0.5;" width="80.5269" x="22.5" y="38"/><text fill="#000000" font-family="sans-serif" font-size="11" lengthAdjust="spacing" textLength="60.5269" x="32.5" y="59.4189">Buyer Portal</text></g><!--entity EV--><g class="entity" data-qualified-name="Front-office.EV" data-source-line="14" id="ent0004"><rect fill="#E8F4FD" height="33.8359" rx="2.5" ry="2.5" style="stroke:#2E75B6;stroke-width:0.5;" width="82.3691" x="22" y="107"/><text fill="#000000" font-family="sans-serif" font-size="11" lengthAdjust="spacing" textLength="62.3691" x="32" y="128.4189">Seller Space</text></g><!--entity GC--><g class="entity" data-qualified-name="Business Core.GC" data-source-line="18" id="ent0006"><rect fill="#E8F4FD" height="33.8359" rx="2.5" ry="2.5" style="stroke:#2E75B6;stroke-width:0.5;" width="115.3799" x="164" y="38"/><text fill="#000000" font-family="sans-serif" font-size="11" lengthAdjust="spacing" textLength="95.3799" x="174" y="59.4189">Order Management</text></g><!--entity GCat--><g class="entity" data-qualified-name="Business Core.GCat" data-source-line="19" id="ent0007"><rect fill="#E8F4FD" height="33.8359" rx="2.5" ry="2.5" style="stroke:#2E75B6;stroke-width:0.5;" width="109.8853" x="166.5" y="107"/><text fill="#000000" font-family="sans-serif" font-size="11" lengthAdjust="spacing" textLength="89.8853" x="176.5" y="128.4189">Catalogue Service</text></g><!--entity SP--><g class="entity" data-qualified-name="Business Core.SP" data-source-line="20" id="ent0008"><rect fill="#E8F4FD" height="33.8359" rx="2.5" ry="2.5" style="stroke:#2E75B6;stroke-width:0.5;" width="103.1445" x="339" y="38"/><text fill="#000000" font-family="sans-serif" font-size="11" lengthAdjust="spacing" textLength="83.1445" x="349" y="59.4189">Payment Service</text></g><!--entity PP--><g class="entity" data-qualified-name="External Systems.PP" data-source-line="24" id="ent0010"><rect fill="#E8F4FD" height="33.8359" rx="2.5" ry="2.5" style="stroke:#2E75B6;stroke-width:0.5;" width="107.4253" x="502" y="38"/><text fill="#000000" font-family="sans-serif" font-size="11" lengthAdjust="spacing" textLength="87.4253" x="512" y="59.4189">Payment Provider</text></g><!--entity TR--><g class="entity" data-qualified-name="External Systems.TR" data-source-line="25" id="ent0011"><rect fill="#E8F4FD" height="33.8359" rx="2.5" ry="2.5" style="stroke:#2E75B6;stroke-width:0.5;" width="53.6123" x="528.5" y="107"/><text fill="#000000" font-family="sans-serif" font-size="11" lengthAdjust="spacing" textLength="33.6123" x="538.5" y="128.4189">Carrier</text></g><!--link PA to GC--><g class="link" data-entity-1="ent0003" data-entity-2="ent0006" data-link-type="dependency" data-source-line="28" id="lnk12"><path d="M103.9,55 C122.1,55 137.98,55 157.85,55" fill="none" id="PA-to-GC" style="stroke:#2E75B6;stroke-width:1;"/><polygon fill="#2E75B6" points="163.85,55,154.85,51,158.85,55,154.85,59,163.85,55" style="stroke:#2E75B6;stroke-width:1;"/></g><!--link PA to GCat--><g class="link" data-entity-1="ent0003" data-entity-2="ent0007" data-link-type="dependency" data-source-line="29" id="lnk13"><path d="M101.85,72.03 C114.02,77.48 127.57,83.52 140,89 C153.39,94.9 162.546,98.9112 175.656,104.6012" fill="none" id="PA-to-GCat" style="stroke:#2E75B6;stroke-width:1;"/><polygon fill="#2E75B6" points="181.16,106.99,174.4966,99.7375,176.5734,104.9993,171.3115,107.0761,181.16,106.99" style="stroke:#2E75B6;stroke-width:1;"/></g><!--link EV to GCat--><g class="link" data-entity-1="ent0004" data-entity-2="ent0007" data-link-type="dependency" data-source-line="30" id="lnk14"><path d="M104.3,124 C123.23,124 140.07,124 160.47,124" fill="none" id="EV-to-GCat" style="stroke:#2E75B6;stroke-width:1;"/><polygon fill="#2E75B6" points="166.47,124,157.47,120,161.47,124,157.47,128,166.47,124" style="stroke:#2E75B6;stroke-width:1;"/></g><!--link EV to GC--><g class="link" data-entity-1="ent0004" data-entity-2="ent0006" data-link-type="dependency" data-source-line="31" id="lnk15"><path d="M100.62,106.85 C113.08,101.09 127.11,94.69 140,89 C152.77,83.36 161.2319,79.7224 173.9119,74.3724" fill="none" id="EV-to-GC" style="stroke:#2E75B6;stroke-width:1;"/><polygon fill="#2E75B6" points="179.44,72.04,169.5929,71.8533,174.8333,73.9837,172.7028,79.224,179.44,72.04" style="stroke:#2E75B6;stroke-width:1;"/></g><!--link GC to SP--><g class="link" data-entity-1="ent0006" data-entity-2="ent0008" data-link-type="dependency" data-source-line="32" id="lnk16"><path d="M279.04,55 C298.44,55 314.01,55 332.91,55" fill="none" id="GC-to-SP" style="stroke:#2E75B6;stroke-width:1;"/><polygon fill="#2E75B6" points="338.91,55,329.91,51,333.91,55,329.91,59,338.91,55" style="stroke:#2E75B6;stroke-width:1;"/></g><!--link SP to PP--><g class="link" data-entity-1="ent0008" data-entity-2="ent0010" data-link-type="dependency" data-source-line="33" id="lnk17"><path d="M442.18,55 C461.15,55 476.74,55 495.88,55" fill="none" id="SP-to-PP" style="stroke:#2E75B6;stroke-width:1;"/><polygon fill="#2E75B6" points="501.88,55,492.88,51,496.88,55,492.88,59,501.88,55" style="stroke:#2E75B6;stroke-width:1;"/></g><!--link GC to TR--><g class="link" data-entity-1="ent0006" data-entity-2="ent0011" data-link-type="dependency" data-source-line="34" id="lnk18"><path d="M275.79,72.05 C295.51,77.96 318.14,84.28 339,89 C406.65,104.31 481.7485,114.8487 522.4785,120.0587" fill="none" id="GC-to-TR" style="stroke:#2E75B6;stroke-width:1;"/><polygon fill="#2E75B6" points="528.43,120.82,520.0103,115.7104,523.4704,120.1856,518.9952,123.6457,528.43,120.82" style="stroke:#2E75B6;stroke-width:1;"/></g><?plantuml-src TP3DJiCm48JlUOfLEVTGnDy9gGb9JmYBe5uG1olPf5OTRxLsMWBYtR7Jj4f5kArcPxvPsswLsKcM3HJKxCYWSRdhD09ZuQIfDKRsR2cnagrs6NcJ-a9OB4PBkv4b7PIfePBQZcDBPZeaf8dXwZgzlutlHijpRIoBRStKcdAmfW_PJVOqQIKkaVyZxZn8rlYNbtfUF66Se4KQAmUEW5MzSL2gy1sAJ1GD8PXbxBzXJbMb2fp1TmJm7hSTCWXY9_K7I0jY6UGSjVPwxgFOo-aw-XcHujOgWzP2Gdn2lOIRu5aQxsZya_lSAWchH7eyrIr2ZhnN0tFbvR0LiWl-YrqkBlhIJuTif8QyimuRErIUae9fhtpxyGNYMCci1kNjDS344kRpnt3HUVBzwNfYZbP9F_ahSj5F7Zfe7lOB?></g></svg>