<?plantuml 1.2026.2?><svg xmlns="http://www.w3.org/2000/svg" xmlns:xlink="http://www.w3.org/1999/xlink" contentStyleType="text/css" data-diagram-type="DESCRIPTION" height="367px" preserveAspectRatio="none" style="width:270px;height:367px;background:#FFFFFF;" version="1.1" viewBox="0 0 270 367" width="270px" zoomAndPan="magnify"><defs/><g><!--cluster E-commerce Application--><g class="cluster" data-qualified-name="E-commerce Application" data-source-line="16" id="ent0005"><rect fill="none" height="354" rx="2.5" ry="2.5" style="stroke:#2E75B6;stroke-width:1;" width="149" x="115" y="7"/><text fill="#000000" font-family="sans-serif" font-size="11" font-weight="bold" lengthAdjust="spacing" textLength="128.9761" x="125.012" y="20.4189">E-commerce Application</text></g><!--entity UC1--><g class="entity" data-qualified-name="E-commerce Application.UC1" data-source-line="17" id="ent0006"><ellipse cx="189.5004" cy="60.817" fill="#E8F4FD" rx="45.5004" ry="21.317" style="stroke:#2E75B6;stroke-width:0.5;"/><text fill="#000000" font-family="sans-serif" font-size="11" lengthAdjust="spacing" textLength="64.2061" x="157.3973" y="59.1496">Manage user</text><text fill="#000000" font-family="sans-serif" font-size="11" lengthAdjust="spacing" textLength="44.0269" x="167.4869" y="72.9855">accounts</text></g><!--entity UC2--><g class="entity" data-qualified-name="E-commerce Application.UC2" data-source-line="18" id="ent0007"><ellipse cx="189.4121" cy="200.0698" fill="#E8F4FD" rx="54.9121" ry="21.0698" style="stroke:#2E75B6;stroke-width:0.5;"/><text fill="#000000" font-family="sans-serif" font-size="11" lengthAdjust="spacing" textLength="79.4976" x="149.6633" y="198.7832">Manage product</text><text fill="#000000" font-family="sans-serif" font-size="11" lengthAdjust="spacing" textLength="47.7061" x="165.5591" y="212.6191">catalogue</text></g><!--entity UC3--><g class="entity" data-qualified-name="E-commerce Application.UC3" data-source-line="19" id="ent0008"><ellipse cx="189.26" cy="268.952" fill="#E8F4FD" rx="52.76" ry="12.952" style="stroke:#2E75B6;stroke-width:0.5;"/><text fill="#000000" font-family="sans-serif" font-size="11" lengthAdjust="spacing" textLength="71.543" x="153.4885" y="272.37">Place an order</text></g><!--entity UC4--><g class="entity" data-qualified-name="E-commerce Application.UC4" data-source-line="20" id="ent0009"><ellipse cx="189.6535" cy="130.7835" fill="#E8F4FD" rx="46.6535" ry="12.7835" style="stroke:#2E75B6;stroke-width:0.5;"/><text fill="#000000" font-family="sans-serif" font-size="11" lengthAdjust="spacing" textLength="61.7354" x="158.7858" y="134.2015">Track orders</text></g><!--entity UC5--><g class="entity" data-qualified-name="E-commerce Application.UC5" data-source-line="21" id="ent0010"><ellipse cx="189.7491" cy="331.1498" fill="#E8F4FD" rx="58.7491" ry="14.1498" style="stroke:#2E75B6;stroke-width:0.5;"/><text fill="#000000" font-family="sans-serif" font-size="11" lengthAdjust="spacing" textLength="87.4414" x="146.0284" y="334.5678">Browse catalogue</text></g><!--entity Admin--><g class="entity" data-qualified-name="Admin" data-source-line="12" id="ent0002"><ellipse cx="38.3984" cy="40" fill="#F1F1F1" rx="16" ry="16" style="stroke:#2E75B6;stroke-width:0.5;"/><path d="M38.3984,60 C42.3984,60 45.3984,60 49.3984,56 C57.3984,56 65.3984,64 65.3984,72 L65.3984,76 C65.3984,80 61.3984,84 57.3984,84 L19.3984,84 C15.3984,84 11.3984,80 11.3984,76 L11.3984,72 C11.3984,64 19.3984,56 27.3984,56 C31.3984,60 34.3984,60 38.3984,60" fill="#F1F1F1" style="stroke:#2E75B6;stroke-width:0.5;"/><text fill="#000000" font-family="sans-serif" font-size="11" lengthAdjust="spacing" textLength="64.7969" x="6" y="95.9189">Administrator</text></g><!--entity Vendor--><g class="entity" data-qualified-name="Vendor" data-source-line="13" id="ent0003"><ellipse cx="38.5" cy="165" fill="#F1F1F1" rx="16" ry="16" style="stroke:#2E75B6;stroke-width:0.5;"/><path d="M38.5,185 C42.5,185 45.5,185 49.5,181 C57.5,181 65.5,189 65.5,197 L65.5,201 C65.5,205 61.5,209 57.5,209 L19.5,209 C15.5,209 11.5,205 11.5,201 L11.5,197 C11.5,189 19.5,181 27.5,181 C31.5,185 34.5,185 38.5,185" fill="#F1F1F1" style="stroke:#2E75B6;stroke-width:0.5;"/><text fill="#000000" font-family="sans-serif" font-size="11" lengthAdjust="spacing" textLength="28.123" x="24.4385" y="220.9189">Seller</text></g><!--entity Buyer--><g class="entity" data-qualified-name="Buyer" data-source-line="14" id="ent0004"><ellipse cx="38.5" cy="285" fill="#F1F1F1" rx="16" ry="16" style="stroke:#2E75B6;stroke-width:0.5;"/><path d="M38.5,305 C42.5,305 45.5,305 49.5,301 C57.5,301 65.5,309 65.5,317 L65.5,321 C65.5,325 61.5,329 57.5,329 L19.5,329 C15.5,329 11.5,325 11.5,321 L11.5,317 C11.5,309 19.5,301 27.5,301 C31.5,305 34.5,305 38.5,305" fill="#F1F1F1" style="stroke:#2E75B6;stroke-width:0.5;"/><text fill="#000000" font-family="sans-serif" font-size="11" lengthAdjust="spacing" textLength="28.7354" x="24.1323" y="340.9189">Buyer</text></g><!--link Admin to UC1--><g class="link" data-entity-1="ent0002" data-entity-2="ent0006" data-link-type="dependency" data-source-line="24" id="lnk11"><path d="M71.1,61 C92.28,61 114.49,61 137.95,61" fill="none" id="Admin-to-UC1" style="stroke:#2E75B6;stroke-width:1;"/><polygon fill="#2E75B6" points="143.95,61,134.95,57,138.95,61,134.95,65,143.95,61" style="stroke:#2E75B6;stroke-width:1;"/></g><!--link Vendor to UC2--><g class="link" data-entity-1="ent0003" data-entity-2="ent0007" data-link-type="dependency" data-source-line="25" id="lnk12"><path d="M66.14,188.5 C85.47,190.32 106.2962,192.2803 129.8862,194.4903" fill="none" id="Vendor-to-UC2" style="stroke:#2E75B6;stroke-width:1;"/><polygon fill="#2E75B6" points="135.86,195.05,127.2723,190.228,130.8818,194.5836,126.5261,198.1931,135.86,195.05" style="stroke:#2E75B6;stroke-width:1;"/></g><!--link Vendor to UC4--><g class="link" data-entity-1="ent0003" data-entity-2="ent0009" data-link-type="dependency" data-source-line="26" id="lnk13"><path d="M66.1,176.13 C78.53,171.53 93.52,165.98 107,161 C124.82,154.42 139.2089,149.1214 154.9489,143.3314" fill="none" id="Vendor-to-UC4" style="stroke:#2E75B6;stroke-width:1;"/><polygon fill="#2E75B6" points="160.58,141.26,150.7524,140.6131,155.8874,142.9862,153.5143,148.1212,160.58,141.26" style="stroke:#2E75B6;stroke-width:1;"/></g><!--link Buyer to UC3--><g class="link" data-entity-1="ent0004" data-entity-2="ent0008" data-link-type="dependency" data-source-line="27" id="lnk14"><path d="M66.14,299.39 C89.99,293.46 119.387,286.1664 145.917,279.5764" fill="none" id="Buyer-to-UC3" style="stroke:#2E75B6;stroke-width:1;"/><polygon fill="#2E75B6" points="151.74,278.13,142.0411,276.4176,146.8875,279.3354,143.9697,284.1817,151.74,278.13" style="stroke:#2E75B6;stroke-width:1;"/></g><!--link Buyer to UC5--><g class="link" data-entity-1="ent0004" data-entity-2="ent0010" data-link-type="dependency" data-source-line="28" id="lnk15"><path d="M66.14,310.47 C86.9,313.95 110.3325,317.8882 135.0925,322.0382" fill="none" id="Buyer-to-UC5" style="stroke:#2E75B6;stroke-width:1;"/><polygon fill="#2E75B6" points="141.01,323.03,132.795,317.5973,136.0788,322.2035,131.4726,325.4872,141.01,323.03" style="stroke:#2E75B6;stroke-width:1;"/></g><?plantuml-src ZP5FJyCm3CNl-HHMEU-mVy09QHtR3Gbfm6aNAt6xQ6bSEQccWVZkT5axTMX8d9hdzwkVuuIzzJKALe0wicpYqH7WWG9NfCB5D5HWu-AQVTpOJuBnU6267He-M5z2WIuCVrk8y679ZWNk9gk7UNu_C5DWpc98_aAQG1e3_Gz2lI-56sywSFMudgsV1w2GZkXBTxEVSbH4Y0nYorq4Oq-qPQzKcXEoXQcijo4AjZ83390glRqXv-XS_o1lM7eZRuvTFPsKkem1sMgakQf8DC6YhftLU8hCu4j1Vot8Nj1ZIISjMuzQjrUC8JLyNuvlWBMmQNJS-hOREYuRwk3947vrsAQYXxIBZfWEYJTfDtgs-xZPqC_Rjss_lrFcwbkfj1eOZPxIZEU5T79oBMSghQLJqoirLpy0?></g></svg>