<?plantuml 1.2026.2?><svg xmlns="http://www.w3.org/2000/svg" xmlns:xlink="http://www.w3.org/1999/xlink" contentStyleType="text/css" data-diagram-type="DESCRIPTION" height="186px" preserveAspectRatio="none" style="width:1111px;height:186px;background:#FFFFFF;" version="1.1" viewBox="0 0 1111 186" width="1111px" zoomAndPan="magnify"><defs/><g><!--entity Client--><g class="entity" data-qualified-name="Client" data-source-line="3" id="ent0002"><ellipse cx="257.3965" cy="14" fill="#F1F1F1" rx="8" ry="8" style="stroke:#181818;stroke-width:0.5;"/><path d="M257.3965,22 L257.3965,49 M244.3965,30 L270.3965,30 M257.3965,49 L244.3965,64 M257.3965,49 L270.3965,64" fill="none" style="stroke:#181818;stroke-width:0.5;"/><text fill="#000000" font-family="sans-serif" font-size="14" lengthAdjust="spacing" textLength="35.793" x="239.5" y="80.0332">Client</text></g><!--entity Magasinier--><g class="entity" data-qualified-name="Magasinier" data-source-line="4" id="ent0003"><ellipse cx="789.7378" cy="14" fill="#F1F1F1" rx="8" ry="8" style="stroke:#181818;stroke-width:0.5;"/><path d="M789.7378,22 L789.7378,49 M776.7378,30 L802.7378,30 M789.7378,49 L776.7378,64 M789.7378,49 L802.7378,64" fill="none" style="stroke:#181818;stroke-width:0.5;"/><text fill="#000000" font-family="sans-serif" font-size="14" lengthAdjust="spacing" textLength="68.4756" x="755.5" y="80.0332">Magasinier</text></g><!--entity Fournisseur--><g class="entity" data-qualified-name="Fournisseur" data-source-line="5" id="ent0004"><ellipse cx="1024.4585" cy="14" fill="#F1F1F1" rx="8" ry="8" style="stroke:#181818;stroke-width:0.5;"/><path d="M1024.4585,22 L1024.4585,49 M1011.4585,30 L1037.4585,30 M1024.4585,49 L1011.4585,64 M1024.4585,49 L1037.4585,64" fill="none" style="stroke:#181818;stroke-width:0.5;"/><text fill="#000000" font-family="sans-serif" font-size="14" lengthAdjust="spacing" textLength="73.917" x="987.5" y="80.0332">Fournisseur</text></g><!--entity Consulter catalogue--><g class="entity" data-qualified-name="Consulter catalogue" data-source-line="7" id="ent0005"><ellipse cx="85.2534" cy="161.7507" fill="#F1F1F1" rx="79.2534" ry="18.2507" style="stroke:#181818;stroke-width:0.5;"/><text fill="#000000" font-family="sans-serif" font-size="14" lengthAdjust="spacing" textLength="124.5234" x="22.9917" y="167.0554">Consulter catalogue</text></g><!--entity Commander--><g class="entity" data-qualified-name="Commander" data-source-line="8" id="ent0007"><ellipse cx="257.4666" cy="161.9517" fill="#F1F1F1" rx="57.4666" ry="15.4517" style="stroke:#181818;stroke-width:0.5;"/><text fill="#000000" font-family="sans-serif" font-size="14" lengthAdjust="spacing" textLength="77.0273" x="218.9529" y="167.2564">Commander</text></g><!--entity Payer--><g class="entity" data-qualified-name="Payer" data-source-line="9" id="ent0009"><ellipse cx="379.3605" cy="161.9517" fill="#F1F1F1" rx="28.8605" ry="15.4517" style="stroke:#181818;stroke-width:0.5;"/><text fill="#000000" font-family="sans-serif" font-size="14" lengthAdjust="spacing" textLength="36.5723" x="361.0744" y="167.2564">Payer</text></g><!--entity Recevoir commande--><g class="entity" data-qualified-name="Recevoir commande" data-source-line="10" id="ent0011"><ellipse cx="524.3382" cy="162.0676" fill="#F1F1F1" rx="80.8382" ry="18.5676" style="stroke:#181818;stroke-width:0.5;"/><text fill="#000000" font-family="sans-serif" font-size="14" lengthAdjust="spacing" textLength="128.3857" x="460.1453" y="167.3723">Recevoir commande</text></g><!--entity Pr?parer livraison--><g class="entity" data-qualified-name="Pr.parer livraison" data-source-line="11" id="ent0013"><ellipse cx="714.3359" cy="162.0672" fill="#F1F1F1" rx="73.3359" ry="17.0672" style="stroke:#181818;stroke-width:0.5;"/><text fill="#000000" font-family="sans-serif" font-size="14" lengthAdjust="spacing" textLength="109.71" x="659.4809" y="167.3719">Pr&#233;parer livraison</text></g><!--entity Exp?dier--><g class="entity" data-qualified-name="Exp.dier" data-source-line="12" id="ent0015"><ellipse cx="865.5711" cy="161.9517" fill="#F1F1F1" rx="42.0711" ry="15.4517" style="stroke:#181818;stroke-width:0.5;"/><text fill="#000000" font-family="sans-serif" font-size="14" lengthAdjust="spacing" textLength="55.2549" x="837.9437" y="167.2564">Exp&#233;dier</text></g><!--entity Approvisionner stock--><g class="entity" data-qualified-name="Approvisionner stock" data-source-line="13" id="ent0017"><ellipse cx="1024.485" cy="162.197" fill="#F1F1F1" rx="81.485" ry="18.697" style="stroke:#181818;stroke-width:0.5;"/><text fill="#000000" font-family="sans-serif" font-size="14" lengthAdjust="spacing" textLength="129.9512" x="959.5094" y="167.5017">Approvisionner stock</text></g><!--link Client to Consulter catalogue--><g class="link" data-entity-1="ent0002" data-entity-2="ent0005" data-link-type="dependency" data-source-line="7" id="lnk6"><path d="M239.42,57.64 C208.45,78.43 150.2209,117.5348 115.2009,141.0548" fill="none" id="Client-to-Consulter catalogue" style="stroke:#181818;stroke-width:1;"/><polygon fill="#181818" points="110.22,144.4,119.9215,142.7027,114.3707,141.6123,115.4612,136.0615,110.22,144.4" style="stroke:#181818;stroke-width:1;"/></g><!--link Client to Commander--><g class="link" data-entity-1="ent0002" data-entity-2="ent0007" data-link-type="dependency" data-source-line="8" id="lnk8"><path d="M257.5,83.64 C257.5,105.06 257.5,124.57 257.5,140.27" fill="none" id="Client-to-Commander" style="stroke:#181818;stroke-width:1;"/><polygon fill="#181818" points="257.5,146.27,261.5,137.27,257.5,141.27,253.5,137.27,257.5,146.27" style="stroke:#181818;stroke-width:1;"/></g><!--link Client to Payer--><g class="link" data-entity-1="ent0002" data-entity-2="ent0009" data-link-type="dependency" data-source-line="9" id="lnk10"><path d="M275.5,62.54 C300.16,85.89 339.5335,123.1544 361.6035,144.0544" fill="none" id="Client-to-Payer" style="stroke:#181818;stroke-width:1;"/><polygon fill="#181818" points="365.96,148.18,362.1756,139.0872,362.3295,144.742,356.6748,144.896,365.96,148.18" style="stroke:#181818;stroke-width:1;"/></g><!--link Magasinier to Recevoir commande--><g class="link" data-entity-1="ent0003" data-entity-2="ent0011" data-link-type="dependency" data-source-line="10" id="lnk12"><path d="M755.4,60.36 C705.21,82.24 617.3902,120.5126 566.0902,142.8726" fill="none" id="Magasinier-to-Recevoir commande" style="stroke:#181818;stroke-width:1;"/><polygon fill="#181818" points="560.59,145.27,570.4386,145.3408,565.1735,143.2722,567.2421,138.0071,560.59,145.27" style="stroke:#181818;stroke-width:1;"/></g><!--link Magasinier to Pr?parer livraison--><g class="link" data-entity-1="ent0003" data-entity-2="ent0013" data-link-type="dependency" data-source-line="11" id="lnk14"><path d="M764.73,83.64 C751.17,104.53 738.3361,124.2869 728.0961,140.0669" fill="none" id="Magasinier-to-Pr&#233;parer livraison" style="stroke:#181818;stroke-width:1;"/><polygon fill="#181818" points="724.83,145.1,733.0846,139.7277,727.5518,140.9057,726.3738,135.3729,724.83,145.1" style="stroke:#181818;stroke-width:1;"/></g><!--link Magasinier to Exp?dier--><g class="link" data-entity-1="ent0003" data-entity-2="ent0015" data-link-type="dependency" data-source-line="12" id="lnk16"><path d="M814.6,83.64 C828.86,105.32 842.5914,126.1781 852.8914,141.8281" fill="none" id="Magasinier-to-Exp&#233;dier" style="stroke:#181818;stroke-width:1;"/><polygon fill="#181818" points="856.19,146.84,854.5834,137.1231,853.4412,142.6634,847.9008,141.5212,856.19,146.84" style="stroke:#181818;stroke-width:1;"/></g><!--link Fournisseur to Approvisionner stock--><g class="link" data-entity-1="ent0004" data-entity-2="ent0017" data-link-type="dependency" data-source-line="13" id="lnk18"><path d="M1024.5,83.64 C1024.5,103.75 1024.5,121.45 1024.5,137.27" fill="none" id="Fournisseur-to-Approvisionner stock" style="stroke:#181818;stroke-width:1;"/><polygon fill="#181818" points="1024.5,143.27,1028.5,134.27,1024.5,138.27,1020.5,134.27,1024.5,143.27" style="stroke:#181818;stroke-width:1;"/></g><!--link Magasinier to Approvisionner stock--><g class="link" data-entity-1="ent0003" data-entity-2="ent0017" data-link-type="dependency" data-source-line="14" id="lnk19"><path d="M823.67,62.29 C868.73,84.44 942.1053,120.5032 986.4153,142.2832" fill="none" id="Magasinier-to-Approvisionner stock" style="stroke:#181818;stroke-width:1;"/><polygon fill="#181818" points="991.8,144.93,985.4875,137.3701,987.3128,142.7244,981.9585,144.5496,991.8,144.93" style="stroke:#181818;stroke-width:1;"/></g><?plantuml-src ROzD3e9038Ntd6BSwOAzAnD3D76X4d7bhe5g6eQMT6Q8UYFEuSN4GE8FBj_hr_VQIO5dOZJh_UwORKuhCuzSILo3GcNEmZwZ-tiQGUv5JM89sGzY2nTmn8Gw66i9okGS1esY7ZLnl33JHDW5wr5D3XwiN0BEVe2g0YvGl-qKRY_hNTJR1yon4UhIXhKnakgZxLxffAL6WPpm65fTwqTRqAlYu_H-jgnhbOOS2NF7EozvEKxuIpq1?></g></svg>