<?plantuml 1.2026.2?><svg xmlns="http://www.w3.org/2000/svg" xmlns:xlink="http://www.w3.org/1999/xlink" contentStyleType="text/css" data-diagram-type="DESCRIPTION" height="381px" preserveAspectRatio="none" style="width:298px;height:381px;background:#FFFFFF;" version="1.1" viewBox="0 0 298 381" width="298px" zoomAndPan="magnify"><defs/><g><!--cluster Application e-commerce--><g class="cluster" data-qualified-name="Application e-commerce" data-source-line="16" id="ent0005"><rect fill="none" height="368" rx="2.5" ry="2.5" style="stroke:#2E75B6;stroke-width:1;" width="171" x="121" y="7"/><text fill="#000000" font-family="sans-serif" font-size="11" font-weight="bold" lengthAdjust="spacing" textLength="127.7568" x="142.6216" y="20.4189">Application e-commerce</text></g><!--entity UC1--><g class="entity" data-qualified-name="Application e-commerce.UC1" data-source-line="17" id="ent0006"><ellipse cx="206.5529" cy="60.0303" fill="#E8F4FD" rx="61.5529" ry="21.0303" style="stroke:#2E75B6;stroke-width:0.5;"/><text fill="#000000" font-family="sans-serif" font-size="11" lengthAdjust="spacing" textLength="89.8638" x="161.621" y="58.8052">G&#233;rer les comptes</text><text fill="#000000" font-family="sans-serif" font-size="11" lengthAdjust="spacing" textLength="52.5776" x="180.2641" y="72.6411">utilisateurs</text></g><!--entity UC2--><g class="entity" data-qualified-name="Application e-commerce.UC2" data-source-line="18" id="ent0007"><ellipse cx="206.3549" cy="204.1906" fill="#E8F4FD" rx="60.8549" ry="20.6906" style="stroke:#2E75B6;stroke-width:0.5;"/><text fill="#000000" font-family="sans-serif" font-size="11" lengthAdjust="spacing" textLength="90.4976" x="161.1061" y="203.5028">G&#233;rer le catalogue</text><text fill="#000000" font-family="sans-serif" font-size="11" lengthAdjust="spacing" textLength="39.1338" x="186.788" y="217.3387">produits</text></g><!--entity UC3--><g class="entity" data-qualified-name="Application e-commerce.UC3" data-source-line="19" id="ent0008"><ellipse cx="206.2965" cy="275.7593" fill="#E8F4FD" rx="69.2965" ry="16.2593" style="stroke:#2E75B6;stroke-width:0.5;"/><text fill="#000000" font-family="sans-serif" font-size="11" lengthAdjust="spacing" textLength="113.1152" x="149.7388" y="279.1773">Passer une commande</text></g><!--entity UC4--><g class="entity" data-qualified-name="Application e-commerce.UC4" data-source-line="20" id="ent0009"><ellipse cx="206.5101" cy="132.102" fill="#E8F4FD" rx="68.5101" ry="16.102" style="stroke:#2E75B6;stroke-width:0.5;"/><text fill="#000000" font-family="sans-serif" font-size="11" lengthAdjust="spacing" textLength="111.2676" x="150.8763" y="135.52">Suivre les commandes</text></g><!--entity UC5--><g class="entity" data-qualified-name="Application e-commerce.UC5" data-source-line="21" id="ent0010"><ellipse cx="206.7092" cy="343.2418" fill="#E8F4FD" rx="66.7092" ry="15.7418" style="stroke:#2E75B6;stroke-width:0.5;"/><text fill="#000000" font-family="sans-serif" font-size="11" lengthAdjust="spacing" textLength="107.0029" x="153.2077" y="346.6598">Parcourir le catalogue</text></g><!--entity Admin--><g class="entity" data-qualified-name="Admin" data-source-line="12" id="ent0002"><ellipse cx="41.4573" cy="39" fill="#F1F1F1" rx="16" ry="16" style="stroke:#2E75B6;stroke-width:0.5;"/><path d="M41.4573,59 C45.4573,59 48.4573,59 52.4573,55 C60.4573,55 68.4573,63 68.4573,71 L68.4573,75 C68.4573,79 64.4573,83 60.4573,83 L22.4573,83 C18.4573,83 14.4573,79 14.4573,75 L14.4573,71 C14.4573,63 22.4573,55 30.4573,55 C34.4573,59 37.4573,59 41.4573,59" fill="#F1F1F1" style="stroke:#2E75B6;stroke-width:0.5;"/><text fill="#000000" font-family="sans-serif" font-size="11" lengthAdjust="spacing" textLength="70.9146" x="6" y="94.9189">Administrateur</text></g><!--entity Vendor--><g class="entity" data-qualified-name="Vendor" data-source-line="13" id="ent0003"><ellipse cx="41.5" cy="166" fill="#F1F1F1" rx="16" ry="16" style="stroke:#2E75B6;stroke-width:0.5;"/><path d="M41.5,186 C45.5,186 48.5,186 52.5,182 C60.5,182 68.5,190 68.5,198 L68.5,202 C68.5,206 64.5,210 60.5,210 L22.5,210 C18.5,210 14.5,206 14.5,202 L14.5,198 C14.5,190 22.5,182 30.5,182 C34.5,186 37.5,186 41.5,186" fill="#F1F1F1" style="stroke:#2E75B6;stroke-width:0.5;"/><text fill="#000000" font-family="sans-serif" font-size="11" lengthAdjust="spacing" textLength="41.5884" x="20.7058" y="221.9189">Vendeur</text></g><!--entity Buyer--><g class="entity" data-qualified-name="Buyer" data-source-line="14" id="ent0004"><ellipse cx="41.5" cy="290" fill="#F1F1F1" rx="16" ry="16" style="stroke:#2E75B6;stroke-width:0.5;"/><path d="M41.5,310 C45.5,310 48.5,310 52.5,306 C60.5,306 68.5,314 68.5,322 L68.5,326 C68.5,330 64.5,334 60.5,334 L22.5,334 C18.5,334 14.5,330 14.5,326 L14.5,322 C14.5,314 22.5,306 30.5,306 C34.5,310 37.5,310 41.5,310" fill="#F1F1F1" style="stroke:#2E75B6;stroke-width:0.5;"/><text fill="#000000" font-family="sans-serif" font-size="11" lengthAdjust="spacing" textLength="44.0269" x="19.4866" y="345.9189">Acheteur</text></g><!--link Admin to UC1--><g class="link" data-entity-1="ent0002" data-entity-2="ent0006" data-link-type="dependency" data-source-line="24" id="lnk11"><path d="M77.07,60 C96.79,60 116.06,60 138.97,60" fill="none" id="Admin-to-UC1" style="stroke:#2E75B6;stroke-width:1;"/><polygon fill="#2E75B6" points="144.97,60,135.97,56,139.97,60,135.97,64,144.97,60" style="stroke:#2E75B6;stroke-width:1;"/></g><!--link Vendor to UC2--><g class="link" data-entity-1="ent0003" data-entity-2="ent0007" data-link-type="dependency" data-source-line="25" id="lnk12"><path d="M69.05,189.77 C90.34,191.99 115.0223,194.5681 141.8923,197.3681" fill="none" id="Vendor-to-UC2" style="stroke:#2E75B6;stroke-width:1;"/><polygon fill="#2E75B6" points="147.86,197.99,139.323,193.0787,142.8869,197.4718,138.4939,201.0357,147.86,197.99" style="stroke:#2E75B6;stroke-width:1;"/></g><!--link Vendor to UC4--><g class="link" data-entity-1="ent0003" data-entity-2="ent0009" data-link-type="dependency" data-source-line="26" id="lnk13"><path d="M69.05,178.04 C95.57,169.09 130.9447,157.1577 161.0947,146.9877" fill="none" id="Vendor-to-UC4" style="stroke:#2E75B6;stroke-width:1;"/><polygon fill="#2E75B6" points="166.78,145.07,156.9736,144.1564,162.0423,146.6681,159.5306,151.7368,166.78,145.07" style="stroke:#2E75B6;stroke-width:1;"/></g><!--link Buyer to UC3--><g class="link" data-entity-1="ent0004" data-entity-2="ent0008" data-link-type="dependency" data-source-line="27" id="lnk14"><path d="M69.05,305.3 C92.06,300.36 120.1237,294.3296 148.3937,288.2596" fill="none" id="Buyer-to-UC3" style="stroke:#2E75B6;stroke-width:1;"/><polygon fill="#2E75B6" points="154.26,287,144.6208,284.9785,149.3714,288.0497,146.3003,292.8002,154.26,287" style="stroke:#2E75B6;stroke-width:1;"/></g><!--link Buyer to UC5--><g class="link" data-entity-1="ent0004" data-entity-2="ent0010" data-link-type="dependency" data-source-line="28" id="lnk15"><path d="M69.05,316.21 C92.24,320.76 120.6321,326.3456 149.0421,331.9156" fill="none" id="Buyer-to-UC5" style="stroke:#2E75B6;stroke-width:1;"/><polygon fill="#2E75B6" points="154.93,333.07,146.8677,327.4132,150.0234,332.108,145.3286,335.2637,154.93,333.07" style="stroke:#2E75B6;stroke-width:1;"/></g><?plantuml-src ZP1DJiCm48NtFiKehBle7x12QalB5gc2LJSZPvfQTJpHsAOgY0Dn3Yv6Of8gaOh4BfFtlJVFuu_6LIXO0kh0iWrdIu0dyboIyXSnfpr66pRimjQy4up7FT4VCEUJSGNiqVg-RI72fnLR5hYPhE_cozkUc1OkMNAIlv3eIQEd_q6eZuLmT7aBhkytiyrZ3nJI0LrXh-OfI_i0WK5CSGYGcuOsx9HAFI5RvALnnWV1G54oG0_fLwU_aiixeVbckJZrWIwUPJoJA7NfKijLPOt6PXdGI7DPacZAu4D1zpR8dhw_X0GiUQY9Af3VkHYCDJxLyIdxPJM-we4w7IqNaNQk4iwZ2PrXqZSye_Ur8JfgbfHOFwZ5fdri6ysRKDSbOLtSR1WdcgEOOOMMdAjFfT81OJHwIDL_hzQEa-4uK-bmxJGTJ7Fr0m00?></g></svg>