<?plantuml 1.2026.2?><svg xmlns="http://www.w3.org/2000/svg" xmlns:xlink="http://www.w3.org/1999/xlink" contentStyleType="text/css" data-diagram-type="DESCRIPTION" height="494px" preserveAspectRatio="none" style="width:305px;height:494px;background:#FFFFFF;" version="1.1" viewBox="0 0 305 494" width="305px" zoomAndPan="magnify"><defs/><g><!--entity Client--><g class="entity" data-qualified-name="Client" data-source-line="11" id="ent0002"><ellipse cx="163.2607" cy="14" fill="#F1F1F1" rx="8" ry="8" style="stroke:#181818;stroke-width:0.5;"/><path d="M163.2607,22 L163.2607,49 M150.2607,30 L176.2607,30 M163.2607,49 L150.2607,64 M163.2607,49 L176.2607,64" fill="none" style="stroke:#181818;stroke-width:0.5;"/><text fill="#000000" font-family="sans-serif" font-size="11" lengthAdjust="spacing" textLength="71.5215" x="127.5" y="76.9189">Client Browser</text></g><!--entity Web--><g class="entity" data-qualified-name="Web" data-source-line="13" id="ent0003"><polygon fill="#E8F4FD" points="114.5,164.5,124.5,154.5,212.5723,154.5,212.5723,202.1719,202.5723,212.1719,114.5,212.1719,114.5,164.5" style="stroke:#2E75B6;stroke-width:0.5;"/><line style="stroke:#2E75B6;stroke-width:0.5;" x1="202.5723" x2="212.5723" y1="164.5" y2="154.5"/><line style="stroke:#2E75B6;stroke-width:0.5;" x1="114.5" x2="202.5723" y1="164.5" y2="164.5"/><line style="stroke:#2E75B6;stroke-width:0.5;" x1="202.5723" x2="202.5723" y1="164.5" y2="212.1719"/><text fill="#000000" font-family="sans-serif" font-size="11" lengthAdjust="spacing" textLength="58.0723" x="129.5" y="185.9189">Web Server</text><text fill="#000000" font-family="sans-serif" font-size="11" lengthAdjust="spacing" textLength="36.0615" x="129.5" y="199.7549">(React)</text></g><!--entity API--><g class="entity" data-qualified-name="API" data-source-line="14" id="ent0004"><polygon fill="#E8F4FD" points="111,297.5,121,287.5,215.8076,287.5,215.8076,335.1719,205.8076,345.1719,111,345.1719,111,297.5" style="stroke:#2E75B6;stroke-width:0.5;"/><line style="stroke:#2E75B6;stroke-width:0.5;" x1="205.8076" x2="215.8076" y1="297.5" y2="287.5"/><line style="stroke:#2E75B6;stroke-width:0.5;" x1="111" x2="205.8076" y1="297.5" y2="297.5"/><line style="stroke:#2E75B6;stroke-width:0.5;" x1="205.8076" x2="205.8076" y1="297.5" y2="345.1719"/><text fill="#000000" font-family="sans-serif" font-size="11" lengthAdjust="spacing" textLength="53.1846" x="126" y="318.9189">API Server</text><text fill="#000000" font-family="sans-serif" font-size="11" lengthAdjust="spacing" textLength="64.8076" x="126" y="332.7549">(Spring Boot)</text></g><!--entity DB--><g class="entity" data-qualified-name="DB" data-source-line="15" id="ent0005"><path d="M6,430.5 C6,420.5 49.623,420.5 49.623,420.5 C49.623,420.5 93.2461,420.5 93.2461,430.5 L93.2461,467.1719 C93.2461,477.1719 49.623,477.1719 49.623,477.1719 C49.623,477.1719 6,477.1719 6,467.1719 L6,430.5" fill="#E8F4FD" style="stroke:#2E75B6;stroke-width:0.5;"/><path d="M6,430.5 C6,440.5 49.623,440.5 49.623,440.5 C49.623,440.5 93.2461,440.5 93.2461,430.5" fill="none" style="stroke:#2E75B6;stroke-width:0.5;"/><text fill="#000000" font-family="sans-serif" font-size="11" lengthAdjust="spacing" textLength="47.0884" x="16" y="455.9189">Database</text><text fill="#000000" font-family="sans-serif" font-size="11" lengthAdjust="spacing" textLength="67.2461" x="16" y="469.7549">(PostgreSQL)</text></g><!--entity Stripe--><g class="entity" data-qualified-name="Stripe" data-source-line="16" id="ent0006"><rect fill="#EEF4FB" height="47.6719" rx="2.5" ry="2.5" style="stroke:#2E75B6;stroke-width:0.5;" width="69.5215" x="128.5" y="425"/><text fill="#000000" font-family="sans-serif" font-size="11" lengthAdjust="spacing" textLength="49.5215" x="138.5" y="446.4189">Stripe API</text><text fill="#000000" font-family="sans-serif" font-size="11" lengthAdjust="spacing" textLength="46.46" x="138.5" y="460.2549">(external)</text></g><!--entity SMTP--><g class="entity" data-qualified-name="SMTP" data-source-line="17" id="ent0007"><rect fill="#EEF4FB" height="47.6719" rx="2.5" ry="2.5" style="stroke:#2E75B6;stroke-width:0.5;" width="66.46" x="233.5" y="425"/><text fill="#000000" font-family="sans-serif" font-size="11" lengthAdjust="spacing" textLength="30.5562" x="243.5" y="446.4189">SMTP</text><text fill="#000000" font-family="sans-serif" font-size="11" lengthAdjust="spacing" textLength="46.46" x="243.5" y="460.2549">(external)</text></g><!--link Client to Web--><g class="link" data-entity-1="ent0002" data-entity-2="ent0003" data-link-type="dependency" data-source-line="19" id="lnk8"><path d="M163.5,79.66 C163.5,102.99 163.5,126.88 163.5,148.42" fill="none" id="Client-to-Web" style="stroke:#2E75B6;stroke-width:1;"/><polygon fill="#2E75B6" points="163.5,154.42,167.5,145.42,163.5,149.42,159.5,145.42,163.5,154.42" style="stroke:#2E75B6;stroke-width:1;"/><text fill="#000000" font-family="sans-serif" font-size="11" lengthAdjust="spacing" textLength="36.0562" x="164.5" y="121.9189">HTTPS</text></g><!--link Web to API--><g class="link" data-entity-1="ent0003" data-entity-2="ent0004" data-link-type="dependency" data-source-line="20" id="lnk9"><path d="M163.5,212.6 C163.5,234.71 163.5,259.35 163.5,281.44" fill="none" id="Web-to-API" style="stroke:#2E75B6;stroke-width:1;"/><polygon fill="#2E75B6" points="163.5,287.44,167.5,278.44,163.5,282.44,159.5,278.44,163.5,287.44" style="stroke:#2E75B6;stroke-width:1;"/><text fill="#000000" font-family="sans-serif" font-size="11" lengthAdjust="spacing" textLength="61.73" x="164.5" y="254.9189">REST/JSON</text></g><!--link API to DB--><g class="link" data-entity-1="ent0004" data-entity-2="ent0005" data-link-type="dependency" data-source-line="21" id="lnk10"><path d="M138.76,345.82 C119.51,367.86 96.8874,393.7613 77.7474,415.6713" fill="none" id="API-to-DB" style="stroke:#2E75B6;stroke-width:1;"/><polygon fill="#2E75B6" points="73.8,420.19,82.7335,416.0436,77.0895,416.4245,76.7086,410.7804,73.8,420.19" style="stroke:#2E75B6;stroke-width:1;"/><text fill="#000000" font-family="sans-serif" font-size="11" lengthAdjust="spacing" textLength="22.0107" x="111.5" y="387.9189">SQL</text></g><!--link API to Stripe--><g class="link" data-entity-1="ent0004" data-entity-2="ent0006" data-link-type="dependency" data-source-line="22" id="lnk11"><path d="M163.5,345.82 C163.5,369.5 163.5,396.88 163.5,418.96" fill="none" id="API-to-Stripe" style="stroke:#2E75B6;stroke-width:1;"/><polygon fill="#2E75B6" points="163.5,424.96,167.5,415.96,163.5,419.96,159.5,415.96,163.5,424.96" style="stroke:#2E75B6;stroke-width:1;"/><text fill="#000000" font-family="sans-serif" font-size="11" lengthAdjust="spacing" textLength="36.0562" x="164.5" y="387.9189">HTTPS</text></g><!--link API to SMTP--><g class="link" data-entity-1="ent0004" data-entity-2="ent0007" data-link-type="dependency" data-source-line="23" id="lnk12"><path d="M185.75,345.51 C193.3,355.02 201.77,365.72 209.5,375.5 C222.5,391.96 233.4148,405.8407 244.5948,420.0807" fill="none" id="API-to-SMTP" style="stroke:#2E75B6;stroke-width:1;"/><polygon fill="#2E75B6" points="248.3,424.8,245.8884,415.251,245.2124,420.8673,239.596,420.1912,248.3,424.8" style="stroke:#2E75B6;stroke-width:1;"/><text fill="#000000" font-family="sans-serif" font-size="11" lengthAdjust="spacing" textLength="36.0562" x="220.5" y="387.9189">HTTPS</text></g><?plantuml-src XP1BJyCm48Jl_XMhS853XOfugGUakaa5Y4Ue8t7Xicss8MgmexLB4RyUcwHfK2LwisU-7S_QhafT8-C7vBJ4TUMcHZjLVXCCXy9sfdt7t6nANS0IAqizPyniDXDJ6OQZi-JgGbxsJ6roaePpudy9NAmADckTjrHoFJsVnZqgHuTpj0UoEkfW7jF2eIwg0u4xR2ynyObI25muVuqcLKdQWVHVOOaZG0kD94HO4A9NceCY_YH-qySpycCdlvJNMsAStkq8LNFuQsbCotbNRDU3A6vFdaoDTGMJUdbem5YAhZL4od5PKvZsA7qvOerL0pRM7_WnI_SnBmhHxZSOt8J6C8BRB4kL2EUWXUuZc2KgExrNpqyYt8CUIo_xQftGzjdETx9_f1D_0000?></g></svg>