<?xml version="1.0" encoding="us-ascii" standalone="no"?><svg xmlns="http://www.w3.org/2000/svg" xmlns:xlink="http://www.w3.org/1999/xlink" contentStyleType="text/css" height="331px" preserveAspectRatio="none" style="width:752px;height:331px;background:#FFFFFF;" version="1.1" viewBox="0 0 752 331" width="752px" zoomAndPan="magnify"><defs/><g><!--entity Buyer--><g id="elem_Buyer"><ellipse cx="41" cy="33" fill="#F1F1F1" rx="8" ry="8" style="stroke:#181818;stroke-width:0.5;"/><path d="M41,41 L41,68 M28,49 L54,49 M41,68 L28,83 M41,68 L54,83 " fill="none" style="stroke:#181818;stroke-width:0.5;"/><text fill="#000000" font-family="sans-serif" font-size="11" lengthAdjust="spacing" textLength="45" x="18.5" y="95.9189">Acheteur</text></g><!--entity Vendor--><g id="elem_Vendor"><ellipse cx="41" cy="142" fill="#F1F1F1" rx="8" ry="8" style="stroke:#181818;stroke-width:0.5;"/><path d="M41,150 L41,177 M28,158 L54,158 M41,177 L28,192 M41,177 L54,192 " fill="none" style="stroke:#181818;stroke-width:0.5;"/><text fill="#000000" font-family="sans-serif" font-size="11" lengthAdjust="spacing" textLength="42" x="20" y="204.9189">Vendeur</text></g><!--entity Admin--><g id="elem_Admin"><ellipse cx="41" cy="251" fill="#F1F1F1" rx="8" ry="8" style="stroke:#181818;stroke-width:0.5;"/><path d="M41,259 L41,286 M28,267 L54,267 M41,286 L28,301 M41,286 L54,301 " fill="none" style="stroke:#181818;stroke-width:0.5;"/><text fill="#000000" font-family="sans-serif" font-size="11" lengthAdjust="spacing" textLength="70" x="6" y="313.9189">Administrateur</text></g><!--entity FrontB--><g id="elem_FrontB"><polygon fill="#E8F4FD" points="178,36.5,188,26.5,291,26.5,291,88.0078,281,98.0078,178,98.0078,178,36.5" style="stroke:#2E75B6;stroke-width:0.5;"/><line style="stroke:#2E75B6;stroke-width:0.5;" x1="281" x2="291" y1="36.5" y2="26.5"/><line style="stroke:#2E75B6;stroke-width:0.5;" x1="178" x2="281" y1="36.5" y2="36.5"/><line style="stroke:#2E75B6;stroke-width:0.5;" x1="281" x2="281" y1="36.5" y2="98.0078"/><text fill="#000000" font-family="sans-serif" font-size="11" lengthAdjust="spacing" textLength="46" x="193" y="57.9189">Container</text><text fill="#000000" font-family="sans-serif" font-size="11" lengthAdjust="spacing" textLength="59" x="193" y="71.7549">buyer-portal</text><text fill="#000000" font-family="sans-serif" font-size="11" lengthAdjust="spacing" textLength="73" x="193" y="85.5908">(React &#183; Nginx)</text></g><!--entity FrontV--><g id="elem_FrontV"><polygon fill="#E8F4FD" points="170,144.5,180,134.5,299,134.5,299,196.0078,289,206.0078,170,206.0078,170,144.5" style="stroke:#2E75B6;stroke-width:0.5;"/><line style="stroke:#2E75B6;stroke-width:0.5;" x1="289" x2="299" y1="144.5" y2="134.5"/><line style="stroke:#2E75B6;stroke-width:0.5;" x1="170" x2="289" y1="144.5" y2="144.5"/><line style="stroke:#2E75B6;stroke-width:0.5;" x1="289" x2="289" y1="144.5" y2="206.0078"/><text fill="#000000" font-family="sans-serif" font-size="11" lengthAdjust="spacing" textLength="46" x="185" y="165.9189">Container</text><text fill="#000000" font-family="sans-serif" font-size="11" lengthAdjust="spacing" textLength="89" x="185" y="179.7549">vendor-backoffice</text><text fill="#000000" font-family="sans-serif" font-size="11" lengthAdjust="spacing" textLength="73" x="185" y="193.5908">(React &#183; Nginx)</text></g><!--entity FrontA--><g id="elem_FrontA"><polygon fill="#E8F4FD" points="178,252.5,188,242.5,291,242.5,291,304.0078,281,314.0078,178,314.0078,178,252.5" style="stroke:#2E75B6;stroke-width:0.5;"/><line style="stroke:#2E75B6;stroke-width:0.5;" x1="281" x2="291" y1="252.5" y2="242.5"/><line style="stroke:#2E75B6;stroke-width:0.5;" x1="178" x2="281" y1="252.5" y2="252.5"/><line style="stroke:#2E75B6;stroke-width:0.5;" x1="281" x2="281" y1="252.5" y2="314.0078"/><text fill="#000000" font-family="sans-serif" font-size="11" lengthAdjust="spacing" textLength="46" x="193" y="273.9189">Container</text><text fill="#000000" font-family="sans-serif" font-size="11" lengthAdjust="spacing" textLength="70" x="193" y="287.7549">admin-console</text><text fill="#000000" font-family="sans-serif" font-size="11" lengthAdjust="spacing" textLength="73" x="193" y="301.5908">(React &#183; Nginx)</text></g><!--entity API--><g id="elem_API"><polygon fill="#E8F4FD" points="380,144.5,390,134.5,484,134.5,484,196.0078,474,206.0078,380,206.0078,380,144.5" style="stroke:#2E75B6;stroke-width:0.5;"/><line style="stroke:#2E75B6;stroke-width:0.5;" x1="474" x2="484" y1="144.5" y2="134.5"/><line style="stroke:#2E75B6;stroke-width:0.5;" x1="380" x2="474" y1="144.5" y2="144.5"/><line style="stroke:#2E75B6;stroke-width:0.5;" x1="474" x2="474" y1="144.5" y2="206.0078"/><text fill="#000000" font-family="sans-serif" font-size="11" lengthAdjust="spacing" textLength="46" x="395" y="165.9189">Container</text><text fill="#000000" font-family="sans-serif" font-size="11" lengthAdjust="spacing" textLength="41" x="395" y="179.7549">backend</text><text fill="#000000" font-family="sans-serif" font-size="11" lengthAdjust="spacing" textLength="64" x="395" y="193.5908">(Spring Boot)</text></g><!--entity DB--><g id="elem_DB"><path d="M642,16 C642,6 688.5,6 688.5,6 C688.5,6 735,6 735,16 L735,52.6719 C735,62.6719 688.5,62.6719 688.5,62.6719 C688.5,62.6719 642,62.6719 642,52.6719 L642,16 " fill="#E8F4FD" style="stroke:#2E75B6;stroke-width:0.5;"/><path d="M642,16 C642,26 688.5,26 688.5,26 C688.5,26 735,26 735,16 " fill="none" style="stroke:#2E75B6;stroke-width:0.5;"/><text fill="#000000" font-family="sans-serif" font-size="11" lengthAdjust="spacing" textLength="46" x="652" y="41.4189">Container</text><text fill="#000000" font-family="sans-serif" font-size="11" lengthAdjust="spacing" textLength="73" x="652" y="55.2549">PostgreSQL 16</text></g><!--entity Redis--><g id="elem_Redis"><path d="M655.5,108 C655.5,98 688.5,98 688.5,98 C688.5,98 721.5,98 721.5,108 L721.5,144.6719 C721.5,154.6719 688.5,154.6719 688.5,154.6719 C688.5,154.6719 655.5,154.6719 655.5,144.6719 L655.5,108 " fill="#E8F4FD" style="stroke:#2E75B6;stroke-width:0.5;"/><path d="M655.5,108 C655.5,118 688.5,118 688.5,118 C688.5,118 721.5,118 721.5,108 " fill="none" style="stroke:#2E75B6;stroke-width:0.5;"/><text fill="#000000" font-family="sans-serif" font-size="11" lengthAdjust="spacing" textLength="46" x="665.5" y="133.4189">Container</text><text fill="#000000" font-family="sans-serif" font-size="11" lengthAdjust="spacing" textLength="36" x="665.5" y="147.2549">Redis 7</text></g><!--entity Stripe--><g id="elem_Stripe"><rect fill="#EEF4FB" height="47.6719" rx="2.5" ry="2.5" style="stroke:#2E75B6;stroke-width:0.5;" width="67" x="655" y="190.5"/><text fill="#000000" font-family="sans-serif" font-size="11" lengthAdjust="spacing" textLength="47" x="665" y="211.9189">Stripe API</text><text fill="#000000" font-family="sans-serif" font-size="11" lengthAdjust="spacing" textLength="45" x="665" y="225.7549">(externe)</text></g><!--entity SMTP--><g id="elem_SMTP"><rect fill="#EEF4FB" height="47.6719" rx="2.5" ry="2.5" style="stroke:#2E75B6;stroke-width:0.5;" width="65" x="656" y="273.5"/><text fill="#000000" font-family="sans-serif" font-size="11" lengthAdjust="spacing" textLength="45" x="666" y="294.9189">SendGrid</text><text fill="#000000" font-family="sans-serif" font-size="11" lengthAdjust="spacing" textLength="45" x="666" y="308.7549">(externe)</text></g><!--link Buyer to FrontB--><g id="link_Buyer_FrontB"><path d="M63.6,61.61 C91.08,61.76 133.5701,61.9786 171.7401,62.1786 " fill="none" id="Buyer-to-FrontB" style="stroke:#2E75B6;stroke-width:1.0;"/><polygon fill="#2E75B6" points="177.74,62.21,168.7611,58.1629,172.7401,62.1838,168.7192,66.1628,177.74,62.21" style="stroke:#2E75B6;stroke-width:1.0;"/><text fill="#000000" font-family="sans-serif" font-size="11" lengthAdjust="spacing" textLength="32" x="107" y="59.9189">HTTPS</text></g><!--link Vendor to FrontV--><g id="link_Vendor_FrontV"><path d="M62.13,170.5 C87.48,170.5 126.25,170.5 163.68,170.5 " fill="none" id="Vendor-to-FrontV" style="stroke:#2E75B6;stroke-width:1.0;"/><polygon fill="#2E75B6" points="169.68,170.5,160.68,166.5,164.68,170.5,160.68,174.5,169.68,170.5" style="stroke:#2E75B6;stroke-width:1.0;"/><text fill="#000000" font-family="sans-serif" font-size="11" lengthAdjust="spacing" textLength="32" x="107" y="167.9189">HTTPS</text></g><!--link Admin to FrontA--><g id="link_Admin_FrontA"><path d="M76.24,279.32 C104.42,279.17 138.9401,278.991 171.7901,278.821 " fill="none" id="Admin-to-FrontA" style="stroke:#2E75B6;stroke-width:1.0;"/><polygon fill="#2E75B6" points="177.79,278.79,168.7694,274.8366,172.7901,278.8159,168.8108,282.8365,177.79,278.79" style="stroke:#2E75B6;stroke-width:1.0;"/><text fill="#000000" font-family="sans-serif" font-size="11" lengthAdjust="spacing" textLength="32" x="107" y="275.9189">HTTPS</text></g><!--link FrontB to API--><g id="link_FrontB_API"><path d="M291.26,93.3 C319.14,108.7 347.388,124.3089 374.598,139.3389 " fill="none" id="FrontB-to-API" style="stroke:#2E75B6;stroke-width:1.0;"/><polygon fill="#2E75B6" points="379.85,142.24,373.906,134.387,375.4733,139.8224,370.0379,141.3898,379.85,142.24" style="stroke:#2E75B6;stroke-width:1.0;"/><text fill="#000000" font-family="sans-serif" font-size="11" lengthAdjust="spacing" textLength="19" x="330" y="113.9189">TLS</text></g><!--link FrontV to API--><g id="link_FrontV_API"><path d="M299.24,170.5 C325.32,170.5 349.08,170.5 373.71,170.5 " fill="none" id="FrontV-to-API" style="stroke:#2E75B6;stroke-width:1.0;"/><polygon fill="#2E75B6" points="379.71,170.5,370.71,166.5,374.71,170.5,370.71,174.5,379.71,170.5" style="stroke:#2E75B6;stroke-width:1.0;"/><text fill="#000000" font-family="sans-serif" font-size="11" lengthAdjust="spacing" textLength="19" x="330" y="167.9189">TLS</text></g><!--link FrontA to API--><g id="link_FrontA_API"><path d="M291.26,247.7 C319.14,232.3 347.388,216.6911 374.598,201.6611 " fill="none" id="FrontA-to-API" style="stroke:#2E75B6;stroke-width:1.0;"/><polygon fill="#2E75B6" points="379.85,198.76,370.0379,199.6102,375.4733,201.1776,373.906,206.613,379.85,198.76" style="stroke:#2E75B6;stroke-width:1.0;"/><text fill="#000000" font-family="sans-serif" font-size="11" lengthAdjust="spacing" textLength="19" x="330" y="215.9189">TLS</text></g><!--link API to DB--><g id="link_API_DB"><path d="M484.29,136.27 C494.03,130.14 504.23,123.97 514,118.5 C556.33,94.78 600.9119,73.4719 636.3519,57.2919 " fill="none" id="API-to-DB" style="stroke:#2E75B6;stroke-width:1.0;"/><polygon fill="#2E75B6" points="641.81,54.8,631.9616,54.8991,637.2616,56.8766,635.2841,62.1765,641.81,54.8" style="stroke:#2E75B6;stroke-width:1.0;"/><text fill="#000000" font-family="sans-serif" font-size="11" lengthAdjust="spacing" textLength="96" x="515" y="66.9189">SQL (JPA / Flyway)</text></g><!--link API to Redis--><g id="link_API_Redis"><path d="M484.2,161.65 C535.29,152.82 606.3077,140.532 649.4077,133.082 " fill="none" id="API-to-Redis" style="stroke:#2E75B6;stroke-width:1.0;"/><polygon fill="#2E75B6" points="655.32,132.06,645.7702,129.6514,650.3931,132.9116,647.1328,137.5345,655.32,132.06" style="stroke:#2E75B6;stroke-width:1.0;"/><text fill="#000000" font-family="sans-serif" font-size="11" lengthAdjust="spacing" textLength="84" x="521" y="138.9189">cache &#183; sessions</text></g><!--link API to Stripe--><g id="link_API_Stripe"><path d="M484.2,179.35 C535.14,188.16 605.8777,200.3881 649.0377,207.8481 " fill="none" id="API-to-Stripe" style="stroke:#2E75B6;stroke-width:1.0;"/><polygon fill="#2E75B6" points="654.95,208.87,646.7628,203.3956,650.0231,208.0184,645.4002,211.2787,654.95,208.87" style="stroke:#2E75B6;stroke-width:1.0;"/><text fill="#000000" font-family="sans-serif" font-size="11" lengthAdjust="spacing" textLength="32" x="547" y="182.9189">HTTPS</text></g><!--link API to SMTP--><g id="link_API_SMTP"><path d="M484.03,205.82 C493.79,212.03 504.07,218.19 514,223.5 C561.79,249.07 614.6875,270.3787 650.0875,283.7587 " fill="none" id="API-to-SMTP" style="stroke:#2E75B6;stroke-width:1.0;"/><polygon fill="#2E75B6" points="655.7,285.88,648.6955,278.9564,651.0229,284.1122,645.8671,286.4397,655.7,285.88" style="stroke:#2E75B6;stroke-width:1.0;"/><text fill="#000000" font-family="sans-serif" font-size="11" lengthAdjust="spacing" textLength="32" x="547" y="220.9189">HTTPS</text></g><!--SRC=[XLAzRjim4Dxv50TdIGQXSD4cXOS2Kcpr1scXHeQdBBHuaeaef76awxWlrhrFLfAI6IKsR4t2ztV7kpEFKgqvyISGMFDDQtEjR2d_88p7p4JIhBZGMwaQg7bhSC2aH7fxgrjDSF5-TlCnknwGIWlCD0caamfUFJQaDqhqgjcd_4C-7QW4jtp9pPcig3gRHrXPhfhsJE2Bx21nvX8pnbgiBLWD99kL1I6zGsh56A-iqutIQeKMDpI2xkC6iiqEQSylK8a1xNaFwIX8nPDKqbZYNOmJ18WnFpaOtRfrSQcG7jJI1oThJPQt3-ho7bq4_FiBFnkfdg-2DISdpmwjlqFDPEcUgUjQLdZAlpZqSzzIKcbbT7lIcnvfsnLrvPshN9E_i4nhsrdIuXlRB_MLfz36DeJbhpiONmVfD3kkl4SX3Tm4JVXdSQamAYt9DVeohZe-MoI5NUMEUQLrFNuXAGwKF-O5Os6f04dokPynJE3hV5wKh5ld2xE8JDZZm9D6XlKPddBDENn-LxBUVWHCtu3C_tfeclcZce0VrENt8eLtaBUxBTzTHKate0bKt9sgNvb1Ozm9cwZefnJRtiFkuI6yW_y3]--></g></svg>