<?plantuml 1.2026.2?><svg xmlns="http://www.w3.org/2000/svg" xmlns:xlink="http://www.w3.org/1999/xlink" contentStyleType="text/css" data-diagram-type="DESCRIPTION" height="502px" preserveAspectRatio="none" style="width:466px;height:502px;background:#FFFFFF;" version="1.1" viewBox="0 0 466 502" width="466px" zoomAndPan="magnify"><defs/><g><!--entity Client Browser--><g class="entity" data-qualified-name="Client Browser" data-source-line="3" id="ent0002"><polygon fill="#F1F1F1" points="185.5,16,195.5,6,316.5273,6,316.5273,43.6094,306.5273,53.6094,185.5,53.6094,185.5,16" style="stroke:#181818;stroke-width:0.5;"/><line style="stroke:#181818;stroke-width:0.5;" x1="306.5273" x2="316.5273" y1="16" y2="6"/><line style="stroke:#181818;stroke-width:0.5;" x1="185.5" x2="306.5273" y1="16" y2="16"/><line style="stroke:#181818;stroke-width:0.5;" x1="306.5273" x2="306.5273" y1="16" y2="53.6094"/><text fill="#000000" font-family="sans-serif" font-size="14" lengthAdjust="spacing" textLength="91.0273" x="200.5" y="40.5332">Client Browser</text></g><!--entity Load Balancer--><g class="entity" data-qualified-name="Load Balancer" data-source-line="4" id="ent0003"><polygon fill="#F1F1F1" points="186,124,196,114,316.2891,114,316.2891,151.6094,306.2891,161.6094,186,161.6094,186,124" style="stroke:#181818;stroke-width:0.5;"/><line style="stroke:#181818;stroke-width:0.5;" x1="306.2891" x2="316.2891" y1="124" y2="114"/><line style="stroke:#181818;stroke-width:0.5;" x1="186" x2="306.2891" y1="124" y2="124"/><line style="stroke:#181818;stroke-width:0.5;" x1="306.2891" x2="306.2891" y1="124" y2="161.6094"/><text fill="#000000" font-family="sans-serif" font-size="14" lengthAdjust="spacing" textLength="90.2891" x="201" y="148.5332">Load Balancer</text></g><!--entity Web Server 1--><g class="entity" data-qualified-name="Web Server 1" data-source-line="5" id="ent0004"><polygon fill="#F1F1F1" points="108,232,118,222,233.5859,222,233.5859,259.6094,223.5859,269.6094,108,269.6094,108,232" style="stroke:#181818;stroke-width:0.5;"/><line style="stroke:#181818;stroke-width:0.5;" x1="223.5859" x2="233.5859" y1="232" y2="222"/><line style="stroke:#181818;stroke-width:0.5;" x1="108" x2="223.5859" y1="232" y2="232"/><line style="stroke:#181818;stroke-width:0.5;" x1="223.5859" x2="223.5859" y1="232" y2="269.6094"/><text fill="#000000" font-family="sans-serif" font-size="14" lengthAdjust="spacing" textLength="85.5859" x="123" y="256.5332">Web Server 1</text></g><!--entity Web Server 2--><g class="entity" data-qualified-name="Web Server 2" data-source-line="6" id="ent0005"><polygon fill="#F1F1F1" points="269,232,279,222,394.5859,222,394.5859,259.6094,384.5859,269.6094,269,269.6094,269,232" style="stroke:#181818;stroke-width:0.5;"/><line style="stroke:#181818;stroke-width:0.5;" x1="384.5859" x2="394.5859" y1="232" y2="222"/><line style="stroke:#181818;stroke-width:0.5;" x1="269" x2="384.5859" y1="232" y2="232"/><line style="stroke:#181818;stroke-width:0.5;" x1="384.5859" x2="384.5859" y1="232" y2="269.6094"/><text fill="#000000" font-family="sans-serif" font-size="14" lengthAdjust="spacing" textLength="85.5859" x="284" y="256.5332">Web Server 2</text></g><!--entity API Server--><g class="entity" data-qualified-name="API Server" data-source-line="7" id="ent0006"><polygon fill="#F1F1F1" points="197,340,207,330,304.6895,330,304.6895,367.6094,294.6895,377.6094,197,377.6094,197,340" style="stroke:#181818;stroke-width:0.5;"/><line style="stroke:#181818;stroke-width:0.5;" x1="294.6895" x2="304.6895" y1="340" y2="330"/><line style="stroke:#181818;stroke-width:0.5;" x1="197" x2="294.6895" y1="340" y2="340"/><line style="stroke:#181818;stroke-width:0.5;" x1="294.6895" x2="294.6895" y1="340" y2="377.6094"/><text fill="#000000" font-family="sans-serif" font-size="14" lengthAdjust="spacing" textLength="67.6895" x="212" y="364.5332">API Server</text></g><!--entity PostgreSQL DB--><g class="entity" data-qualified-name="PostgreSQL DB" data-source-line="8" id="ent0007"><polygon fill="#F1F1F1" points="16,448,26,438,155.5996,438,155.5996,475.6094,145.5996,485.6094,16,485.6094,16,448" style="stroke:#181818;stroke-width:0.5;"/><line style="stroke:#181818;stroke-width:0.5;" x1="145.5996" x2="155.5996" y1="448" y2="438"/><line style="stroke:#181818;stroke-width:0.5;" x1="16" x2="145.5996" y1="448" y2="448"/><line style="stroke:#181818;stroke-width:0.5;" x1="145.5996" x2="145.5996" y1="448" y2="485.6094"/><text fill="#000000" font-family="sans-serif" font-size="14" lengthAdjust="spacing" textLength="99.5996" x="31" y="472.5332">PostgreSQL DB</text></g><!--entity Redis Cache--><g class="entity" data-qualified-name="Redis Cache" data-source-line="9" id="ent0008"><polygon fill="#F1F1F1" points="191,448,201,438,311.1514,438,311.1514,475.6094,301.1514,485.6094,191,485.6094,191,448" style="stroke:#181818;stroke-width:0.5;"/><line style="stroke:#181818;stroke-width:0.5;" x1="301.1514" x2="311.1514" y1="448" y2="438"/><line style="stroke:#181818;stroke-width:0.5;" x1="191" x2="301.1514" y1="448" y2="448"/><line style="stroke:#181818;stroke-width:0.5;" x1="301.1514" x2="301.1514" y1="448" y2="485.6094"/><text fill="#000000" font-family="sans-serif" font-size="14" lengthAdjust="spacing" textLength="80.1514" x="206" y="472.5332">Redis Cache</text></g><!--entity Stripe API--><g class="entity" data-qualified-name="Stripe API" data-source-line="10" id="ent0009"><polygon fill="#F1F1F1" points="346.5,448,356.5,438,449.5273,438,449.5273,475.6094,439.5273,485.6094,346.5,485.6094,346.5,448" style="stroke:#181818;stroke-width:0.5;"/><line style="stroke:#181818;stroke-width:0.5;" x1="439.5273" x2="449.5273" y1="448" y2="438"/><line style="stroke:#181818;stroke-width:0.5;" x1="346.5" x2="439.5273" y1="448" y2="448"/><line style="stroke:#181818;stroke-width:0.5;" x1="439.5273" x2="439.5273" y1="448" y2="485.6094"/><text fill="#000000" font-family="sans-serif" font-size="14" lengthAdjust="spacing" textLength="63.0273" x="361.5" y="472.5332">Stripe API</text></g><!--link Client Browser to Load Balancer--><g class="link" data-entity-1="ent0002" data-entity-2="ent0003" data-link-type="dependency" data-source-line="12" id="lnk10"><path d="M251,54 C251,71.66 251,89.94 251,107.68" fill="none" id="Client Browser-to-Load Balancer" style="stroke:#181818;stroke-width:1;"/><polygon fill="#181818" points="251,113.68,255,104.68,251,108.68,247,104.68,251,113.68" style="stroke:#181818;stroke-width:1;"/></g><!--link Load Balancer to Web Server 1--><g class="link" data-entity-1="ent0003" data-entity-2="ent0004" data-link-type="dependency" data-source-line="13" id="lnk11"><path d="M233.64,162 C220.31,179.66 205.6047,199.151 192.2147,216.891" fill="none" id="Load Balancer-to-Web Server 1" style="stroke:#181818;stroke-width:1;"/><polygon fill="#181818" points="188.6,221.68,197.2146,216.9063,191.6122,217.6892,190.8294,212.0868,188.6,221.68" style="stroke:#181818;stroke-width:1;"/></g><!--link Load Balancer to Web Server 2--><g class="link" data-entity-1="ent0003" data-entity-2="ent0005" data-link-type="dependency" data-source-line="14" id="lnk12"><path d="M268.58,162 C282.07,179.66 296.9763,199.1731 310.5363,216.9131" fill="none" id="Load Balancer-to-Web Server 2" style="stroke:#181818;stroke-width:1;"/><polygon fill="#181818" points="314.18,221.68,311.8924,212.1005,311.1436,217.7076,305.5365,216.9588,314.18,221.68" style="stroke:#181818;stroke-width:1;"/></g><!--link Web Server 1 to API Server--><g class="link" data-entity-1="ent0004" data-entity-2="ent0006" data-link-type="dependency" data-source-line="15" id="lnk13"><path d="M188.36,270 C201.69,287.66 216.3953,307.151 229.7853,324.891" fill="none" id="Web Server 1-to-API Server" style="stroke:#181818;stroke-width:1;"/><polygon fill="#181818" points="233.4,329.68,231.1706,320.0868,230.3878,325.6892,224.7854,324.9063,233.4,329.68" style="stroke:#181818;stroke-width:1;"/></g><!--link Web Server 2 to API Server--><g class="link" data-entity-1="ent0005" data-entity-2="ent0006" data-link-type="dependency" data-source-line="16" id="lnk14"><path d="M314.42,270 C300.93,287.66 286.0237,307.1731 272.4637,324.9131" fill="none" id="Web Server 2-to-API Server" style="stroke:#181818;stroke-width:1;"/><polygon fill="#181818" points="268.82,329.68,277.4635,324.9588,271.8564,325.7076,271.1076,320.1005,268.82,329.68" style="stroke:#181818;stroke-width:1;"/></g><!--link API Server to PostgreSQL DB--><g class="link" data-entity-1="ent0006" data-entity-2="ent0007" data-link-type="dependency" data-source-line="17" id="lnk15"><path d="M215.2,378 C187.62,395.72 154.6981,416.867 127.0681,434.617" fill="none" id="API Server-to-PostgreSQL DB" style="stroke:#181818;stroke-width:1;"/><polygon fill="#181818" points="122.02,437.86,131.7541,436.3609,126.2267,435.1575,127.4301,429.6302,122.02,437.86" style="stroke:#181818;stroke-width:1;"/></g><!--link API Server to Redis Cache--><g class="link" data-entity-1="ent0006" data-entity-2="ent0008" data-link-type="dependency" data-source-line="18" id="lnk16"><path d="M251,378 C251,395.66 251,413.94 251,431.68" fill="none" id="API Server-to-Redis Cache" style="stroke:#181818;stroke-width:1;"/><polygon fill="#181818" points="251,437.68,255,428.68,251,432.68,247,428.68,251,437.68" style="stroke:#181818;stroke-width:1;"/></g><!--link API Server to Stripe API--><g class="link" data-entity-1="ent0006" data-entity-2="ent0009" data-link-type="dependency" data-source-line="19" id="lnk17"><path d="M282.9,378 C307.47,395.72 336.423,416.6011 361.043,434.3511" fill="none" id="API Server-to-Stripe API" style="stroke:#181818;stroke-width:1;"/><polygon fill="#181818" points="365.91,437.86,360.9488,429.352,361.8542,434.9359,356.2702,435.8413,365.91,437.86" style="stroke:#181818;stroke-width:1;"/></g><?plantuml-src XP312i8m44Jl-Ogrznxqv4cmLQ5Gj1f1y1QRhGPhKfAWuDTRQ4ERjk1ntymkCplZM0Y9i3lippIvRc59p5F8YcdsWa99IyMtKubK7268Iu7IGgJLnw0EMfegnY5Y9PDv1ozu0uhwZHhc4spXs3fBMkP8feozQwJ753QHWoVama3CyWSwHAqM5K9z821a60t2S3LADfWRZn_qdwNExMyqZduBtpwXzuP67JGU6xpsOxdtYHy0?></g></svg>