<?plantuml 1.2026.2?><svg xmlns="http://www.w3.org/2000/svg" xmlns:xlink="http://www.w3.org/1999/xlink" contentStyleType="text/css" data-diagram-type="DESCRIPTION" height="235px" preserveAspectRatio="none" style="width:740px;height:235px;background:#FFFFFF;" version="1.1" viewBox="0 0 740 235" width="740px" zoomAndPan="magnify"><defs/><g><!--entity Client--><g class="entity" data-qualified-name="Client" data-source-line="13" id="ent0002"><ellipse cx="48.1873" cy="94" fill="#F1F1F1" rx="8" ry="8" style="stroke:#181818;stroke-width:0.5;"/><path d="M48.1873,102 L48.1873,129 M35.1873,110 L61.1873,110 M48.1873,129 L35.1873,144 M48.1873,129 L61.1873,144" fill="none" style="stroke:#181818;stroke-width:0.5;"/><text fill="#000000" font-family="sans-serif" font-size="11" lengthAdjust="spacing" textLength="84.3745" x="6" y="156.9189">Navigateur Client</text></g><!--entity Web--><g class="entity" data-qualified-name="Web" data-source-line="15" id="ent0003"><polygon fill="#E8F4FD" points="188,103.5,198,93.5,292.1899,93.5,292.1899,141.1719,282.1899,151.1719,188,151.1719,188,103.5" style="stroke:#2E75B6;stroke-width:0.5;"/><line style="stroke:#2E75B6;stroke-width:0.5;" x1="282.1899" x2="292.1899" y1="103.5" y2="93.5"/><line style="stroke:#2E75B6;stroke-width:0.5;" x1="188" x2="282.1899" y1="103.5" y2="103.5"/><line style="stroke:#2E75B6;stroke-width:0.5;" x1="282.1899" x2="282.1899" y1="103.5" y2="151.1719"/><text fill="#000000" font-family="sans-serif" font-size="11" lengthAdjust="spacing" textLength="64.1899" x="203" y="124.9189">Serveur Web</text><text fill="#000000" font-family="sans-serif" font-size="11" lengthAdjust="spacing" textLength="36.0615" x="203" y="138.7549">(React)</text></g><!--entity API--><g class="entity" data-qualified-name="API" data-source-line="16" id="ent0004"><polygon fill="#E8F4FD" points="415,103.5,425,93.5,519.8076,93.5,519.8076,141.1719,509.8076,151.1719,415,151.1719,415,103.5" style="stroke:#2E75B6;stroke-width:0.5;"/><line style="stroke:#2E75B6;stroke-width:0.5;" x1="509.8076" x2="519.8076" y1="103.5" y2="93.5"/><line style="stroke:#2E75B6;stroke-width:0.5;" x1="415" x2="509.8076" y1="103.5" y2="103.5"/><line style="stroke:#2E75B6;stroke-width:0.5;" x1="509.8076" x2="509.8076" y1="103.5" y2="151.1719"/><text fill="#000000" font-family="sans-serif" font-size="11" lengthAdjust="spacing" textLength="59.3022" x="430" y="124.9189">Serveur API</text><text fill="#000000" font-family="sans-serif" font-size="11" lengthAdjust="spacing" textLength="64.8076" x="430" y="138.7549">(Spring Boot)</text></g><!--entity DB--><g class="entity" data-qualified-name="DB" data-source-line="17" id="ent0005"><path d="M618,16 C618,6 670.813,6 670.813,6 C670.813,6 723.626,6 723.626,16 L723.626,52.6719 C723.626,62.6719 670.813,62.6719 670.813,62.6719 C670.813,62.6719 618,62.6719 618,52.6719 L618,16" fill="#E8F4FD" style="stroke:#2E75B6;stroke-width:0.5;"/><path d="M618,16 C618,26 670.813,26 670.813,26 C670.813,26 723.626,26 723.626,16" fill="none" style="stroke:#2E75B6;stroke-width:0.5;"/><text fill="#000000" font-family="sans-serif" font-size="11" lengthAdjust="spacing" textLength="85.626" x="628" y="41.4189">Base de donn&#233;es</text><text fill="#000000" font-family="sans-serif" font-size="11" lengthAdjust="spacing" textLength="67.2461" x="628" y="55.2549">(PostgreSQL)</text></g><!--entity Stripe--><g class="entity" data-qualified-name="Stripe" data-source-line="18" id="ent0006"><rect fill="#EEF4FB" height="47.6719" rx="2.5" ry="2.5" style="stroke:#2E75B6;stroke-width:0.5;" width="69.5215" x="636" y="98.5"/><text fill="#000000" font-family="sans-serif" font-size="11" lengthAdjust="spacing" textLength="49.5215" x="646" y="119.9189">Stripe API</text><text fill="#000000" font-family="sans-serif" font-size="11" lengthAdjust="spacing" textLength="44.0161" x="646" y="133.7549">(externe)</text></g><!--entity SMTP--><g class="entity" data-qualified-name="SMTP" data-source-line="19" id="ent0007"><rect fill="#EEF4FB" height="47.6719" rx="2.5" ry="2.5" style="stroke:#2E75B6;stroke-width:0.5;" width="64.0161" x="639" y="181.5"/><text fill="#000000" font-family="sans-serif" font-size="11" lengthAdjust="spacing" textLength="30.5562" x="649" y="202.9189">SMTP</text><text fill="#000000" font-family="sans-serif" font-size="11" lengthAdjust="spacing" textLength="44.0161" x="649" y="216.7549">(externe)</text></g><!--link Client to Web--><g class="link" data-entity-1="ent0002" data-entity-2="ent0003" data-link-type="dependency" data-source-line="21" id="lnk8"><path d="M90.23,122.5 C118.82,122.5 151.11,122.5 181.68,122.5" fill="none" id="Client-to-Web" style="stroke:#2E75B6;stroke-width:1;"/><polygon fill="#2E75B6" points="187.68,122.5,178.68,118.5,182.68,122.5,178.68,126.5,187.68,122.5" style="stroke:#2E75B6;stroke-width:1;"/><text fill="#000000" font-family="sans-serif" font-size="11" lengthAdjust="spacing" textLength="36.0562" x="121" y="119.9189">HTTPS</text></g><!--link Web to API--><g class="link" data-entity-1="ent0003" data-entity-2="ent0004" data-link-type="dependency" data-source-line="22" id="lnk9"><path d="M292.17,122.5 C328.81,122.5 371.98,122.5 408.75,122.5" fill="none" id="Web-to-API" style="stroke:#2E75B6;stroke-width:1;"/><polygon fill="#2E75B6" points="414.75,122.5,405.75,118.5,409.75,122.5,405.75,126.5,414.75,122.5" style="stroke:#2E75B6;stroke-width:1;"/><text fill="#000000" font-family="sans-serif" font-size="11" lengthAdjust="spacing" textLength="61.73" x="323" y="119.9189">REST/JSON</text></g><!--link API to DB--><g class="link" data-entity-1="ent0004" data-entity-2="ent0005" data-link-type="dependency" data-source-line="23" id="lnk10"><path d="M520.13,99.95 C550.1,86.86 582.241,72.8201 612.301,59.7001" fill="none" id="API-to-DB" style="stroke:#2E75B6;stroke-width:1;"/><polygon fill="#2E75B6" points="617.8,57.3,607.9514,57.2341,613.2175,59.3001,611.1515,64.5662,617.8,57.3" style="stroke:#2E75B6;stroke-width:1;"/><text fill="#000000" font-family="sans-serif" font-size="11" lengthAdjust="spacing" textLength="22.0107" x="558" y="68.9189">SQL</text></g><!--link API to Stripe--><g class="link" data-entity-1="ent0004" data-entity-2="ent0006" data-link-type="dependency" data-source-line="24" id="lnk11"><path d="M520.13,122.5 C556.51,122.5 598.2,122.5 629.91,122.5" fill="none" id="API-to-Stripe" style="stroke:#2E75B6;stroke-width:1;"/><polygon fill="#2E75B6" points="635.91,122.5,626.91,118.5,630.91,122.5,626.91,126.5,635.91,122.5" style="stroke:#2E75B6;stroke-width:1;"/><text fill="#000000" font-family="sans-serif" font-size="11" lengthAdjust="spacing" textLength="36.0562" x="551" y="119.9189">HTTPS</text></g><!--link API to SMTP--><g class="link" data-entity-1="ent0004" data-entity-2="ent0007" data-link-type="dependency" data-source-line="25" id="lnk12"><path d="M520.13,143.77 C557.68,159.23 601.7227,177.3737 633.3627,190.4137" fill="none" id="API-to-SMTP" style="stroke:#2E75B6;stroke-width:1;"/><polygon fill="#2E75B6" points="638.91,192.7,632.1132,185.5724,634.2872,190.7948,629.0648,192.9688,638.91,192.7" style="stroke:#2E75B6;stroke-width:1;"/><text fill="#000000" font-family="sans-serif" font-size="11" lengthAdjust="spacing" textLength="36.0562" x="551" y="153.9189">HTTPS</text></g><?plantuml-src XP5DJiCm44RtFeKLDh2eK15_Oe5Kjwa0GGbr93Pit7gQMWrsDNPRn8qu1nTZJD9Gg4GsaVFcVLyyYbyOkrIeNhc6cLgLOUXiaEOTUBVBV3FqSwNTnjY2prJfOMVIGtIRlYiTyeEJzE9CdEyChTCW76h0VmqrNHJeLbRNLdevF1qETYojWfeetzBLMArz2DEWR56s5FveUuqfDGh6IfW57Xn7Kym3roOcZBECgMaWBncfjIbKW1NoVcd0XeGhNnyPYylpH0Ake_0CanTxE0QA7drh1FuelUoM5Bd4-2U4SxL8c6sNvuc8JqffP-td1tXAPCw70a4-tLU1WM3DRjGUq2oXBeUt06YXygh9B_SXp_OiOenLI_5EvpfUd5_ncppF98ldoAYTs3YL-V6TV1on-1xvG12cYpMWliqsts3wI0E_0000?></g></svg>