<?plantuml 1.2026.2?><svg xmlns="http://www.w3.org/2000/svg" xmlns:xlink="http://www.w3.org/1999/xlink" contentStyleType="text/css" data-diagram-type="DESCRIPTION" height="235px" preserveAspectRatio="none" style="width:704px;height:235px;background:#FFFFFF;" version="1.1" viewBox="0 0 704 235" width="704px" zoomAndPan="magnify"><defs/><g><!--entity Client--><g class="entity" data-qualified-name="Client" data-source-line="13" id="ent0002"><ellipse cx="41.7607" cy="94" fill="#F1F1F1" rx="8" ry="8" style="stroke:#181818;stroke-width:0.5;"/><path d="M41.7607,102 L41.7607,129 M28.7607,110 L54.7607,110 M41.7607,129 L28.7607,144 M41.7607,129 L54.7607,144" fill="none" style="stroke:#181818;stroke-width:0.5;"/><text fill="#000000" font-family="sans-serif" font-size="11" lengthAdjust="spacing" textLength="71.5215" x="6" y="156.9189">Client Browser</text></g><!--entity Web--><g class="entity" data-qualified-name="Web" data-source-line="15" id="ent0003"><polygon fill="#E8F4FD" points="176,103.5,186,93.5,274.0723,93.5,274.0723,141.1719,264.0723,151.1719,176,151.1719,176,103.5" style="stroke:#2E75B6;stroke-width:0.5;"/><line style="stroke:#2E75B6;stroke-width:0.5;" x1="264.0723" x2="274.0723" y1="103.5" y2="93.5"/><line style="stroke:#2E75B6;stroke-width:0.5;" x1="176" x2="264.0723" y1="103.5" y2="103.5"/><line style="stroke:#2E75B6;stroke-width:0.5;" x1="264.0723" x2="264.0723" y1="103.5" y2="151.1719"/><text fill="#000000" font-family="sans-serif" font-size="11" lengthAdjust="spacing" textLength="58.0723" x="191" y="124.9189">Web Server</text><text fill="#000000" font-family="sans-serif" font-size="11" lengthAdjust="spacing" textLength="36.0615" x="191" y="138.7549">(React)</text></g><!--entity API--><g class="entity" data-qualified-name="API" data-source-line="16" id="ent0004"><polygon fill="#E8F4FD" points="397,103.5,407,93.5,501.8076,93.5,501.8076,141.1719,491.8076,151.1719,397,151.1719,397,103.5" style="stroke:#2E75B6;stroke-width:0.5;"/><line style="stroke:#2E75B6;stroke-width:0.5;" x1="491.8076" x2="501.8076" y1="103.5" y2="93.5"/><line style="stroke:#2E75B6;stroke-width:0.5;" x1="397" x2="491.8076" y1="103.5" y2="103.5"/><line style="stroke:#2E75B6;stroke-width:0.5;" x1="491.8076" x2="491.8076" y1="103.5" y2="151.1719"/><text fill="#000000" font-family="sans-serif" font-size="11" lengthAdjust="spacing" textLength="53.1846" x="412" y="124.9189">API Server</text><text fill="#000000" font-family="sans-serif" font-size="11" lengthAdjust="spacing" textLength="64.8076" x="412" y="138.7549">(Spring Boot)</text></g><!--entity DB--><g class="entity" data-qualified-name="DB" data-source-line="17" id="ent0005"><path d="M600,16 C600,6 643.623,6 643.623,6 C643.623,6 687.2461,6 687.2461,16 L687.2461,52.6719 C687.2461,62.6719 643.623,62.6719 643.623,62.6719 C643.623,62.6719 600,62.6719 600,52.6719 L600,16" fill="#E8F4FD" style="stroke:#2E75B6;stroke-width:0.5;"/><path d="M600,16 C600,26 643.623,26 643.623,26 C643.623,26 687.2461,26 687.2461,16" fill="none" style="stroke:#2E75B6;stroke-width:0.5;"/><text fill="#000000" font-family="sans-serif" font-size="11" lengthAdjust="spacing" textLength="47.0884" x="610" y="41.4189">Database</text><text fill="#000000" font-family="sans-serif" font-size="11" lengthAdjust="spacing" textLength="67.2461" x="610" y="55.2549">(PostgreSQL)</text></g><!--entity Stripe--><g class="entity" data-qualified-name="Stripe" data-source-line="18" id="ent0006"><rect fill="#EEF4FB" height="47.6719" rx="2.5" ry="2.5" style="stroke:#2E75B6;stroke-width:0.5;" width="69.5215" x="608.5" y="98.5"/><text fill="#000000" font-family="sans-serif" font-size="11" lengthAdjust="spacing" textLength="49.5215" x="618.5" y="119.9189">Stripe API</text><text fill="#000000" font-family="sans-serif" font-size="11" lengthAdjust="spacing" textLength="46.46" x="618.5" y="133.7549">(external)</text></g><!--entity SMTP--><g class="entity" data-qualified-name="SMTP" data-source-line="19" id="ent0007"><rect fill="#EEF4FB" height="47.6719" rx="2.5" ry="2.5" style="stroke:#2E75B6;stroke-width:0.5;" width="66.46" x="610.5" y="181.5"/><text fill="#000000" font-family="sans-serif" font-size="11" lengthAdjust="spacing" textLength="30.5562" x="620.5" y="202.9189">SMTP</text><text fill="#000000" font-family="sans-serif" font-size="11" lengthAdjust="spacing" textLength="46.46" x="620.5" y="216.7549">(external)</text></g><!--link Client to Web--><g class="link" data-entity-1="ent0002" data-entity-2="ent0003" data-link-type="dependency" data-source-line="21" id="lnk8"><path d="M78.33,122.5 C106.11,122.5 139.1,122.5 169.75,122.5" fill="none" id="Client-to-Web" style="stroke:#2E75B6;stroke-width:1;"/><polygon fill="#2E75B6" points="175.75,122.5,166.75,118.5,170.75,122.5,166.75,126.5,175.75,122.5" style="stroke:#2E75B6;stroke-width:1;"/><text fill="#000000" font-family="sans-serif" font-size="11" lengthAdjust="spacing" textLength="36.0562" x="109" y="119.9189">HTTPS</text></g><!--link Web to API--><g class="link" data-entity-1="ent0003" data-entity-2="ent0004" data-link-type="dependency" data-source-line="22" id="lnk9"><path d="M274.01,122.5 C310.16,122.5 353.66,122.5 390.7,122.5" fill="none" id="Web-to-API" style="stroke:#2E75B6;stroke-width:1;"/><polygon fill="#2E75B6" points="396.7,122.5,387.7,118.5,391.7,122.5,387.7,126.5,396.7,122.5" style="stroke:#2E75B6;stroke-width:1;"/><text fill="#000000" font-family="sans-serif" font-size="11" lengthAdjust="spacing" textLength="61.73" x="305" y="119.9189">REST/JSON</text></g><!--link API to DB--><g class="link" data-entity-1="ent0004" data-entity-2="ent0005" data-link-type="dependency" data-source-line="23" id="lnk10"><path d="M502.21,98.8 C532.75,84.8 565.5057,69.7901 594.3257,56.5801" fill="none" id="API-to-DB" style="stroke:#2E75B6;stroke-width:1;"/><polygon fill="#2E75B6" points="599.78,54.08,589.9318,54.1939,595.2347,56.1634,593.2652,61.4663,599.78,54.08" style="stroke:#2E75B6;stroke-width:1;"/><text fill="#000000" font-family="sans-serif" font-size="11" lengthAdjust="spacing" textLength="22.0107" x="540" y="65.9189">SQL</text></g><!--link API to Stripe--><g class="link" data-entity-1="ent0004" data-entity-2="ent0006" data-link-type="dependency" data-source-line="24" id="lnk11"><path d="M502.21,122.5 C535.86,122.5 572.81,122.5 602.28,122.5" fill="none" id="API-to-Stripe" style="stroke:#2E75B6;stroke-width:1;"/><polygon fill="#2E75B6" points="608.28,122.5,599.28,118.5,603.28,122.5,599.28,126.5,608.28,122.5" style="stroke:#2E75B6;stroke-width:1;"/><text fill="#000000" font-family="sans-serif" font-size="11" lengthAdjust="spacing" textLength="36.0562" x="533" y="119.9189">HTTPS</text></g><!--link API to SMTP--><g class="link" data-entity-1="ent0004" data-entity-2="ent0007" data-link-type="dependency" data-source-line="25" id="lnk12"><path d="M502.21,144.85 C536.64,159.74 575.2924,176.4496 604.7924,189.1996" fill="none" id="API-to-SMTP" style="stroke:#2E75B6;stroke-width:1;"/><polygon fill="#2E75B6" points="610.3,191.58,603.6255,184.3377,605.7103,189.5963,600.4517,191.6811,610.3,191.58" style="stroke:#2E75B6;stroke-width:1;"/><text fill="#000000" font-family="sans-serif" font-size="11" lengthAdjust="spacing" textLength="36.0562" x="533" y="155.9189">HTTPS</text></g><?plantuml-src XP5DJm8n48Rl_HMJzQ87Op1-XOC9PPUeyMEbctZnKkYmDDIMJ8iOVxsjkomO4hbDt_UPjpEjNsYxb2G_GE5ChamOEHk4_aRezPZlJ3-NogsrhM4cZSSTPq3araDd7C7HUN5zoQzsJEiKSaSAwLz2JXSrkPLLBLNSZ2v6-GwbP90JwGzaTTJ1FC9faBOs1mAts5vY4HCvOmPd0O83qlKyWDAfGplBc9o6o6L3ez46uF6DF586qaCZCPOsX-mD9o2GFf7UxV4OOzl9BnNrbXYKzrj2B2bz0dUkvQBBDdj3bhTL94ldGqqeNXyRCEUiMmSo4KWlCNL75By2afMc0Hlh3_nKbVjO51bhzpizlKqJGn_kggeKBDL9IxFtOLo8wkn1l3opT4vwpgCSH-k4TfvDVoV7Iphn1m00?></g></svg>