<?plantuml 1.2026.2?><svg xmlns="http://www.w3.org/2000/svg" xmlns:xlink="http://www.w3.org/1999/xlink" contentStyleType="text/css" data-diagram-type="DESCRIPTION" height="494px" preserveAspectRatio="none" style="width:322px;height:494px;background:#FFFFFF;" version="1.1" viewBox="0 0 322 494" width="322px" zoomAndPan="magnify"><defs/><g><!--entity Client--><g class="entity" data-qualified-name="Client" data-source-line="11" id="ent0002"><ellipse cx="182.1873" cy="14" fill="#F1F1F1" rx="8" ry="8" style="stroke:#181818;stroke-width:0.5;"/><path d="M182.1873,22 L182.1873,49 M169.1873,30 L195.1873,30 M182.1873,49 L169.1873,64 M182.1873,49 L195.1873,64" fill="none" style="stroke:#181818;stroke-width:0.5;"/><text fill="#000000" font-family="sans-serif" font-size="11" lengthAdjust="spacing" textLength="84.3745" x="140" y="76.9189">Navigateur Client</text></g><!--entity Web--><g class="entity" data-qualified-name="Web" data-source-line="13" id="ent0003"><polygon fill="#E8F4FD" points="130,164.5,140,154.5,234.1899,154.5,234.1899,202.1719,224.1899,212.1719,130,212.1719,130,164.5" style="stroke:#2E75B6;stroke-width:0.5;"/><line style="stroke:#2E75B6;stroke-width:0.5;" x1="224.1899" x2="234.1899" y1="164.5" y2="154.5"/><line style="stroke:#2E75B6;stroke-width:0.5;" x1="130" x2="224.1899" y1="164.5" y2="164.5"/><line style="stroke:#2E75B6;stroke-width:0.5;" x1="224.1899" x2="224.1899" y1="164.5" y2="212.1719"/><text fill="#000000" font-family="sans-serif" font-size="11" lengthAdjust="spacing" textLength="64.1899" x="145" y="185.9189">Serveur Web</text><text fill="#000000" font-family="sans-serif" font-size="11" lengthAdjust="spacing" textLength="36.0615" x="145" y="199.7549">(React)</text></g><!--entity API--><g class="entity" data-qualified-name="API" data-source-line="14" id="ent0004"><polygon fill="#E8F4FD" points="129.5,297.5,139.5,287.5,234.3076,287.5,234.3076,335.1719,224.3076,345.1719,129.5,345.1719,129.5,297.5" style="stroke:#2E75B6;stroke-width:0.5;"/><line style="stroke:#2E75B6;stroke-width:0.5;" x1="224.3076" x2="234.3076" y1="297.5" y2="287.5"/><line style="stroke:#2E75B6;stroke-width:0.5;" x1="129.5" x2="224.3076" y1="297.5" y2="297.5"/><line style="stroke:#2E75B6;stroke-width:0.5;" x1="224.3076" x2="224.3076" y1="297.5" y2="345.1719"/><text fill="#000000" font-family="sans-serif" font-size="11" lengthAdjust="spacing" textLength="59.3022" x="144.5" y="318.9189">Serveur API</text><text fill="#000000" font-family="sans-serif" font-size="11" lengthAdjust="spacing" textLength="64.8076" x="144.5" y="332.7549">(Spring Boot)</text></g><!--entity DB--><g class="entity" data-qualified-name="DB" data-source-line="15" id="ent0005"><path d="M6,430.5 C6,420.5 58.813,420.5 58.813,420.5 C58.813,420.5 111.626,420.5 111.626,430.5 L111.626,467.1719 C111.626,477.1719 58.813,477.1719 58.813,477.1719 C58.813,477.1719 6,477.1719 6,467.1719 L6,430.5" fill="#E8F4FD" style="stroke:#2E75B6;stroke-width:0.5;"/><path d="M6,430.5 C6,440.5 58.813,440.5 58.813,440.5 C58.813,440.5 111.626,440.5 111.626,430.5" fill="none" style="stroke:#2E75B6;stroke-width:0.5;"/><text fill="#000000" font-family="sans-serif" font-size="11" lengthAdjust="spacing" textLength="85.626" x="16" y="455.9189">Base de donn&#233;es</text><text fill="#000000" font-family="sans-serif" font-size="11" lengthAdjust="spacing" textLength="67.2461" x="16" y="469.7549">(PostgreSQL)</text></g><!--entity Stripe--><g class="entity" data-qualified-name="Stripe" data-source-line="16" id="ent0006"><rect fill="#EEF4FB" height="47.6719" rx="2.5" ry="2.5" style="stroke:#2E75B6;stroke-width:0.5;" width="69.5215" x="147" y="425"/><text fill="#000000" font-family="sans-serif" font-size="11" lengthAdjust="spacing" textLength="49.5215" x="157" y="446.4189">Stripe API</text><text fill="#000000" font-family="sans-serif" font-size="11" lengthAdjust="spacing" textLength="44.0161" x="157" y="460.2549">(externe)</text></g><!--entity SMTP--><g class="entity" data-qualified-name="SMTP" data-source-line="17" id="ent0007"><rect fill="#EEF4FB" height="47.6719" rx="2.5" ry="2.5" style="stroke:#2E75B6;stroke-width:0.5;" width="64.0161" x="252" y="425"/><text fill="#000000" font-family="sans-serif" font-size="11" lengthAdjust="spacing" textLength="30.5562" x="262" y="446.4189">SMTP</text><text fill="#000000" font-family="sans-serif" font-size="11" lengthAdjust="spacing" textLength="44.0161" x="262" y="460.2549">(externe)</text></g><!--link Client to Web--><g class="link" data-entity-1="ent0002" data-entity-2="ent0003" data-link-type="dependency" data-source-line="19" id="lnk8"><path d="M182,79.66 C182,102.99 182,126.88 182,148.42" fill="none" id="Client-to-Web" style="stroke:#2E75B6;stroke-width:1;"/><polygon fill="#2E75B6" points="182,154.42,186,145.42,182,149.42,178,145.42,182,154.42" style="stroke:#2E75B6;stroke-width:1;"/><text fill="#000000" font-family="sans-serif" font-size="11" lengthAdjust="spacing" textLength="36.0562" x="183" y="121.9189">HTTPS</text></g><!--link Web to API--><g class="link" data-entity-1="ent0003" data-entity-2="ent0004" data-link-type="dependency" data-source-line="20" id="lnk9"><path d="M182,212.6 C182,234.71 182,259.35 182,281.44" fill="none" id="Web-to-API" style="stroke:#2E75B6;stroke-width:1;"/><polygon fill="#2E75B6" points="182,287.44,186,278.44,182,282.44,178,278.44,182,287.44" style="stroke:#2E75B6;stroke-width:1;"/><text fill="#000000" font-family="sans-serif" font-size="11" lengthAdjust="spacing" textLength="61.73" x="183" y="254.9189">REST/JSON</text></g><!--link API to DB--><g class="link" data-entity-1="ent0004" data-entity-2="ent0005" data-link-type="dependency" data-source-line="21" id="lnk10"><path d="M155.31,345.82 C134.54,367.86 109.9863,393.9147 89.3263,415.8247" fill="none" id="API-to-DB" style="stroke:#2E75B6;stroke-width:1;"/><polygon fill="#2E75B6" points="85.21,420.19,94.2947,416.3862,88.6402,416.5522,88.4742,410.8978,85.21,420.19" style="stroke:#2E75B6;stroke-width:1;"/><text fill="#000000" font-family="sans-serif" font-size="11" lengthAdjust="spacing" textLength="22.0107" x="126" y="387.9189">SQL</text></g><!--link API to Stripe--><g class="link" data-entity-1="ent0004" data-entity-2="ent0006" data-link-type="dependency" data-source-line="22" id="lnk11"><path d="M182,345.82 C182,369.5 182,396.88 182,418.96" fill="none" id="API-to-Stripe" style="stroke:#2E75B6;stroke-width:1;"/><polygon fill="#2E75B6" points="182,424.96,186,415.96,182,419.96,178,415.96,182,424.96" style="stroke:#2E75B6;stroke-width:1;"/><text fill="#000000" font-family="sans-serif" font-size="11" lengthAdjust="spacing" textLength="36.0562" x="183" y="387.9189">HTTPS</text></g><!--link API to SMTP--><g class="link" data-entity-1="ent0004" data-entity-2="ent0007" data-link-type="dependency" data-source-line="23" id="lnk12"><path d="M204.53,345.76 C212.03,355.2 220.4,365.78 228,375.5 C240.84,391.91 251.54,405.7556 262.51,420.0056" fill="none" id="API-to-SMTP" style="stroke:#2E75B6;stroke-width:1;"/><polygon fill="#2E75B6" points="266.17,424.76,263.8495,415.1884,263.12,420.798,257.5104,420.0685,266.17,424.76" style="stroke:#2E75B6;stroke-width:1;"/><text fill="#000000" font-family="sans-serif" font-size="11" lengthAdjust="spacing" textLength="36.0562" x="239" y="387.9189">HTTPS</text></g><?plantuml-src XP1DJiCm44RtFeKLDh2eK15_Oe64srI0e8Gw4XisqteQeWQx6hijuaQSWuin9caeLAARo7xpvlDC_AoqSo1ubGQdiAZ2mDcWotUKtQxmRT6_W76hqXPo2fN7ZSeLaLlrNEL8xXsbPoVgTADedK7bo23zQy1aLf1RMDDOwVdWUD3Vi0m468FVaTLQE_C89m5iKUq8_D6s4bDEL4B09F0r6SAoB23WWcIlAj66H89lZaB47MMYaPPHUCBnizqV8RSUV6iC_YXNsGqhUaxnXold6f6nMEye4nM_t6MSjPyVwBaZSpuKXFhnhcxeAz6kmEc1oZasuVWMa2pMNbtvvTxdsPR5J8XwATdfNCR1vOMyplDCYtYEZDEPZLAT7zxgXw68zyZxYZ4Fre9ccdL_Y_cH5du1?></g></svg>