<?xml version="1.0" encoding="us-ascii" standalone="no"?><svg xmlns="http://www.w3.org/2000/svg" xmlns:xlink="http://www.w3.org/1999/xlink" contentStyleType="text/css" height="331px" preserveAspectRatio="none" style="width:746px;height:331px;background:#FFFFFF;" version="1.1" viewBox="0 0 746 331" width="746px" zoomAndPan="magnify"><defs/><g><!--entity Buyer--><g id="elem_Buyer"><ellipse cx="38" cy="33" fill="#F1F1F1" rx="8" ry="8" style="stroke:#181818;stroke-width:0.5;"/><path d="M38,41 L38,68 M25,49 L51,49 M38,68 L25,83 M38,68 L51,83 " fill="none" style="stroke:#181818;stroke-width:0.5;"/><text fill="#000000" font-family="sans-serif" font-size="11" lengthAdjust="spacing" textLength="29" x="23.5" y="95.9189">Buyer</text></g><!--entity Vendor--><g id="elem_Vendor"><ellipse cx="38" cy="142" fill="#F1F1F1" rx="8" ry="8" style="stroke:#181818;stroke-width:0.5;"/><path d="M38,150 L38,177 M25,158 L51,158 M38,177 L25,192 M38,177 L51,192 " fill="none" style="stroke:#181818;stroke-width:0.5;"/><text fill="#000000" font-family="sans-serif" font-size="11" lengthAdjust="spacing" textLength="36" x="20" y="204.9189">Vendor</text></g><!--entity Admin--><g id="elem_Admin"><ellipse cx="38" cy="251" fill="#F1F1F1" rx="8" ry="8" style="stroke:#181818;stroke-width:0.5;"/><path d="M38,259 L38,286 M25,267 L51,267 M38,286 L25,301 M38,286 L51,301 " fill="none" style="stroke:#181818;stroke-width:0.5;"/><text fill="#000000" font-family="sans-serif" font-size="11" lengthAdjust="spacing" textLength="64" x="6" y="313.9189">Administrator</text></g><!--entity FrontB--><g id="elem_FrontB"><polygon fill="#E8F4FD" points="172,36.5,182,26.5,285,26.5,285,88.0078,275,98.0078,172,98.0078,172,36.5" style="stroke:#2E75B6;stroke-width:0.5;"/><line style="stroke:#2E75B6;stroke-width:0.5;" x1="275" x2="285" y1="36.5" y2="26.5"/><line style="stroke:#2E75B6;stroke-width:0.5;" x1="172" x2="275" y1="36.5" y2="36.5"/><line style="stroke:#2E75B6;stroke-width:0.5;" x1="275" x2="275" y1="36.5" y2="98.0078"/><text fill="#000000" font-family="sans-serif" font-size="11" lengthAdjust="spacing" textLength="46" x="187" y="57.9189">Container</text><text fill="#000000" font-family="sans-serif" font-size="11" lengthAdjust="spacing" textLength="59" x="187" y="71.7549">buyer-portal</text><text fill="#000000" font-family="sans-serif" font-size="11" lengthAdjust="spacing" textLength="73" x="187" y="85.5908">(React &#183; Nginx)</text></g><!--entity FrontV--><g id="elem_FrontV"><polygon fill="#E8F4FD" points="164,144.5,174,134.5,293,134.5,293,196.0078,283,206.0078,164,206.0078,164,144.5" style="stroke:#2E75B6;stroke-width:0.5;"/><line style="stroke:#2E75B6;stroke-width:0.5;" x1="283" x2="293" y1="144.5" y2="134.5"/><line style="stroke:#2E75B6;stroke-width:0.5;" x1="164" x2="283" y1="144.5" y2="144.5"/><line style="stroke:#2E75B6;stroke-width:0.5;" x1="283" x2="283" y1="144.5" y2="206.0078"/><text fill="#000000" font-family="sans-serif" font-size="11" lengthAdjust="spacing" textLength="46" x="179" y="165.9189">Container</text><text fill="#000000" font-family="sans-serif" font-size="11" lengthAdjust="spacing" textLength="89" x="179" y="179.7549">vendor-backoffice</text><text fill="#000000" font-family="sans-serif" font-size="11" lengthAdjust="spacing" textLength="73" x="179" y="193.5908">(React &#183; Nginx)</text></g><!--entity FrontA--><g id="elem_FrontA"><polygon fill="#E8F4FD" points="172,252.5,182,242.5,285,242.5,285,304.0078,275,314.0078,172,314.0078,172,252.5" style="stroke:#2E75B6;stroke-width:0.5;"/><line style="stroke:#2E75B6;stroke-width:0.5;" x1="275" x2="285" y1="252.5" y2="242.5"/><line style="stroke:#2E75B6;stroke-width:0.5;" x1="172" x2="275" y1="252.5" y2="252.5"/><line style="stroke:#2E75B6;stroke-width:0.5;" x1="275" x2="275" y1="252.5" y2="314.0078"/><text fill="#000000" font-family="sans-serif" font-size="11" lengthAdjust="spacing" textLength="46" x="187" y="273.9189">Container</text><text fill="#000000" font-family="sans-serif" font-size="11" lengthAdjust="spacing" textLength="70" x="187" y="287.7549">admin-console</text><text fill="#000000" font-family="sans-serif" font-size="11" lengthAdjust="spacing" textLength="73" x="187" y="301.5908">(React &#183; Nginx)</text></g><!--entity API--><g id="elem_API"><polygon fill="#E8F4FD" points="374,144.5,384,134.5,478,134.5,478,196.0078,468,206.0078,374,206.0078,374,144.5" style="stroke:#2E75B6;stroke-width:0.5;"/><line style="stroke:#2E75B6;stroke-width:0.5;" x1="468" x2="478" y1="144.5" y2="134.5"/><line style="stroke:#2E75B6;stroke-width:0.5;" x1="374" x2="468" y1="144.5" y2="144.5"/><line style="stroke:#2E75B6;stroke-width:0.5;" x1="468" x2="468" y1="144.5" y2="206.0078"/><text fill="#000000" font-family="sans-serif" font-size="11" lengthAdjust="spacing" textLength="46" x="389" y="165.9189">Container</text><text fill="#000000" font-family="sans-serif" font-size="11" lengthAdjust="spacing" textLength="41" x="389" y="179.7549">backend</text><text fill="#000000" font-family="sans-serif" font-size="11" lengthAdjust="spacing" textLength="64" x="389" y="193.5908">(Spring Boot)</text></g><!--entity DB--><g id="elem_DB"><path d="M636,16 C636,6 682.5,6 682.5,6 C682.5,6 729,6 729,16 L729,52.6719 C729,62.6719 682.5,62.6719 682.5,62.6719 C682.5,62.6719 636,62.6719 636,52.6719 L636,16 " fill="#E8F4FD" style="stroke:#2E75B6;stroke-width:0.5;"/><path d="M636,16 C636,26 682.5,26 682.5,26 C682.5,26 729,26 729,16 " fill="none" style="stroke:#2E75B6;stroke-width:0.5;"/><text fill="#000000" font-family="sans-serif" font-size="11" lengthAdjust="spacing" textLength="46" x="646" y="41.4189">Container</text><text fill="#000000" font-family="sans-serif" font-size="11" lengthAdjust="spacing" textLength="73" x="646" y="55.2549">PostgreSQL 16</text></g><!--entity Redis--><g id="elem_Redis"><path d="M649.5,108 C649.5,98 682.5,98 682.5,98 C682.5,98 715.5,98 715.5,108 L715.5,144.6719 C715.5,154.6719 682.5,154.6719 682.5,154.6719 C682.5,154.6719 649.5,154.6719 649.5,144.6719 L649.5,108 " fill="#E8F4FD" style="stroke:#2E75B6;stroke-width:0.5;"/><path d="M649.5,108 C649.5,118 682.5,118 682.5,118 C682.5,118 715.5,118 715.5,108 " fill="none" style="stroke:#2E75B6;stroke-width:0.5;"/><text fill="#000000" font-family="sans-serif" font-size="11" lengthAdjust="spacing" textLength="46" x="659.5" y="133.4189">Container</text><text fill="#000000" font-family="sans-serif" font-size="11" lengthAdjust="spacing" textLength="36" x="659.5" y="147.2549">Redis 7</text></g><!--entity Stripe--><g id="elem_Stripe"><rect fill="#EEF4FB" height="47.6719" rx="2.5" ry="2.5" style="stroke:#2E75B6;stroke-width:0.5;" width="67" x="649" y="190.5"/><text fill="#000000" font-family="sans-serif" font-size="11" lengthAdjust="spacing" textLength="47" x="659" y="211.9189">Stripe API</text><text fill="#000000" font-family="sans-serif" font-size="11" lengthAdjust="spacing" textLength="47" x="659" y="225.7549">(external)</text></g><!--entity SMTP--><g id="elem_SMTP"><rect fill="#EEF4FB" height="47.6719" rx="2.5" ry="2.5" style="stroke:#2E75B6;stroke-width:0.5;" width="67" x="649" y="273.5"/><text fill="#000000" font-family="sans-serif" font-size="11" lengthAdjust="spacing" textLength="45" x="659" y="294.9189">SendGrid</text><text fill="#000000" font-family="sans-serif" font-size="11" lengthAdjust="spacing" textLength="47" x="659" y="308.7549">(external)</text></g><!--link Buyer to FrontB--><g id="link_Buyer_FrontB"><path d="M52.56,61.57 C77.12,61.7 124.2801,61.948 165.5901,62.168 " fill="none" id="Buyer-to-FrontB" style="stroke:#2E75B6;stroke-width:1.0;"/><polygon fill="#2E75B6" points="171.59,62.2,162.6114,58.1521,166.5901,62.1734,162.5688,66.152,171.59,62.2" style="stroke:#2E75B6;stroke-width:1.0;"/><text fill="#000000" font-family="sans-serif" font-size="11" lengthAdjust="spacing" textLength="32" x="101" y="59.9189">HTTPS</text></g><!--link Vendor to FrontV--><g id="link_Vendor_FrontV"><path d="M56.06,170.5 C80.26,170.5 119.84,170.5 157.92,170.5 " fill="none" id="Vendor-to-FrontV" style="stroke:#2E75B6;stroke-width:1.0;"/><polygon fill="#2E75B6" points="163.92,170.5,154.92,166.5,158.92,170.5,154.92,174.5,163.92,170.5" style="stroke:#2E75B6;stroke-width:1.0;"/><text fill="#000000" font-family="sans-serif" font-size="11" lengthAdjust="spacing" textLength="32" x="101" y="167.9189">HTTPS</text></g><!--link Admin to FrontA--><g id="link_Admin_FrontA"><path d="M70.13,279.33 C97.73,279.19 132.7101,279.0025 165.9301,278.8225 " fill="none" id="Admin-to-FrontA" style="stroke:#2E75B6;stroke-width:1.0;"/><polygon fill="#2E75B6" points="171.93,278.79,162.9085,274.8388,166.9301,278.8171,162.9518,282.8387,171.93,278.79" style="stroke:#2E75B6;stroke-width:1.0;"/><text fill="#000000" font-family="sans-serif" font-size="11" lengthAdjust="spacing" textLength="32" x="101" y="275.9189">HTTPS</text></g><!--link FrontB to API--><g id="link_FrontB_API"><path d="M285.26,93.3 C313.14,108.7 341.388,124.3089 368.598,139.3389 " fill="none" id="FrontB-to-API" style="stroke:#2E75B6;stroke-width:1.0;"/><polygon fill="#2E75B6" points="373.85,142.24,367.906,134.387,369.4733,139.8224,364.0379,141.3898,373.85,142.24" style="stroke:#2E75B6;stroke-width:1.0;"/><text fill="#000000" font-family="sans-serif" font-size="11" lengthAdjust="spacing" textLength="19" x="324" y="113.9189">TLS</text></g><!--link FrontV to API--><g id="link_FrontV_API"><path d="M293.24,170.5 C319.32,170.5 343.08,170.5 367.71,170.5 " fill="none" id="FrontV-to-API" style="stroke:#2E75B6;stroke-width:1.0;"/><polygon fill="#2E75B6" points="373.71,170.5,364.71,166.5,368.71,170.5,364.71,174.5,373.71,170.5" style="stroke:#2E75B6;stroke-width:1.0;"/><text fill="#000000" font-family="sans-serif" font-size="11" lengthAdjust="spacing" textLength="19" x="324" y="167.9189">TLS</text></g><!--link FrontA to API--><g id="link_FrontA_API"><path d="M285.26,247.7 C313.14,232.3 341.388,216.6911 368.598,201.6611 " fill="none" id="FrontA-to-API" style="stroke:#2E75B6;stroke-width:1.0;"/><polygon fill="#2E75B6" points="373.85,198.76,364.0379,199.6102,369.4733,201.1776,367.906,206.613,373.85,198.76" style="stroke:#2E75B6;stroke-width:1.0;"/><text fill="#000000" font-family="sans-serif" font-size="11" lengthAdjust="spacing" textLength="19" x="324" y="215.9189">TLS</text></g><!--link API to DB--><g id="link_API_DB"><path d="M478.29,136.27 C488.03,130.14 498.23,123.97 508,118.5 C550.33,94.78 594.9119,73.4719 630.3519,57.2919 " fill="none" id="API-to-DB" style="stroke:#2E75B6;stroke-width:1.0;"/><polygon fill="#2E75B6" points="635.81,54.8,625.9616,54.8991,631.2616,56.8766,629.2841,62.1765,635.81,54.8" style="stroke:#2E75B6;stroke-width:1.0;"/><text fill="#000000" font-family="sans-serif" font-size="11" lengthAdjust="spacing" textLength="96" x="509" y="66.9189">SQL (JPA / Flyway)</text></g><!--link API to Redis--><g id="link_API_Redis"><path d="M478.2,161.65 C529.29,152.82 600.3077,140.532 643.4077,133.082 " fill="none" id="API-to-Redis" style="stroke:#2E75B6;stroke-width:1.0;"/><polygon fill="#2E75B6" points="649.32,132.06,639.7702,129.6514,644.3931,132.9116,641.1328,137.5345,649.32,132.06" style="stroke:#2E75B6;stroke-width:1.0;"/><text fill="#000000" font-family="sans-serif" font-size="11" lengthAdjust="spacing" textLength="84" x="515" y="138.9189">cache &#183; sessions</text></g><!--link API to Stripe--><g id="link_API_Stripe"><path d="M478.2,179.35 C529.14,188.16 599.8777,200.3881 643.0377,207.8481 " fill="none" id="API-to-Stripe" style="stroke:#2E75B6;stroke-width:1.0;"/><polygon fill="#2E75B6" points="648.95,208.87,640.7628,203.3956,644.0231,208.0184,639.4002,211.2787,648.95,208.87" style="stroke:#2E75B6;stroke-width:1.0;"/><text fill="#000000" font-family="sans-serif" font-size="11" lengthAdjust="spacing" textLength="32" x="541" y="182.9189">HTTPS</text></g><!--link API to SMTP--><g id="link_API_SMTP"><path d="M478.03,205.82 C487.79,212.03 498.07,218.19 508,223.5 C555.35,248.84 607.6284,269.9565 643.1184,283.3865 " fill="none" id="API-to-SMTP" style="stroke:#2E75B6;stroke-width:1.0;"/><polygon fill="#2E75B6" points="648.73,285.51,641.7282,278.5836,644.0536,283.7404,638.8968,286.0658,648.73,285.51" style="stroke:#2E75B6;stroke-width:1.0;"/><text fill="#000000" font-family="sans-serif" font-size="11" lengthAdjust="spacing" textLength="32" x="541" y="220.9189">HTTPS</text></g><!--SRC=[XL9BRnen4BxxLupe9JciAgesgJXKsWri7qghRHPnoiMiPnShZet6feJ-iTxxosfx7v22m2VhUyrunlP9wZKd_Wm2QxvHBZVQbV8tmdZCx43Q5HTcAtK3DLSM3vYKo6plZ384RzxDRZzaDmUaDW8pGmBfh89NJmsPZHQTQlOnVvzF3rI2ExxazaBMeBgOHrWvhXjr8N0lEqgS-SICCOMr0sU0PBDo86HmIACPuvNpkb6ssI6De3_SGaHwUe5Qc3tlwHRf-LGyIosj8-w2pFCHOIoC3KPtVbTSQgH7lGonoTgGu-fHNpsWJu2_V-178_NBTRJcvENPiVLNB9ai_HjDNSiAp_aNntuUMaegewrHPxtfYRPzKL_UkyerXU-L6UDQIrfyPVr6NtaAOrr3MFwyX_5Db4wpqye75DB2RTJ4Enis2gFIaLnZAEEhuuj3qborfLlgbTWt-PcaE9P-dnUCnQK29CcdRiemWI_pUL6oTfzxPZ4mSPC7ddHWM9SHAD-Un-Vt9Uli9y3qFv25Qu2cMVXL4mYZklfMfF0MShNRyjtr86b7D86ALoiCIxDehV_1Tb1qSnhQxc7_y1ZUmly0]--></g></svg>