<?plantuml 1.2026.2?><svg xmlns="http://www.w3.org/2000/svg" xmlns:xlink="http://www.w3.org/1999/xlink" contentStyleType="text/css" data-diagram-type="DESCRIPTION" height="199px" preserveAspectRatio="none" style="width:706px;height:199px;background:#FFFFFF;" version="1.1" viewBox="0 0 706 199" width="706px" zoomAndPan="magnify"><defs/><g><!--cluster Online Shop System--><g class="cluster" data-qualified-name="Online Shop System" data-source-line="5" id="ent0004"><rect fill="none" height="86" rx="2.5" ry="2.5" style="stroke:#181818;stroke-width:1;" width="693" x="7" y="107.5"/><text fill="#000000" font-family="sans-serif" font-size="14" font-weight="bold" lengthAdjust="spacing" textLength="136.1377" x="285.4312" y="124.0332">Online Shop System</text></g><!--entity Browse--><g class="entity" data-qualified-name="Online Shop System.Browse" data-source-line="6" id="ent0005"><ellipse cx="299.0096" cy="160.4517" fill="#F1F1F1" rx="36.0096" ry="15.4517" style="stroke:#181818;stroke-width:0.5;"/><text fill="#000000" font-family="sans-serif" font-size="14" lengthAdjust="spacing" textLength="46.6826" x="275.6683" y="165.7564">Browse</text></g><!--entity AddCart--><g class="entity" data-qualified-name="Online Shop System.AddCart" data-source-line="7" id="ent0006"><ellipse cx="187.8159" cy="160.4517" fill="#F1F1F1" rx="39.3159" ry="15.4517" style="stroke:#181818;stroke-width:0.5;"/><text fill="#000000" font-family="sans-serif" font-size="14" lengthAdjust="spacing" textLength="51.3584" x="162.1367" y="165.7564">AddCart</text></g><!--entity Checkout--><g class="entity" data-qualified-name="Online Shop System.Checkout" data-source-line="8" id="ent0007"><ellipse cx="67.8215" cy="160.4517" fill="#F1F1F1" rx="44.8215" ry="15.4517" style="stroke:#181818;stroke-width:0.5;"/><text fill="#000000" font-family="sans-serif" font-size="14" lengthAdjust="spacing" textLength="59.1445" x="38.2492" y="165.7564">Checkout</text></g><!--entity Process Payment--><g class="entity" data-qualified-name="Online Shop System.Process Payment" data-source-line="9" id="ent0008"><ellipse cx="443.8359" cy="160.5672" fill="#F1F1F1" rx="73.3359" ry="17.0672" style="stroke:#181818;stroke-width:0.5;"/><text fill="#000000" font-family="sans-serif" font-size="14" lengthAdjust="spacing" textLength="109.71" x="388.9809" y="165.8719">Process Payment</text></g><!--entity Confirm Order--><g class="entity" data-qualified-name="Online Shop System.Confirm Order" data-source-line="10" id="ent0009"><ellipse cx="617.9837" cy="160.4967" fill="#F1F1F1" rx="65.4837" ry="15.4967" style="stroke:#181818;stroke-width:0.5;"/><text fill="#000000" font-family="sans-serif" font-size="14" lengthAdjust="spacing" textLength="88.6826" x="573.6424" y="165.8014">Confirm Order</text></g><!--entity Client--><g class="entity" data-qualified-name="Client" data-source-line="3" id="ent0002"><ellipse cx="187.8965" cy="14" fill="#F1F1F1" rx="8" ry="8" style="stroke:#181818;stroke-width:0.5;"/><path d="M187.8965,22 L187.8965,49 M174.8965,30 L200.8965,30 M187.8965,49 L174.8965,64 M187.8965,49 L200.8965,64" fill="none" style="stroke:#181818;stroke-width:0.5;"/><text fill="#000000" font-family="sans-serif" font-size="14" lengthAdjust="spacing" textLength="35.793" x="170" y="80.0332">Client</text></g><!--entity Payment--><g class="entity" data-qualified-name="Payment" data-source-line="4" id="ent0003"><ellipse cx="530.979" cy="14" fill="#F1F1F1" rx="8" ry="8" style="stroke:#181818;stroke-width:0.5;"/><path d="M530.979,22 L530.979,49 M517.979,30 L543.979,30 M530.979,49 L517.979,64 M530.979,49 L543.979,64" fill="none" style="stroke:#181818;stroke-width:0.5;"/><text fill="#000000" font-family="sans-serif" font-size="14" lengthAdjust="spacing" textLength="136.958" x="462.5" y="80.0332">Syst&#232;me de Paiement</text></g><!--link Client to Browse--><g class="link" data-entity-1="ent0002" data-entity-2="ent0005" data-link-type="dependency" data-source-line="12" id="lnk10"><path d="M206.07,61.93 C217.45,72.45 232.35,86.52 245,99.5 C259.87,114.75 272.1788,128.5259 282.9288,140.8659" fill="none" id="Client-to-Browse" style="stroke:#181818;stroke-width:1;"/><polygon fill="#181818" points="286.87,145.39,283.9743,135.9764,283.5857,141.6199,277.9422,141.2313,286.87,145.39" style="stroke:#181818;stroke-width:1;"/></g><!--link Client to AddCart--><g class="link" data-entity-1="ent0002" data-entity-2="ent0006" data-link-type="dependency" data-source-line="13" id="lnk11"><path d="M188,83.78 C188,104.74 188,123.49 188,138.85" fill="none" id="Client-to-AddCart" style="stroke:#181818;stroke-width:1;"/><polygon fill="#181818" points="188,144.85,192,135.85,188,139.85,184,135.85,188,144.85" style="stroke:#181818;stroke-width:1;"/></g><!--link Client to Checkout--><g class="link" data-entity-1="ent0002" data-entity-2="ent0007" data-link-type="dependency" data-source-line="14" id="lnk12"><path d="M169.76,62.75 C158.57,73.35 143.95,87.2 131,99.5 C114.35,115.31 99.6135,129.3606 86.8435,141.5306" fill="none" id="Client-to-Checkout" style="stroke:#181818;stroke-width:1;"/><polygon fill="#181818" points="82.5,145.67,91.7748,142.3566,86.1195,142.2205,86.2556,136.5653,82.5,145.67" style="stroke:#181818;stroke-width:1;"/></g><!--link Process Payment to Payment--><g class="link" data-entity-1="ent0008" data-entity-2="ent0003" data-link-type="dependency" data-source-line="15" id="lnk13"><path d="M456.06,143.69 C467.83,128.27 482.5498,108.9896 498.1498,88.5496" fill="none" id="Process Payment-to-Payment" style="stroke:#181818;stroke-width:1;"/><polygon fill="#181818" points="501.79,83.78,493.15,88.5076,498.7565,87.7547,499.5094,93.3612,501.79,83.78" style="stroke:#181818;stroke-width:1;"/></g><!--link Payment to Confirm Order--><g class="link" data-entity-1="ent0003" data-entity-2="ent0009" data-link-type="dependency" data-source-line="16" id="lnk14"><path d="M560.21,83.78 C576.3,104.86 591.6898,125.0304 603.3898,140.3604" fill="none" id="Payment-to-Confirm Order" style="stroke:#181818;stroke-width:1;"/><polygon fill="#181818" points="607.03,145.13,604.7494,135.5488,603.9965,141.1553,598.39,140.4024,607.03,145.13" style="stroke:#181818;stroke-width:1;"/></g><?plantuml-src POyz3i8m34RtdC9qeWCx4n9K8B5Gf32nHObB8ve4EQbGGTo7Ut0nMYZz4PFjPtzwyaHXfYt29jqT-FQuXZdpPsqlWeI1pDd0zQtVCY638qWAZJQqGyGh7rvFWw0GzaAZgNSH25yFLTCpGXc4FHK8KMgBniPpTu4cXoQ2EmCeFKhX4QOhSbUFyH0jbKe4XH5BSfHdLuxXdfn4ttd70MSpJGPIKaWnUx3l3p2RBNhfa7NM8UorVxBFmU_ZjhQXaVeD?></g></svg>