<?plantuml 1.2026.2?><svg xmlns="http://www.w3.org/2000/svg" xmlns:xlink="http://www.w3.org/1999/xlink" contentStyleType="text/css" data-diagram-type="DESCRIPTION" height="757px" preserveAspectRatio="none" style="width:784px;height:757px;background:#FFFFFF;" version="1.1" viewBox="0 0 784 757" width="784px" zoomAndPan="magnify"><defs/><g><!--cluster Syst?me ? Application e-commerce--><g class="cluster" data-qualified-name="Syst.me . Application e-commerce" data-source-line="18" id="ent0007"><rect fill="#EEF4FB" height="656" rx="2.5" ry="2.5" style="stroke:#2E75B6;stroke-width:1;" width="603" x="84" y="7"/><text fill="#000000" font-family="sans-serif" font-size="9" font-weight="bold" lengthAdjust="spacing" textLength="155.8345" x="307.5828" y="18.3428">Syst&#232;me &#8212; Application e-commerce</text></g><!--cluster Comptes--><g class="cluster" data-qualified-name="Syst.me . Application e-commerce.Comptes" data-source-line="19" id="ent0008"><path d="M110.5,45 L150.0049,45 A3.75,3.75 0 0 1 152.5049,47.5 L159.5049,62.3203 L224.5,62.3203 A2.5,2.5 0 0 1 227,64.8203 L227,210.5 A2.5,2.5 0 0 1 224.5,213 L110.5,213 A2.5,2.5 0 0 1 108,210.5 L108,47.5 A2.5,2.5 0 0 1 110.5,45" fill="#EEF4FB" style="stroke:#2E75B6;stroke-width:1.5;"/><line style="stroke:#2E75B6;stroke-width:1.5;" x1="108" x2="159.5049" y1="62.3203" y2="62.3203"/><text fill="#000000" font-family="sans-serif" font-size="9" font-weight="bold" lengthAdjust="spacing" textLength="38.5049" x="112" y="56.3428">Comptes</text></g><!--cluster Catalogue & stocks--><g class="cluster" data-qualified-name="Syst.me . Application e-commerce.Catalogue . stocks" data-source-line="23" id="ent0011"><path d="M396.5,393 L481.0225,393 A3.75,3.75 0 0 1 483.5225,395.5 L490.5225,410.3203 L513.5,410.3203 A2.5,2.5 0 0 1 516,412.8203 L516,636.5 A2.5,2.5 0 0 1 513.5,639 L396.5,639 A2.5,2.5 0 0 1 394,636.5 L394,395.5 A2.5,2.5 0 0 1 396.5,393" fill="#EEF4FB" style="stroke:#2E75B6;stroke-width:1.5;"/><line style="stroke:#2E75B6;stroke-width:1.5;" x1="394" x2="490.5225" y1="410.3203" y2="410.3203"/><text fill="#000000" font-family="sans-serif" font-size="9" font-weight="bold" lengthAdjust="spacing" textLength="83.5225" x="398" y="404.3428">Catalogue &amp; stocks</text></g><!--cluster Exp?rience achat--><g class="cluster" data-qualified-name="Syst.me . Application e-commerce.Exp.rience achat" data-source-line="28" id="ent0015"><path d="M257.5,45 L332.5391,45 A3.75,3.75 0 0 1 335.0391,47.5 L342.0391,62.3203 L497.5,62.3203 A2.5,2.5 0 0 1 500,64.8203 L500,366.5 A2.5,2.5 0 0 1 497.5,369 L257.5,369 A2.5,2.5 0 0 1 255,366.5 L255,47.5 A2.5,2.5 0 0 1 257.5,45" fill="#EEF4FB" style="stroke:#2E75B6;stroke-width:1.5;"/><line style="stroke:#2E75B6;stroke-width:1.5;" x1="255" x2="342.0391" y1="62.3203" y2="62.3203"/><text fill="#000000" font-family="sans-serif" font-size="9" font-weight="bold" lengthAdjust="spacing" textLength="74.0391" x="259" y="56.3428">Exp&#233;rience achat</text></g><!--cluster Interfaces externes--><g class="cluster" data-qualified-name="Syst.me . Application e-commerce.Interfaces externes" data-source-line="35" id="ent0021"><path d="M546.5,123 L629.5459,123 A3.75,3.75 0 0 1 632.0459,125.5 L639.0459,140.3203 L660.5,140.3203 A2.5,2.5 0 0 1 663,142.8203 L663,366.5 A2.5,2.5 0 0 1 660.5,369 L546.5,369 A2.5,2.5 0 0 1 544,366.5 L544,125.5 A2.5,2.5 0 0 1 546.5,123" fill="#EEF4FB" style="stroke:#2E75B6;stroke-width:1.5;"/><line style="stroke:#2E75B6;stroke-width:1.5;" x1="544" x2="639.0459" y1="140.3203" y2="140.3203"/><text fill="#000000" font-family="sans-serif" font-size="9" font-weight="bold" lengthAdjust="spacing" textLength="82.0459" x="548" y="134.3428">Interfaces externes</text></g><!--entity A01--><g class="entity" data-qualified-name="Syst.me . Application e-commerce.Comptes.A01" data-source-line="20" id="ent0009"><rect fill="#FEFEFE" height="42.6406" rx="2.5" ry="2.5" style="stroke:#2E75B6;stroke-width:0.5;" width="86.5244" x="124" y="75.5"/><text fill="#000000" font-family="sans-serif" font-size="9" lengthAdjust="spacing" textLength="30.5112" x="134" y="94.8428">FS-A01</text><text fill="#000000" font-family="sans-serif" font-size="9" lengthAdjust="spacing" textLength="66.5244" x="134" y="106.1631">Comptes &amp; r&#244;les</text></g><!--entity A05--><g class="entity" data-qualified-name="Syst.me . Application e-commerce.Comptes.A05" data-source-line="21" id="ent0010"><rect fill="#FEFEFE" height="42.6406" rx="2.5" ry="2.5" style="stroke:#2E75B6;stroke-width:0.5;" width="71.5347" x="131.5" y="153.5"/><text fill="#000000" font-family="sans-serif" font-size="9" lengthAdjust="spacing" textLength="30.5112" x="141.5" y="172.8428">FS-A05</text><text fill="#000000" font-family="sans-serif" font-size="9" lengthAdjust="spacing" textLength="51.5347" x="141.5" y="184.1631">Maintenance</text></g><!--entity V02--><g class="entity" data-qualified-name="Syst.me . Application e-commerce.Catalogue . stocks.V02" data-source-line="24" id="ent0012"><rect fill="#FEFEFE" height="42.6406" rx="2.5" ry="2.5" style="stroke:#2E75B6;stroke-width:0.5;" width="89.5303" x="410" y="423.5"/><text fill="#000000" font-family="sans-serif" font-size="9" lengthAdjust="spacing" textLength="30.5112" x="420" y="442.8428">FS-V02</text><text fill="#000000" font-family="sans-serif" font-size="9" lengthAdjust="spacing" textLength="69.5303" x="420" y="454.1631">Catalogue CRUD</text></g><!--entity V04--><g class="entity" data-qualified-name="Syst.me . Application e-commerce.Catalogue . stocks.V04" data-source-line="25" id="ent0013"><rect fill="#FEFEFE" height="42.6406" rx="2.5" ry="2.5" style="stroke:#2E75B6;stroke-width:0.5;" width="71.0205" x="419.5" y="501.5"/><text fill="#000000" font-family="sans-serif" font-size="9" lengthAdjust="spacing" textLength="30.5112" x="429.5" y="520.8428">FS-V04</text><text fill="#000000" font-family="sans-serif" font-size="9" lengthAdjust="spacing" textLength="51.0205" x="429.5" y="532.1631">Commandes</text></g><!--entity V05--><g class="entity" data-qualified-name="Syst.me . Application e-commerce.Catalogue . stocks.V05" data-source-line="26" id="ent0014"><rect fill="#FEFEFE" height="42.6406" rx="2.5" ry="2.5" style="stroke:#2E75B6;stroke-width:0.5;" width="62.0293" x="424" y="579.5"/><text fill="#000000" font-family="sans-serif" font-size="9" lengthAdjust="spacing" textLength="30.5112" x="434" y="598.8428">FS-V05</text><text fill="#000000" font-family="sans-serif" font-size="9" lengthAdjust="spacing" textLength="42.0293" x="434" y="610.1631">Exp&#233;dition</text></g><!--entity B01--><g class="entity" data-qualified-name="Syst.me . Application e-commerce.Exp.rience achat.B01" data-source-line="29" id="ent0016"><rect fill="#FEFEFE" height="42.6406" rx="2.5" ry="2.5" style="stroke:#2E75B6;stroke-width:0.5;" width="61.0186" x="280" y="75.5"/><text fill="#000000" font-family="sans-serif" font-size="9" lengthAdjust="spacing" textLength="30.5112" x="290" y="94.8428">FS-B01</text><text fill="#000000" font-family="sans-serif" font-size="9" lengthAdjust="spacing" textLength="41.0186" x="290" y="106.1631">Inscription</text></g><!--entity B03--><g class="entity" data-qualified-name="Syst.me . Application e-commerce.Exp.rience achat.B03" data-source-line="30" id="ent0017"><rect fill="#FEFEFE" height="42.6406" rx="2.5" ry="2.5" style="stroke:#2E75B6;stroke-width:0.5;" width="61.0317" x="280" y="309.5"/><text fill="#000000" font-family="sans-serif" font-size="9" lengthAdjust="spacing" textLength="30.5112" x="290" y="328.8428">FS-B03</text><text fill="#000000" font-family="sans-serif" font-size="9" lengthAdjust="spacing" textLength="41.0317" x="290" y="340.1631">Catalogue</text></g><!--entity B06--><g class="entity" data-qualified-name="Syst.me . Application e-commerce.Exp.rience achat.B06" data-source-line="31" id="ent0018"><rect fill="#FEFEFE" height="42.6406" rx="2.5" ry="2.5" style="stroke:#2E75B6;stroke-width:0.5;" width="78.7593" x="271" y="153.5"/><text fill="#000000" font-family="sans-serif" font-size="9" lengthAdjust="spacing" textLength="30.5112" x="281" y="172.8428">FS-B06</text><text fill="#000000" font-family="sans-serif" font-size="9" lengthAdjust="spacing" textLength="58.7593" x="281" y="184.1631">Tunnel d'achat</text></g><!--entity B07--><g class="entity" data-qualified-name="Syst.me . Application e-commerce.Exp.rience achat.B07" data-source-line="32" id="ent0019"><rect fill="#FEFEFE" height="42.6406" rx="2.5" ry="2.5" style="stroke:#2E75B6;stroke-width:0.5;" width="58.0215" x="426" y="153.5"/><text fill="#000000" font-family="sans-serif" font-size="9" lengthAdjust="spacing" textLength="30.5112" x="436" y="172.8428">FS-B07</text><text fill="#000000" font-family="sans-serif" font-size="9" lengthAdjust="spacing" textLength="38.0215" x="436" y="184.1631">Paiement</text></g><!--entity B09--><g class="entity" data-qualified-name="Syst.me . Application e-commerce.Exp.rience achat.B09" data-source-line="33" id="ent0020"><rect fill="#FEFEFE" height="42.6406" rx="2.5" ry="2.5" style="stroke:#2E75B6;stroke-width:0.5;" width="62.5347" x="279" y="231.5"/><text fill="#000000" font-family="sans-serif" font-size="9" lengthAdjust="spacing" textLength="30.5112" x="289" y="250.8428">FS-B09</text><text fill="#000000" font-family="sans-serif" font-size="9" lengthAdjust="spacing" textLength="42.5347" x="289" y="262.1631">Annulation</text></g><!--entity P01--><g class="entity" data-qualified-name="Syst.me . Application e-commerce.Interfaces externes.P01" data-source-line="36" id="ent0022"><rect fill="#FEFEFE" height="42.6406" rx="2.5" ry="2.5" style="stroke:#2E75B6;stroke-width:0.5;" width="67.5269" x="569.5" y="153.5"/><text fill="#000000" font-family="sans-serif" font-size="9" lengthAdjust="spacing" textLength="30.5112" x="579.5" y="172.8428">FS-P01</text><text fill="#000000" font-family="sans-serif" font-size="9" lengthAdjust="spacing" textLength="47.5269" x="579.5" y="184.1631">Autorisation</text></g><!--entity P03--><g class="entity" data-qualified-name="Syst.me . Application e-commerce.Interfaces externes.P03" data-source-line="37" id="ent0023"><rect fill="#FEFEFE" height="42.6406" rx="2.5" ry="2.5" style="stroke:#2E75B6;stroke-width:0.5;" width="86.5288" x="560" y="231.5"/><text fill="#000000" font-family="sans-serif" font-size="9" lengthAdjust="spacing" textLength="30.5112" x="570" y="250.8428">FS-P03</text><text fill="#000000" font-family="sans-serif" font-size="9" lengthAdjust="spacing" textLength="66.5288" x="570" y="262.1631">Remboursement</text></g><!--entity C01--><g class="entity" data-qualified-name="Syst.me . Application e-commerce.Interfaces externes.C01" data-source-line="38" id="ent0024"><rect fill="#FEFEFE" height="42.6406" rx="2.5" ry="2.5" style="stroke:#2E75B6;stroke-width:0.5;" width="60.0122" x="573.5" y="309.5"/><text fill="#000000" font-family="sans-serif" font-size="9" lengthAdjust="spacing" textLength="31.0078" x="583.5" y="328.8428">FS-C01</text><text fill="#000000" font-family="sans-serif" font-size="9" lengthAdjust="spacing" textLength="40.0122" x="583.5" y="340.1631">Suivi colis</text></g><!--entity Admin--><g class="entity" data-qualified-name="Admin" data-source-line="12" id="ent0002"><ellipse cx="35.0105" cy="109" fill="#F1F1F1" rx="8" ry="8" style="stroke:#181818;stroke-width:0.5;"/><path d="M35.0105,117 L35.0105,144 M22.0105,125 L48.0105,125 M35.0105,144 L22.0105,159 M35.0105,144 L48.0105,159" fill="none" style="stroke:#181818;stroke-width:0.5;"/><text fill="#000000" font-family="sans-serif" font-size="9" lengthAdjust="spacing" textLength="58.021" x="6" y="169.8428">Administrateur</text></g><!--entity Vendor--><g class="entity" data-qualified-name="Vendor" data-source-line="13" id="ent0003"><ellipse cx="310.5134" cy="688" fill="#F1F1F1" rx="8" ry="8" style="stroke:#181818;stroke-width:0.5;"/><path d="M310.5134,696 L310.5134,723 M297.5134,704 L323.5134,704 M310.5134,723 L297.5134,738 M310.5134,723 L323.5134,738" fill="none" style="stroke:#181818;stroke-width:0.5;"/><text fill="#000000" font-family="sans-serif" font-size="9" lengthAdjust="spacing" textLength="34.0269" x="293.5" y="748.8428">Vendeur</text></g><!--entity Buyer--><g class="entity" data-qualified-name="Buyer" data-source-line="14" id="ent0004"><ellipse cx="167.511" cy="688" fill="#F1F1F1" rx="8" ry="8" style="stroke:#181818;stroke-width:0.5;"/><path d="M167.511,696 L167.511,723 M154.511,704 L180.511,704 M167.511,723 L154.511,738 M167.511,723 L180.511,738" fill="none" style="stroke:#181818;stroke-width:0.5;"/><text fill="#000000" font-family="sans-serif" font-size="9" lengthAdjust="spacing" textLength="36.022" x="149.5" y="748.8428">Acheteur</text></g><!--entity Pay--><g class="entity" data-qualified-name="Pay" data-source-line="15" id="ent0005"><rect fill="#F1F1F1" height="42.6406" rx="2.5" ry="2.5" style="stroke:#181818;stroke-width:0.5;" width="69.5352" x="708" y="192.5"/><text fill="#000000" font-family="sans-serif" font-size="9" lengthAdjust="spacing" textLength="43.519" x="718" y="211.8428">Prestataire</text><text fill="#000000" font-family="sans-serif" font-size="9" lengthAdjust="spacing" textLength="49.5352" x="718" y="223.1631">de paiement</text></g><!--entity Carrier--><g class="entity" data-qualified-name="Carrier" data-source-line="16" id="ent0006"><rect fill="#F1F1F1" height="31.3203" rx="2.5" ry="2.5" style="stroke:#181818;stroke-width:0.5;" width="71.5215" x="707" y="315.5"/><text fill="#000000" font-family="sans-serif" font-size="9" lengthAdjust="spacing" textLength="51.5215" x="717" y="334.8428">Transporteur</text></g><!--link B03 to V02--><g class="link" data-entity-1="ent0017" data-entity-2="ent0012" data-link-type="dependency" data-source-line="41" id="lnk25"><path d="M338.64,352.71 C363.99,373 396.9551,399.3614 422.2751,419.6214" fill="none" id="B03-to-V02" style="stroke:#444444;stroke-width:1;"/><polygon fill="#444444" points="426.96,423.37,422.4318,414.6238,423.056,420.2461,417.4336,420.8703,426.96,423.37" style="stroke:#444444;stroke-width:1;"/></g><!--link B06 to B07--><g class="link" data-entity-1="ent0018" data-entity-2="ent0019" data-link-type="dependency" data-source-line="42" id="lnk26"><path d="M350.06,175 C373.97,175 398.14,175 419.81,175" fill="none" id="B06-to-B07" style="stroke:#444444;stroke-width:1;"/><polygon fill="#444444" points="425.81,175,416.81,171,420.81,175,416.81,179,425.81,175" style="stroke:#444444;stroke-width:1;"/></g><!--link B07 to P01--><g class="link" data-entity-1="ent0019" data-entity-2="ent0022" data-link-type="dependency" data-source-line="43" id="lnk27"><path d="M484.25,175 C508.61,175 537.81,175 563.47,175" fill="none" id="B07-to-P01" style="stroke:#444444;stroke-width:1;"/><polygon fill="#444444" points="569.47,175,560.47,171,564.47,175,560.47,179,569.47,175" style="stroke:#444444;stroke-width:1;"/></g><!--link B09 to P03--><g class="link" data-entity-1="ent0020" data-entity-2="ent0023" data-link-type="dependency" data-source-line="44" id="lnk28"><path d="M342.09,253 C394.19,253 494.24,253 553.68,253" fill="none" id="B09-to-P03" style="stroke:#444444;stroke-width:1;"/><polygon fill="#444444" points="559.68,253,550.68,249,554.68,253,550.68,257,559.68,253" style="stroke:#444444;stroke-width:1;"/></g><!--link V05 to C01--><g class="link" data-entity-1="ent0014" data-entity-2="ent0024" data-link-type="dependency" data-source-line="45" id="lnk29"><path d="M486.11,589.54 C499.32,583.18 514.05,574.08 524,562 C576.77,497.91 594.0016,402.5031 599.5316,358.5131" fill="none" id="V05-to-C01" style="stroke:#444444;stroke-width:1;"/><polygon fill="#444444" points="600.28,352.56,595.1887,360.9908,599.6564,357.521,603.1262,361.9886,600.28,352.56" style="stroke:#444444;stroke-width:1;"/></g><!--link A01 to B01--><g class="link" data-entity-1="ent0009" data-entity-2="ent0016" data-link-type="dependency" data-source-line="46" id="lnk30"><path d="M211.19,97 C233.4,97 253.99,97 273.92,97" fill="none" id="A01-to-B01" style="stroke:#444444;stroke-width:1;"/><polygon fill="#444444" points="279.92,97,270.92,93,274.92,97,270.92,101,279.92,97" style="stroke:#444444;stroke-width:1;"/></g><!--link Admin to A01--><g class="link" data-entity-1="ent0002" data-entity-2="ent0009" data-link-type="dependency" data-source-line="49" id="lnk31"><path d="M64.32,127.54 C81.71,122.34 98.5707,117.2963 118.1007,111.4663" fill="none" id="Admin-to-A01" style="stroke:#444444;stroke-width:1;"/><polygon fill="#444444" points="123.85,109.75,114.0819,108.4915,119.0589,111.1802,116.3702,116.1572,123.85,109.75" style="stroke:#444444;stroke-width:1;"/></g><!--link Admin to A05--><g class="link" data-entity-1="ent0002" data-entity-2="ent0010" data-link-type="dependency" data-source-line="50" id="lnk32"><path d="M64.32,144.46 C83.96,150.33 104.5015,156.4709 125.5015,162.7509" fill="none" id="Admin-to-A05" style="stroke:#444444;stroke-width:1;"/><polygon fill="#444444" points="131.25,164.47,123.7733,158.0591,126.4596,163.0374,121.4813,165.7237,131.25,164.47" style="stroke:#444444;stroke-width:1;"/></g><!--link Vendor to V02--><g class="link" data-entity-1="ent0003" data-entity-2="ent0012" data-link-type="dependency" data-source-line="51" id="lnk33"><path d="M314.99,679.14 C321.4,630.19 339.04,541.95 386,484 C392.43,476.07 395.8071,472.5797 404.6171,467.1697" fill="none" id="Vendor-to-V02" style="stroke:#444444;stroke-width:1;"/><polygon fill="#444444" points="409.73,464.03,399.9674,465.331,405.4692,466.6464,404.1537,472.1482,409.73,464.03" style="stroke:#444444;stroke-width:1;"/></g><!--link Vendor to V04--><g class="link" data-entity-1="ent0003" data-entity-2="ent0013" data-link-type="dependency" data-source-line="52" id="lnk34"><path d="M322.1,679.26 C333.48,645.76 354.33,595.89 386,562 C395.29,552.06 402.4032,546.7486 414.0732,540.5386" fill="none" id="Vendor-to-V04" style="stroke:#444444;stroke-width:1;"/><polygon fill="#444444" points="419.37,537.72,409.5458,538.4167,414.956,540.0688,413.3039,545.479,419.37,537.72" style="stroke:#444444;stroke-width:1;"/></g><!--link Vendor to V05--><g class="link" data-entity-1="ent0003" data-entity-2="ent0014" data-link-type="dependency" data-source-line="53" id="lnk35"><path d="M327.57,702.14 C351.74,682.81 393.034,649.7672 422.384,626.2972" fill="none" id="Vendor-to-V05" style="stroke:#444444;stroke-width:1;"/><polygon fill="#444444" points="427.07,622.55,417.5429,625.0468,423.165,625.6727,422.5391,631.2948,427.07,622.55" style="stroke:#444444;stroke-width:1;"/></g><!--link Buyer to B01--><g class="link" data-entity-1="ent0004" data-entity-2="ent0016" data-link-type="dependency" data-source-line="54" id="lnk36"><path d="M173.15,679.18 C189.46,553.78 243.27,141.78 247,136 C254.78,123.97 262.3855,117.7658 274.4755,111.4858" fill="none" id="Buyer-to-B01" style="stroke:#444444;stroke-width:1;"/><polygon fill="#444444" points="279.8,108.72,269.9694,109.319,275.3629,111.0248,273.6571,116.4183,279.8,108.72" style="stroke:#444444;stroke-width:1;"/></g><!--link Buyer to B03--><g class="link" data-entity-1="ent0004" data-entity-2="ent0017" data-link-type="dependency" data-source-line="55" id="lnk37"><path d="M181.64,679.22 C210.42,600.83 276.2518,421.5523 299.4818,358.2923" fill="none" id="Buyer-to-B03" style="stroke:#444444;stroke-width:1;"/><polygon fill="#444444" points="301.55,352.66,294.6928,359.7296,299.8265,357.3535,302.2025,362.4872,301.55,352.66" style="stroke:#444444;stroke-width:1;"/></g><!--link Buyer to B06--><g class="link" data-entity-1="ent0004" data-entity-2="ent0018" data-link-type="dependency" data-source-line="56" id="lnk38"><path d="M170.27,679.39 C175.9,578.16 196.08,291.02 247,214 C252.93,205.04 256.6136,200.9585 265.7236,195.2185" fill="none" id="Buyer-to-B06" style="stroke:#444444;stroke-width:1;"/><polygon fill="#444444" points="270.8,192.02,261.0531,193.4335,266.5697,194.6854,265.3178,200.202,270.8,192.02" style="stroke:#444444;stroke-width:1;"/></g><!--link Buyer to B09--><g class="link" data-entity-1="ent0004" data-entity-2="ent0020" data-link-type="dependency" data-source-line="57" id="lnk39"><path d="M171.44,679.19 C179.42,589.02 203.83,355.34 247,292 C254.78,280.59 261.8346,274.6997 273.5046,268.4297" fill="none" id="Buyer-to-B09" style="stroke:#444444;stroke-width:1;"/><polygon fill="#444444" points="278.79,265.59,268.9687,266.326,274.3855,267.9564,272.755,273.3732,278.79,265.59" style="stroke:#444444;stroke-width:1;"/></g><!--link P01 to Pay--><g class="link" data-entity-1="ent0022" data-entity-2="ent0005" data-link-type="dependency" data-source-line="58" id="lnk40"><path d="M637.78,184.44 C658.93,190.44 680.4578,196.5424 701.8178,202.6024" fill="none" id="P01-to-Pay" style="stroke:#444444;stroke-width:1;"/><polygon fill="#444444" points="707.59,204.24,700.0235,197.9354,702.7798,202.8753,697.84,205.6317,707.59,204.24" style="stroke:#444444;stroke-width:1;"/></g><!--link P03 to Pay--><g class="link" data-entity-1="ent0023" data-entity-2="ent0005" data-link-type="dependency" data-source-line="59" id="lnk41"><path d="M647.25,240.87 C666.65,235.37 683.5073,230.5858 701.7873,225.4058" fill="none" id="P03-to-Pay" style="stroke:#444444;stroke-width:1;"/><polygon fill="#444444" points="707.56,223.77,697.8104,222.3752,702.7494,225.1332,699.9915,230.0722,707.56,223.77" style="stroke:#444444;stroke-width:1;"/></g><!--link C01 to Carrier--><g class="link" data-entity-1="ent0024" data-entity-2="ent0006" data-link-type="dependency" data-source-line="60" id="lnk42"><path d="M633.66,331 C655.02,331 678.12,331 700.79,331" fill="none" id="C01-to-Carrier" style="stroke:#444444;stroke-width:1;"/><polygon fill="#444444" points="706.79,331,697.79,327,701.79,331,697.79,335,706.79,331" style="stroke:#444444;stroke-width:1;"/></g><?plantuml-src RLDBRjim4Dth58GBj2i3Tlm9l2aWgJQGHG4XJhEfkc2fiKnO8WMIQk8M0Ng87gBPzmQ-IK_I8KKhL6CR43WpZs_cpN3qWOk6AbeJ9kj62X1cQuuL40NCK55M4EaUKi2EjfNPI0Jnxq1MGKplQI4Vk2Z9ZbOwl1Kh9HzIMKb5tipTBmZsMHFA3gMIhIWyTBEs_ujGgGfG7dQrlbuaom3M814juHNVUhsPRv8Bm0jiKGKxGumaYfTxGmfkky6bY2BA3E96SL5pmRLHr42hHeHgubpd-3s8uXomPwdwcsmF_PsaFOAA-bQJKQP06see9ioH0MlaKADaXyxeCSJUAIfq8rNFbbAbEFA5eErHczFl6iZVdxz8t3GLPzGg8J36VjQW68p8ZuYSkq56ARRPWEwyX7pURCVnP9eBxoTlYJhzgK1_SQ8dqm2roCL7oeK1GGK33rWWu6cG0FLLicm1gRIHx338TJ-vmbmz9BtzzC4HeJ_0p5qzDSKUQH-U1s4iPFtOd9uBRhLwmAj270GxXhKIolRKX7KaLlEDq4pnfYT90hd9P1OKwiEp8BpCnLqh15IaUEVeFMOPOAvpaVaH--Xr45tb8XQYhMXGmEf_5JVORxMZ34S3ZtWKmzbbLaVSujlZ-eKd2uHaLiWjr5zbg_HBALaW9hKasvP_uxY55UzQdZgEfmW_A9oCn-_za52Yipen-7LMbn85UCkour2SrL7XO_BtfX7IkeLo3llAGciHTJlLvnoOyw6vYDoMzSoXDHjOou6rYZ9VZzsxp2kqvzJxp_ls3m00?></g></svg>