<?plantuml 1.2026.2?><svg xmlns="http://www.w3.org/2000/svg" xmlns:xlink="http://www.w3.org/1999/xlink" contentStyleType="text/css" data-diagram-type="DESCRIPTION" height="757px" preserveAspectRatio="none" style="width:748px;height:757px;background:#FFFFFF;" version="1.1" viewBox="0 0 748 757" width="748px" zoomAndPan="magnify"><defs/><g><!--cluster System ? E-commerce Application--><g class="cluster" data-qualified-name="System . E-commerce Application" data-source-line="18" id="ent0007"><rect fill="#EEF4FB" height="656" rx="2.5" ry="2.5" style="stroke:#2E75B6;stroke-width:1;" width="588" x="79" y="7"/><text fill="#000000" font-family="sans-serif" font-size="9" font-weight="bold" lengthAdjust="spacing" textLength="151.8267" x="297.0867" y="18.3428">System &#8212; E-commerce Application</text></g><!--cluster Accounts--><g class="cluster" data-qualified-name="System . E-commerce Application.Accounts" data-source-line="19" id="ent0008"><path d="M105.5,45 L147.5054,45 A3.75,3.75 0 0 1 150.0054,47.5 L157.0054,62.3203 L220.5,62.3203 A2.5,2.5 0 0 1 223,64.8203 L223,210.5 A2.5,2.5 0 0 1 220.5,213 L105.5,213 A2.5,2.5 0 0 1 103,210.5 L103,47.5 A2.5,2.5 0 0 1 105.5,45" fill="#EEF4FB" style="stroke:#2E75B6;stroke-width:1.5;"/><line style="stroke:#2E75B6;stroke-width:1.5;" x1="103" x2="157.0054" y1="62.3203" y2="62.3203"/><text fill="#000000" font-family="sans-serif" font-size="9" font-weight="bold" lengthAdjust="spacing" textLength="41.0054" x="107" y="56.3428">Accounts</text></g><!--cluster Catalogue & stock--><g class="cluster" data-qualified-name="System . E-commerce Application.Catalogue . stock" data-source-line="23" id="ent0011"><path d="M383.5,393 L463.0171,393 A3.75,3.75 0 0 1 465.5171,395.5 L472.5171,410.3203 L500.5,410.3203 A2.5,2.5 0 0 1 503,412.8203 L503,636.5 A2.5,2.5 0 0 1 500.5,639 L383.5,639 A2.5,2.5 0 0 1 381,636.5 L381,395.5 A2.5,2.5 0 0 1 383.5,393" fill="#EEF4FB" style="stroke:#2E75B6;stroke-width:1.5;"/><line style="stroke:#2E75B6;stroke-width:1.5;" x1="381" x2="472.5171" y1="410.3203" y2="410.3203"/><text fill="#000000" font-family="sans-serif" font-size="9" font-weight="bold" lengthAdjust="spacing" textLength="78.5171" x="385" y="404.3428">Catalogue &amp; stock</text></g><!--cluster Shopping experience--><g class="cluster" data-qualified-name="System . E-commerce Application.Shopping experience" data-source-line="28" id="ent0015"><path d="M253.5,45 L345.5195,45 A3.75,3.75 0 0 1 348.0195,47.5 L355.0195,62.3203 L483.5,62.3203 A2.5,2.5 0 0 1 486,64.8203 L486,366.5 A2.5,2.5 0 0 1 483.5,369 L253.5,369 A2.5,2.5 0 0 1 251,366.5 L251,47.5 A2.5,2.5 0 0 1 253.5,45" fill="#EEF4FB" style="stroke:#2E75B6;stroke-width:1.5;"/><line style="stroke:#2E75B6;stroke-width:1.5;" x1="251" x2="355.0195" y1="62.3203" y2="62.3203"/><text fill="#000000" font-family="sans-serif" font-size="9" font-weight="bold" lengthAdjust="spacing" textLength="91.0195" x="255" y="56.3428">Shopping experience</text></g><!--cluster External interfaces--><g class="cluster" data-qualified-name="System . E-commerce Application.External interfaces" data-source-line="35" id="ent0021"><path d="M533.5,123 L615.0386,123 A3.75,3.75 0 0 1 617.5386,125.5 L624.5386,140.3203 L640.5,140.3203 A2.5,2.5 0 0 1 643,142.8203 L643,366.5 A2.5,2.5 0 0 1 640.5,369 L533.5,369 A2.5,2.5 0 0 1 531,366.5 L531,125.5 A2.5,2.5 0 0 1 533.5,123" fill="#EEF4FB" style="stroke:#2E75B6;stroke-width:1.5;"/><line style="stroke:#2E75B6;stroke-width:1.5;" x1="531" x2="624.5386" y1="140.3203" y2="140.3203"/><text fill="#000000" font-family="sans-serif" font-size="9" font-weight="bold" lengthAdjust="spacing" textLength="80.5386" x="535" y="134.3428">External interfaces</text></g><!--entity A01--><g class="entity" data-qualified-name="System . E-commerce Application.Accounts.A01" data-source-line="20" id="ent0009"><rect fill="#FEFEFE" height="42.6406" rx="2.5" ry="2.5" style="stroke:#2E75B6;stroke-width:0.5;" width="87.5308" x="119" y="75.5"/><text fill="#000000" font-family="sans-serif" font-size="9" lengthAdjust="spacing" textLength="30.5112" x="129" y="94.8428">FS-A01</text><text fill="#000000" font-family="sans-serif" font-size="9" lengthAdjust="spacing" textLength="67.5308" x="129" y="106.1631">Accounts &amp; roles</text></g><!--entity A05--><g class="entity" data-qualified-name="System . E-commerce Application.Accounts.A05" data-source-line="21" id="ent0010"><rect fill="#FEFEFE" height="42.6406" rx="2.5" ry="2.5" style="stroke:#2E75B6;stroke-width:0.5;" width="71.5347" x="127" y="153.5"/><text fill="#000000" font-family="sans-serif" font-size="9" lengthAdjust="spacing" textLength="30.5112" x="137" y="172.8428">FS-A05</text><text fill="#000000" font-family="sans-serif" font-size="9" lengthAdjust="spacing" textLength="51.5347" x="137" y="184.1631">Maintenance</text></g><!--entity V02--><g class="entity" data-qualified-name="System . E-commerce Application.Catalogue . stock.V02" data-source-line="24" id="ent0012"><rect fill="#FEFEFE" height="42.6406" rx="2.5" ry="2.5" style="stroke:#2E75B6;stroke-width:0.5;" width="89.5303" x="397" y="423.5"/><text fill="#000000" font-family="sans-serif" font-size="9" lengthAdjust="spacing" textLength="30.5112" x="407" y="442.8428">FS-V02</text><text fill="#000000" font-family="sans-serif" font-size="9" lengthAdjust="spacing" textLength="69.5303" x="407" y="454.1631">Catalogue CRUD</text></g><!--entity V04--><g class="entity" data-qualified-name="System . E-commerce Application.Catalogue . stock.V04" data-source-line="25" id="ent0013"><rect fill="#FEFEFE" height="42.6406" rx="2.5" ry="2.5" style="stroke:#2E75B6;stroke-width:0.5;" width="50.5112" x="416.5" y="501.5"/><text fill="#000000" font-family="sans-serif" font-size="9" lengthAdjust="spacing" textLength="30.5112" x="426.5" y="520.8428">FS-V04</text><text fill="#000000" font-family="sans-serif" font-size="9" lengthAdjust="spacing" textLength="27.5054" x="426.5" y="532.1631">Orders</text></g><!--entity V05--><g class="entity" data-qualified-name="System . E-commerce Application.Catalogue . stock.V05" data-source-line="26" id="ent0014"><rect fill="#FEFEFE" height="42.6406" rx="2.5" ry="2.5" style="stroke:#2E75B6;stroke-width:0.5;" width="55.0288" x="414.5" y="579.5"/><text fill="#000000" font-family="sans-serif" font-size="9" lengthAdjust="spacing" textLength="30.5112" x="424.5" y="598.8428">FS-V05</text><text fill="#000000" font-family="sans-serif" font-size="9" lengthAdjust="spacing" textLength="35.0288" x="424.5" y="610.1631">Shipping</text></g><!--entity B01--><g class="entity" data-qualified-name="System . E-commerce Application.Shopping experience.B01" data-source-line="29" id="ent0016"><rect fill="#FEFEFE" height="42.6406" rx="2.5" ry="2.5" style="stroke:#2E75B6;stroke-width:0.5;" width="68.0234" x="268" y="75.5"/><text fill="#000000" font-family="sans-serif" font-size="9" lengthAdjust="spacing" textLength="30.5112" x="278" y="94.8428">FS-B01</text><text fill="#000000" font-family="sans-serif" font-size="9" lengthAdjust="spacing" textLength="48.0234" x="278" y="106.1631">Registration</text></g><!--entity B03--><g class="entity" data-qualified-name="System . E-commerce Application.Shopping experience.B03" data-source-line="30" id="ent0017"><rect fill="#FEFEFE" height="42.6406" rx="2.5" ry="2.5" style="stroke:#2E75B6;stroke-width:0.5;" width="61.0317" x="271.5" y="309.5"/><text fill="#000000" font-family="sans-serif" font-size="9" lengthAdjust="spacing" textLength="30.5112" x="281.5" y="328.8428">FS-B03</text><text fill="#000000" font-family="sans-serif" font-size="9" lengthAdjust="spacing" textLength="41.0317" x="281.5" y="340.1631">Catalogue</text></g><!--entity B06--><g class="entity" data-qualified-name="System . E-commerce Application.Shopping experience.B06" data-source-line="31" id="ent0018"><rect fill="#FEFEFE" height="42.6406" rx="2.5" ry="2.5" style="stroke:#2E75B6;stroke-width:0.5;" width="58.0215" x="273" y="153.5"/><text fill="#000000" font-family="sans-serif" font-size="9" lengthAdjust="spacing" textLength="30.5112" x="283" y="172.8428">FS-B06</text><text fill="#000000" font-family="sans-serif" font-size="9" lengthAdjust="spacing" textLength="38.0215" x="283" y="184.1631">Checkout</text></g><!--entity B07--><g class="entity" data-qualified-name="System . E-commerce Application.Shopping experience.B07" data-source-line="32" id="ent0019"><rect fill="#FEFEFE" height="42.6406" rx="2.5" ry="2.5" style="stroke:#2E75B6;stroke-width:0.5;" width="55.5166" x="414" y="153.5"/><text fill="#000000" font-family="sans-serif" font-size="9" lengthAdjust="spacing" textLength="30.5112" x="424" y="172.8428">FS-B07</text><text fill="#000000" font-family="sans-serif" font-size="9" lengthAdjust="spacing" textLength="35.5166" x="424" y="184.1631">Payment</text></g><!--entity B09--><g class="entity" data-qualified-name="System . E-commerce Application.Shopping experience.B09" data-source-line="33" id="ent0020"><rect fill="#FEFEFE" height="42.6406" rx="2.5" ry="2.5" style="stroke:#2E75B6;stroke-width:0.5;" width="69.5308" x="267" y="231.5"/><text fill="#000000" font-family="sans-serif" font-size="9" lengthAdjust="spacing" textLength="30.5112" x="277" y="250.8428">FS-B09</text><text fill="#000000" font-family="sans-serif" font-size="9" lengthAdjust="spacing" textLength="49.5308" x="277" y="262.1631">Cancellation</text></g><!--entity P01--><g class="entity" data-qualified-name="System . E-commerce Application.External interfaces.P01" data-source-line="36" id="ent0022"><rect fill="#FEFEFE" height="42.6406" rx="2.5" ry="2.5" style="stroke:#2E75B6;stroke-width:0.5;" width="72.5322" x="550.5" y="153.5"/><text fill="#000000" font-family="sans-serif" font-size="9" lengthAdjust="spacing" textLength="30.5112" x="560.5" y="172.8428">FS-P01</text><text fill="#000000" font-family="sans-serif" font-size="9" lengthAdjust="spacing" textLength="52.5322" x="560.5" y="184.1631">Authorisation</text></g><!--entity P03--><g class="entity" data-qualified-name="System . E-commerce Application.External interfaces.P03" data-source-line="37" id="ent0023"><rect fill="#FEFEFE" height="42.6406" rx="2.5" ry="2.5" style="stroke:#2E75B6;stroke-width:0.5;" width="50.5112" x="561.5" y="231.5"/><text fill="#000000" font-family="sans-serif" font-size="9" lengthAdjust="spacing" textLength="30.5112" x="571.5" y="250.8428">FS-P03</text><text fill="#000000" font-family="sans-serif" font-size="9" lengthAdjust="spacing" textLength="29.0215" x="571.5" y="262.1631">Refund</text></g><!--entity C01--><g class="entity" data-qualified-name="System . E-commerce Application.External interfaces.C01" data-source-line="38" id="ent0024"><rect fill="#FEFEFE" height="42.6406" rx="2.5" ry="2.5" style="stroke:#2E75B6;stroke-width:0.5;" width="79.5239" x="547" y="309.5"/><text fill="#000000" font-family="sans-serif" font-size="9" lengthAdjust="spacing" textLength="31.0078" x="557" y="328.8428">FS-C01</text><text fill="#000000" font-family="sans-serif" font-size="9" lengthAdjust="spacing" textLength="59.5239" x="557" y="340.1631">Parcel tracking</text></g><!--entity Admin--><g class="entity" data-qualified-name="Admin" data-source-line="12" id="ent0002"><ellipse cx="32.5078" cy="109" fill="#F1F1F1" rx="8" ry="8" style="stroke:#181818;stroke-width:0.5;"/><path d="M32.5078,117 L32.5078,144 M19.5078,125 L45.5078,125 M32.5078,144 L19.5078,159 M32.5078,144 L45.5078,159" fill="none" style="stroke:#181818;stroke-width:0.5;"/><text fill="#000000" font-family="sans-serif" font-size="9" lengthAdjust="spacing" textLength="53.0156" x="6" y="169.8428">Administrator</text></g><!--entity Vendor--><g class="entity" data-qualified-name="Vendor" data-source-line="13" id="ent0003"><ellipse cx="302" cy="688" fill="#F1F1F1" rx="8" ry="8" style="stroke:#181818;stroke-width:0.5;"/><path d="M302,696 L302,723 M289,704 L315,704 M302,723 L289,738 M302,723 L315,738" fill="none" style="stroke:#181818;stroke-width:0.5;"/><text fill="#000000" font-family="sans-serif" font-size="9" lengthAdjust="spacing" textLength="23.0098" x="290.4951" y="748.8428">Seller</text></g><!--entity Buyer--><g class="entity" data-qualified-name="Buyer" data-source-line="14" id="ent0004"><ellipse cx="163" cy="688" fill="#F1F1F1" rx="8" ry="8" style="stroke:#181818;stroke-width:0.5;"/><path d="M163,696 L163,723 M150,704 L176,704 M163,723 L150,738 M163,723 L176,738" fill="none" style="stroke:#181818;stroke-width:0.5;"/><text fill="#000000" font-family="sans-serif" font-size="9" lengthAdjust="spacing" textLength="23.5107" x="151.2446" y="748.8428">Buyer</text></g><!--entity Pay--><g class="entity" data-qualified-name="Pay" data-source-line="15" id="ent0005"><rect fill="#F1F1F1" height="42.6406" rx="2.5" ry="2.5" style="stroke:#181818;stroke-width:0.5;" width="55.5166" x="687" y="192.5"/><text fill="#000000" font-family="sans-serif" font-size="9" lengthAdjust="spacing" textLength="35.5166" x="697" y="211.8428">Payment</text><text fill="#000000" font-family="sans-serif" font-size="9" lengthAdjust="spacing" textLength="33.5127" x="697" y="223.1631">Provider</text></g><!--entity Carrier--><g class="entity" data-qualified-name="Carrier" data-source-line="16" id="ent0006"><rect fill="#F1F1F1" height="31.3203" rx="2.5" ry="2.5" style="stroke:#181818;stroke-width:0.5;" width="47.501" x="691" y="315.5"/><text fill="#000000" font-family="sans-serif" font-size="9" lengthAdjust="spacing" textLength="27.501" x="701" y="334.8428">Carrier</text></g><!--link B03 to V02--><g class="link" data-entity-1="ent0017" data-entity-2="ent0012" data-link-type="dependency" data-source-line="41" id="lnk25"><path d="M329.28,352.71 C353.84,373 385.6639,399.2891 410.1939,419.5491" fill="none" id="B03-to-V02" style="stroke:#444444;stroke-width:1;"/><polygon fill="#444444" points="414.82,423.37,410.428,414.5546,410.9649,420.186,405.3336,420.7228,414.82,423.37" style="stroke:#444444;stroke-width:1;"/></g><!--link B06 to B07--><g class="link" data-entity-1="ent0018" data-entity-2="ent0019" data-link-type="dependency" data-source-line="42" id="lnk26"><path d="M331.26,175 C355.39,175 383.87,175 407.72,175" fill="none" id="B06-to-B07" style="stroke:#444444;stroke-width:1;"/><polygon fill="#444444" points="413.72,175,404.72,171,408.72,175,404.72,179,413.72,175" style="stroke:#444444;stroke-width:1;"/></g><!--link B07 to P01--><g class="link" data-entity-1="ent0019" data-entity-2="ent0022" data-link-type="dependency" data-source-line="43" id="lnk27"><path d="M470.23,175 C493,175 519.65,175 544.47,175" fill="none" id="B07-to-P01" style="stroke:#444444;stroke-width:1;"/><polygon fill="#444444" points="550.47,175,541.47,171,545.47,175,541.47,179,550.47,175" style="stroke:#444444;stroke-width:1;"/></g><!--link B09 to P03--><g class="link" data-entity-1="ent0020" data-entity-2="ent0023" data-link-type="dependency" data-source-line="44" id="lnk28"><path d="M337.14,253 C394.91,253 504.62,253 555.28,253" fill="none" id="B09-to-P03" style="stroke:#444444;stroke-width:1;"/><polygon fill="#444444" points="561.28,253,552.28,249,556.28,253,552.28,257,561.28,253" style="stroke:#444444;stroke-width:1;"/></g><!--link V05 to C01--><g class="link" data-entity-1="ent0014" data-entity-2="ent0024" data-link-type="dependency" data-source-line="45" id="lnk29"><path d="M469.77,591.19 C483.81,584.81 500.28,575.21 511,562 C563.09,497.84 578.7316,402.4849 583.5116,358.5149" fill="none" id="V05-to-C01" style="stroke:#444444;stroke-width:1;"/><polygon fill="#444444" points="584.16,352.55,579.2108,361.065,583.6196,357.5207,587.1639,361.9296,584.16,352.55" style="stroke:#444444;stroke-width:1;"/></g><!--link A01 to B01--><g class="link" data-entity-1="ent0009" data-entity-2="ent0016" data-link-type="dependency" data-source-line="46" id="lnk30"><path d="M207.35,97 C226.95,97 243.73,97 261.92,97" fill="none" id="A01-to-B01" style="stroke:#444444;stroke-width:1;"/><polygon fill="#444444" points="267.92,97,258.92,93,262.92,97,258.92,101,267.92,97" style="stroke:#444444;stroke-width:1;"/></g><!--link Admin to A01--><g class="link" data-entity-1="ent0002" data-entity-2="ent0009" data-link-type="dependency" data-source-line="49" id="lnk31"><path d="M59.2,128.2 C76.26,123.02 93.3392,117.8445 113.1492,111.8245" fill="none" id="Admin-to-A01" style="stroke:#444444;stroke-width:1;"/><polygon fill="#444444" points="118.89,110.08,109.1158,108.8696,114.106,111.5338,111.4419,116.524,118.89,110.08" style="stroke:#444444;stroke-width:1;"/></g><!--link Admin to A05--><g class="link" data-entity-1="ent0002" data-entity-2="ent0010" data-link-type="dependency" data-source-line="50" id="lnk32"><path d="M59.2,143.8 C78.53,149.67 99.5184,156.0382 120.8784,162.5182" fill="none" id="Admin-to-A05" style="stroke:#444444;stroke-width:1;"/><polygon fill="#444444" points="126.62,164.26,119.1688,157.8195,121.8353,162.8085,116.8464,165.475,126.62,164.26" style="stroke:#444444;stroke-width:1;"/></g><!--link Vendor to V02--><g class="link" data-entity-1="ent0003" data-entity-2="ent0012" data-link-type="dependency" data-source-line="51" id="lnk33"><path d="M305.69,679.16 C311.03,630.25 326.82,542.04 373,484 C379.44,475.91 382.93,472.3082 391.85,466.8582" fill="none" id="Vendor-to-V02" style="stroke:#444444;stroke-width:1;"/><polygon fill="#444444" points="396.97,463.73,387.2045,465.009,392.7034,466.3369,391.3755,471.8357,396.97,463.73" style="stroke:#444444;stroke-width:1;"/></g><!--link Vendor to V04--><g class="link" data-entity-1="ent0003" data-entity-2="ent0013" data-link-type="dependency" data-source-line="52" id="lnk34"><path d="M312.44,679.25 C322.77,645.75 342.09,595.88 373,562 C384.92,548.93 396.8209,541.5914 411.0109,535.0514" fill="none" id="Vendor-to-V04" style="stroke:#444444;stroke-width:1;"/><polygon fill="#444444" points="416.46,532.54,406.6121,532.6744,411.9191,534.6329,409.9606,539.9399,416.46,532.54" style="stroke:#444444;stroke-width:1;"/></g><!--link Vendor to V05--><g class="link" data-entity-1="ent0003" data-entity-2="ent0014" data-link-type="dependency" data-source-line="53" id="lnk35"><path d="M315.74,704.48 C338.15,685.96 380.4743,651.0014 410.0943,626.5314" fill="none" id="Vendor-to-V05" style="stroke:#444444;stroke-width:1;"/><polygon fill="#444444" points="414.72,622.71,405.2339,625.3583,410.8653,625.8945,410.3291,631.5259,414.72,622.71" style="stroke:#444444;stroke-width:1;"/></g><!--link Buyer to B01--><g class="link" data-entity-1="ent0004" data-entity-2="ent0016" data-link-type="dependency" data-source-line="54" id="lnk36"><path d="M168.69,679.19 C185.13,553.8 239.36,141.84 243,136 C249.03,126.32 253.3828,121.703 262.8928,115.673" fill="none" id="Buyer-to-B01" style="stroke:#444444;stroke-width:1;"/><polygon fill="#444444" points="267.96,112.46,258.2172,113.9013,263.7373,115.1375,262.5011,120.6576,267.96,112.46" style="stroke:#444444;stroke-width:1;"/></g><!--link Buyer to B03--><g class="link" data-entity-1="ent0004" data-entity-2="ent0017" data-link-type="dependency" data-source-line="55" id="lnk37"><path d="M176.52,679.9 C204.33,601.96 268.5538,421.9511 291.2238,358.4111" fill="none" id="Buyer-to-B03" style="stroke:#444444;stroke-width:1;"/><polygon fill="#444444" points="293.24,352.76,286.4483,359.8925,291.5598,357.4692,293.9831,362.5808,293.24,352.76" style="stroke:#444444;stroke-width:1;"/></g><!--link Buyer to B06--><g class="link" data-entity-1="ent0004" data-entity-2="ent0018" data-link-type="dependency" data-source-line="56" id="lnk38"><path d="M165.94,679.48 C172.03,578.46 193.35,291.87 243,214 C250.18,202.75 256.691,196.9551 267.731,190.5951" fill="none" id="Buyer-to-B06" style="stroke:#444444;stroke-width:1;"/><polygon fill="#444444" points="272.93,187.6,263.1348,188.6266,268.5975,190.0959,267.1282,195.5586,272.93,187.6" style="stroke:#444444;stroke-width:1;"/></g><!--link Buyer to B09--><g class="link" data-entity-1="ent0004" data-entity-2="ent0020" data-link-type="dependency" data-source-line="57" id="lnk39"><path d="M167.12,679.27 C175.51,589.31 200.87,356.06 243,292 C248.93,282.98 252.7329,278.8007 261.7129,272.9107" fill="none" id="Buyer-to-B09" style="stroke:#444444;stroke-width:1;"/><polygon fill="#444444" points="266.73,269.62,257.0106,271.2114,262.5491,272.3623,261.3982,277.9008,266.73,269.62" style="stroke:#444444;stroke-width:1;"/></g><!--link P01 to Pay--><g class="link" data-entity-1="ent0022" data-entity-2="ent0005" data-link-type="dependency" data-source-line="58" id="lnk40"><path d="M623.77,186.07 C643.85,192.29 662.768,198.147 681.228,203.857" fill="none" id="P01-to-Pay" style="stroke:#444444;stroke-width:1;"/><polygon fill="#444444" points="686.96,205.63,679.5439,199.1491,682.1833,204.1525,677.1799,206.7918,686.96,205.63" style="stroke:#444444;stroke-width:1;"/></g><!--link P03 to Pay--><g class="link" data-entity-1="ent0023" data-entity-2="ent0005" data-link-type="dependency" data-source-line="59" id="lnk41"><path d="M612.59,245.39 C633.94,238.78 659.0584,231.0046 681.1184,224.1746" fill="none" id="P03-to-Pay" style="stroke:#444444;stroke-width:1;"/><polygon fill="#444444" points="686.85,222.4,677.0696,221.2408,682.0737,223.8788,679.4357,228.8829,686.85,222.4" style="stroke:#444444;stroke-width:1;"/></g><!--link C01 to Carrier--><g class="link" data-entity-1="ent0024" data-entity-2="ent0006" data-link-type="dependency" data-source-line="60" id="lnk42"><path d="M627.18,331 C647.98,331 666.85,331 684.63,331" fill="none" id="C01-to-Carrier" style="stroke:#444444;stroke-width:1;"/><polygon fill="#444444" points="690.63,331,681.63,327,685.63,331,681.63,335,690.63,331" style="stroke:#444444;stroke-width:1;"/></g><?plantuml-src RLFDYjim4BxhAKGAlGMIpS-IIo5sdLkfYUbUcZq8UMABo9AHvUwcPQ4FqIViatGaoudIJG96Cz-dcVbcDDr9g9OPrb2kcrOhKBQmPmdK0BTCLH98Tw6KS6Izj3kD9F4Jw2R2kfgL-aMeYXwPxE9RMsFqIwgbDlJ3qlyYy98rOVnK6TshCb1tcVlVfMfJWWcqX-nnbQmZMek1M0NlucNPRhbBxX3lH2CIZfPQJOseQajBuReXj2A4SOkyoRPiX1ATDGpD2MKTzPuHBa1A6FnFe4fjHY3fpy7lJ-JIPJh9sRb1SGUL6_r3b866tfYKCcD4WCAPn7XnxYmqzE_lFpIROiCQC1pejcsbuCmfcD1VX8xIKGVds2BR3MvAl--AwNOsFwWHe1-fqHAwPwznDezOguFwmeIoe9ZY40Wh9Bp56L9ccTHL3nYfivgVubHFiuU3kZBI_RVFFWxw8yxoeBww6NK1MqOO5b7KectnuGNqNGL5hJrEuRK5x1WM6zUGEBbxg8PfOejyd2IIcimMKPK1NaJm6k4Q-4dtDg3h27t4aGwp3U1Z16vSPAn8oZZtvdyDsQi5evYahj_co3ZSZ2pt8-jjhOtehe7oI4JkHEpXY0iHiAk2r5tF6JuLIR49_3HsC_K1tWX-K36TJZ-5qQ12RmrYyEkj8H-M7ooN0GVYhI4Klg1mRqumh5yQxt1FAxPMP5YSIyuRStbhheZVfalas5hSMEiRQqFoK8zRipmeTESq-CST-mS0?></g></svg>