<?xml version="1.0" encoding="us-ascii" standalone="no"?><svg xmlns="http://www.w3.org/2000/svg" xmlns:xlink="http://www.w3.org/1999/xlink" contentStyleType="text/css" height="1474px" preserveAspectRatio="none" style="width:1093px;height:1474px;background:#FFFFFF;" version="1.1" viewBox="0 0 1093 1474" width="1093px" zoomAndPan="magnify"><defs/><g><!--cluster BuyerNode--><g id="cluster_BuyerNode"><polygon fill="#F0F8FF" points="327.92,1210,337.92,1200,599.92,1200,599.92,1344,589.92,1354,327.92,1354,327.92,1210" style="stroke:#2E75B6;stroke-width:1.0;"/><line style="stroke:#2E75B6;stroke-width:1.0;" x1="589.92" x2="599.92" y1="1210" y2="1200"/><line style="stroke:#2E75B6;stroke-width:1.0;" x1="327.92" x2="589.92" y1="1210" y2="1210"/><line style="stroke:#2E75B6;stroke-width:1.0;" x1="589.92" x2="589.92" y1="1210" y2="1354"/><text fill="#000000" font-family="DejaVu Sans" font-size="11" font-weight="bold" lengthAdjust="spacing" textLength="115" x="402.42" y="1223.2104">shop-buyer-portal</text><text fill="#000000" font-family="DejaVu Sans" font-size="11" font-weight="bold" lengthAdjust="spacing" textLength="196" x="361.92" y="1236.0151">Nginx + Vite (port 5173 &#8212; dev)</text></g><!--cluster VendorNode--><g id="cluster_VendorNode"><polygon fill="#F0F8FF" points="327.42,917,337.42,907,599.42,907,599.42,1051,589.42,1061,327.42,1061,327.42,917" style="stroke:#2E75B6;stroke-width:1.0;"/><line style="stroke:#2E75B6;stroke-width:1.0;" x1="589.42" x2="599.42" y1="917" y2="907"/><line style="stroke:#2E75B6;stroke-width:1.0;" x1="327.42" x2="589.42" y1="917" y2="917"/><line style="stroke:#2E75B6;stroke-width:1.0;" x1="589.42" x2="589.42" y1="917" y2="1061"/><text fill="#000000" font-family="DejaVu Sans" font-size="11" font-weight="bold" lengthAdjust="spacing" textLength="152" x="383.42" y="930.2104">shop-vendor-backoffice</text><text fill="#000000" font-family="DejaVu Sans" font-size="11" font-weight="bold" lengthAdjust="spacing" textLength="196" x="361.42" y="943.0151">Nginx + Vite (port 5174 &#8212; dev)</text></g><!--cluster AdminNode--><g id="cluster_AdminNode"><polygon fill="#F0F8FF" points="327.42,624,337.42,614,599.42,614,599.42,758,589.42,768,327.42,768,327.42,624" style="stroke:#2E75B6;stroke-width:1.0;"/><line style="stroke:#2E75B6;stroke-width:1.0;" x1="589.42" x2="599.42" y1="624" y2="614"/><line style="stroke:#2E75B6;stroke-width:1.0;" x1="327.42" x2="589.42" y1="624" y2="624"/><line style="stroke:#2E75B6;stroke-width:1.0;" x1="589.42" x2="589.42" y1="624" y2="768"/><text fill="#000000" font-family="DejaVu Sans" font-size="11" font-weight="bold" lengthAdjust="spacing" textLength="130" x="394.42" y="637.2104">shop-admin-console</text><text fill="#000000" font-family="DejaVu Sans" font-size="11" font-weight="bold" lengthAdjust="spacing" textLength="196" x="361.42" y="650.0151">Nginx + Vite (port 5175 &#8212; dev)</text></g><!--cluster AppServer--><g id="cluster_AppServer"><polygon fill="#F0F8FF" points="288.92,253,298.92,243,637.92,243,637.92,564,627.92,574,288.92,574,288.92,253" style="stroke:#2E75B6;stroke-width:1.0;"/><line style="stroke:#2E75B6;stroke-width:1.0;" x1="627.92" x2="637.92" y1="253" y2="243"/><line style="stroke:#2E75B6;stroke-width:1.0;" x1="288.92" x2="627.92" y1="253" y2="253"/><line style="stroke:#2E75B6;stroke-width:1.0;" x1="627.92" x2="627.92" y1="253" y2="574"/><text fill="#000000" font-family="DejaVu Sans" font-size="11" font-weight="bold" lengthAdjust="spacing" textLength="136" x="391.42" y="266.2104">Container - Back-end</text><text fill="#000000" font-family="DejaVu Sans" font-size="11" font-weight="bold" lengthAdjust="spacing" textLength="273" x="322.92" y="279.0151">Spring Boot &#8212; API REST stateless (CPA-05)</text></g><!--cluster ModulesFrame--><g id="cluster_ModulesFrame"><rect fill="#FAFAFA" height="113" rx="2.5" ry="2.5" style="stroke:#AAAAAA;stroke-width:1.0;" width="229" x="348.92" y="316"/><path d="M457.92,316 L457.92,321.8047 L447.92,331.8047 L348.92,331.8047 " fill="none" style="stroke:#AAAAAA;stroke-width:1.0;"/><text fill="#000000" font-family="DejaVu Sans" font-size="11" font-weight="bold" lengthAdjust="spacing" textLength="99" x="351.92" y="327.2104">Modules m&#233;tier</text></g><!--cluster AdaptersFrame--><g id="cluster_AdaptersFrame"><rect fill="#FAFAFA" height="89" rx="2.5" ry="2.5" style="stroke:#AAAAAA;stroke-width:1.0;" width="259" x="333.92" y="453"/><path d="M451.92,453 L451.92,458.8047 L441.92,468.8047 L333.92,468.8047 " fill="none" style="stroke:#AAAAAA;stroke-width:1.0;"/><text fill="#000000" font-family="DejaVu Sans" font-size="11" font-weight="bold" lengthAdjust="spacing" textLength="108" x="336.92" y="464.2104">Adaptateurs SDK</text></g><!--cluster DB--><g id="cluster_DB"><polygon fill="#F0F8FF" points="807.42,48,817.42,38,1070.42,38,1070.42,184,1060.42,194,807.42,194,807.42,48" style="stroke:#2E75B6;stroke-width:1.0;"/><line style="stroke:#2E75B6;stroke-width:1.0;" x1="1060.42" x2="1070.42" y1="48" y2="38"/><line style="stroke:#2E75B6;stroke-width:1.0;" x1="807.42" x2="1060.42" y1="48" y2="48"/><line style="stroke:#2E75B6;stroke-width:1.0;" x1="1060.42" x2="1060.42" y1="48" y2="194"/><text fill="#000000" font-family="DejaVu Sans" font-size="11" font-weight="bold" lengthAdjust="spacing" textLength="187" x="841.42" y="61.2104">Container - Base de donn&#233;es</text><text fill="#000000" font-family="DejaVu Sans" font-size="11" font-weight="bold" lengthAdjust="spacing" textLength="154" x="857.92" y="74.0151">PostgreSQL 16 (CPA-03)</text></g><!--cluster Cache--><g id="cluster_Cache"><polygon fill="#F0F8FF" points="800.92,244,810.92,234,1076.92,234,1076.92,380,1066.92,390,800.92,390,800.92,244" style="stroke:#2E75B6;stroke-width:1.0;"/><line style="stroke:#2E75B6;stroke-width:1.0;" x1="1066.92" x2="1076.92" y1="244" y2="234"/><line style="stroke:#2E75B6;stroke-width:1.0;" x1="800.92" x2="1066.92" y1="244" y2="244"/><line style="stroke:#2E75B6;stroke-width:1.0;" x1="1066.92" x2="1066.92" y1="244" y2="390"/><text fill="#000000" font-family="DejaVu Sans" font-size="11" font-weight="bold" lengthAdjust="spacing" textLength="102" x="883.92" y="257.2104">Container Redis</text><text fill="#000000" font-family="DejaVu Sans" font-size="11" font-weight="bold" lengthAdjust="spacing" textLength="200" x="834.92" y="270.0151">Cache Session et JWT (CPA-04)</text></g><!--entity FrontB--><g id="elem_FrontB"><rect fill="#E8F4FD" height="53.2813" rx="2.5" ry="2.5" style="stroke:#2E75B6;stroke-width:1.0;" width="111" x="407.92" y="1257.5"/><rect fill="#E8F4FD" height="10" style="stroke:#2E75B6;stroke-width:1.0;" width="15" x="498.92" y="1262.5"/><rect fill="#E8F4FD" height="2" style="stroke:#2E75B6;stroke-width:1.0;" width="4" x="496.92" y="1264.5"/><rect fill="#E8F4FD" height="2" style="stroke:#2E75B6;stroke-width:1.0;" width="4" x="496.92" y="1268.5"/><text fill="#000000" font-family="DejaVu Sans" font-size="10" lengthAdjust="spacing" textLength="71" x="422.92" y="1286.7822">front-acheteur</text><text fill="#000000" font-family="DejaVu Sans" font-size="10" lengthAdjust="spacing" textLength="60" x="422.92" y="1298.4229">(React SPA)</text></g><!--entity FrontV--><g id="elem_FrontV"><rect fill="#E8F4FD" height="53.2813" rx="2.5" ry="2.5" style="stroke:#2E75B6;stroke-width:1.0;" width="108" x="409.42" y="964.5"/><rect fill="#E8F4FD" height="10" style="stroke:#2E75B6;stroke-width:1.0;" width="15" x="497.42" y="969.5"/><rect fill="#E8F4FD" height="2" style="stroke:#2E75B6;stroke-width:1.0;" width="4" x="495.42" y="971.5"/><rect fill="#E8F4FD" height="2" style="stroke:#2E75B6;stroke-width:1.0;" width="4" x="495.42" y="975.5"/><text fill="#000000" font-family="DejaVu Sans" font-size="10" lengthAdjust="spacing" textLength="68" x="424.42" y="993.7822">front-vendeur</text><text fill="#000000" font-family="DejaVu Sans" font-size="10" lengthAdjust="spacing" textLength="60" x="424.42" y="1005.4229">(React SPA)</text></g><!--entity FrontA--><g id="elem_FrontA"><rect fill="#E8F4FD" height="53.2813" rx="2.5" ry="2.5" style="stroke:#2E75B6;stroke-width:1.0;" width="100" x="413.42" y="671.5"/><rect fill="#E8F4FD" height="10" style="stroke:#2E75B6;stroke-width:1.0;" width="15" x="493.42" y="676.5"/><rect fill="#E8F4FD" height="2" style="stroke:#2E75B6;stroke-width:1.0;" width="4" x="491.42" y="678.5"/><rect fill="#E8F4FD" height="2" style="stroke:#2E75B6;stroke-width:1.0;" width="4" x="491.42" y="682.5"/><text fill="#000000" font-family="DejaVu Sans" font-size="10" lengthAdjust="spacing" textLength="58" x="428.42" y="700.7822">front-admin</text><text fill="#000000" font-family="DejaVu Sans" font-size="10" lengthAdjust="spacing" textLength="60" x="428.42" y="712.4229">(React SPA)</text></g><!--entity Modules--><g id="elem_Modules"><rect fill="#E8F4FD" height="64.9219" rx="2.5" ry="2.5" style="stroke:#2E75B6;stroke-width:1.0;" width="197" x="364.92" y="347.5"/><rect fill="#E8F4FD" height="10" style="stroke:#2E75B6;stroke-width:1.0;" width="15" x="541.92" y="352.5"/><rect fill="#E8F4FD" height="2" style="stroke:#2E75B6;stroke-width:1.0;" width="4" x="539.92" y="354.5"/><rect fill="#E8F4FD" height="2" style="stroke:#2E75B6;stroke-width:1.0;" width="4" x="539.92" y="358.5"/><text fill="#000000" font-family="DejaVu Sans" font-size="10" lengthAdjust="spacing" textLength="132" x="379.92" y="376.7822">compte &#183; catalogue &#183; panier</text><text fill="#000000" font-family="DejaVu Sans" font-size="10" lengthAdjust="spacing" textLength="110" x="379.92" y="388.4229">commande &#183; paiement</text><text fill="#000000" font-family="DejaVu Sans" font-size="10" lengthAdjust="spacing" textLength="157" x="379.92" y="400.0635">exp&#233;dition &#183; notification &#183; rapport</text></g><!--entity Adapters--><g id="elem_Adapters"><rect fill="#E8F4FD" height="41.6406" rx="2.5" ry="2.5" style="stroke:#2E75B6;stroke-width:1.0;" width="227" x="349.92" y="484"/><rect fill="#E8F4FD" height="10" style="stroke:#2E75B6;stroke-width:1.0;" width="15" x="556.92" y="489"/><rect fill="#E8F4FD" height="2" style="stroke:#2E75B6;stroke-width:1.0;" width="4" x="554.92" y="491"/><rect fill="#E8F4FD" height="2" style="stroke:#2E75B6;stroke-width:1.0;" width="4" x="554.92" y="495"/><text fill="#000000" font-family="DejaVu Sans" font-size="10" lengthAdjust="spacing" textLength="187" x="364.92" y="513.2822">Stripe Java SDK  |  SendGrid Java SDK</text></g><!--entity PgDB--><g id="elem_PgDB"><path d="M894.42,105.5 C894.42,95.5 938.92,95.5 938.92,95.5 C938.92,95.5 983.42,95.5 983.42,105.5 L983.42,140.1094 C983.42,150.1094 938.92,150.1094 938.92,150.1094 C938.92,150.1094 894.42,150.1094 894.42,140.1094 L894.42,105.5 " fill="#FFFFFF" style="stroke:#000000;stroke-width:1.0;"/><path d="M894.42,105.5 C894.42,115.5 938.92,115.5 938.92,115.5 C938.92,115.5 983.42,115.5 983.42,105.5 " fill="none" style="stroke:#000000;stroke-width:1.0;"/><text fill="#000000" font-family="DejaVu Sans" font-size="11" lengthAdjust="spacing" textLength="69" x="904.42" y="129.7104">boutique_db</text><text fill="#000000" font-family="DejaVu Sans" font-size="11" lengthAdjust="spacing" textLength="45" x="904.42" y="142.5151">(Flyway)</text></g><!--entity RedisDB--><g id="elem_RedisDB"><path d="M872.92,301.5 C872.92,291.5 938.92,291.5 938.92,291.5 C938.92,291.5 1004.92,291.5 1004.92,301.5 L1004.92,336.1094 C1004.92,346.1094 938.92,346.1094 938.92,346.1094 C938.92,346.1094 872.92,346.1094 872.92,336.1094 L872.92,301.5 " fill="#FFFFFF" style="stroke:#000000;stroke-width:1.0;"/><path d="M872.92,301.5 C872.92,311.5 938.92,311.5 938.92,311.5 C938.92,311.5 1004.92,311.5 1004.92,301.5 " fill="none" style="stroke:#000000;stroke-width:1.0;"/><text fill="#000000" font-family="DejaVu Sans" font-size="11" lengthAdjust="spacing" textLength="89" x="882.92" y="325.7104">Paniers (CS-03)</text><text fill="#000000" font-family="DejaVu Sans" font-size="11" lengthAdjust="spacing" textLength="112" x="882.92" y="338.5151">Blacklist tokens JWT</text></g><!--entity UserB--><g id="elem_UserB"><ellipse cx="463.42" cy="1404" fill="#FFFFFF" rx="8" ry="8" style="stroke:#000000;stroke-width:1.0;"/><path d="M463.42,1412 L463.42,1439 M450.42,1420 L476.42,1420 M463.42,1439 L450.42,1454 M463.42,1439 L476.42,1454 " fill="none" style="stroke:#000000;stroke-width:1.0;"/><text fill="#000000" font-family="DejaVu Sans" font-size="11" lengthAdjust="spacing" textLength="50" x="438.42" y="1466.2104">Acheteur</text></g><!--entity UserV--><g id="elem_UserV"><ellipse cx="463.42" cy="1111" fill="#FFFFFF" rx="8" ry="8" style="stroke:#000000;stroke-width:1.0;"/><path d="M463.42,1119 L463.42,1146 M450.42,1127 L476.42,1127 M463.42,1146 L450.42,1161 M463.42,1146 L476.42,1161 " fill="none" style="stroke:#000000;stroke-width:1.0;"/><text fill="#000000" font-family="DejaVu Sans" font-size="11" lengthAdjust="spacing" textLength="47" x="439.92" y="1173.2104">Vendeur</text></g><!--entity UserA--><g id="elem_UserA"><ellipse cx="463.42" cy="818" fill="#FFFFFF" rx="8" ry="8" style="stroke:#000000;stroke-width:1.0;"/><path d="M463.42,826 L463.42,853 M450.42,834 L476.42,834 M463.42,853 L450.42,868 M463.42,853 L476.42,868 " fill="none" style="stroke:#000000;stroke-width:1.0;"/><text fill="#000000" font-family="DejaVu Sans" font-size="11" lengthAdjust="spacing" textLength="35" x="445.92" y="880.2104">Admin</text></g><g id="elem_NoteNginxProd"><path d="M352.92,11 L352.92,59.4141 L573.92,59.4141 L573.92,21 L563.92,11 L352.92,11 " fill="#FFFBE6" style="stroke:#F0A500;stroke-width:1.0;"/><path d="M563.92,11 L563.92,21 L573.92,21 L563.92,11 " fill="#FFFBE6" style="stroke:#F0A500;stroke-width:1.0;"/><text fill="#000000" font-family="DejaVu Sans" font-size="11" lengthAdjust="spacing" textLength="174" x="358.92" y="26.2104">Production : bundles statiques</text><text fill="#000000" font-family="DejaVu Sans" font-size="11" lengthAdjust="spacing" textLength="200" x="358.92" y="39.0151">servis par un seul conteneur Nginx</text><text fill="#000000" font-family="DejaVu Sans" font-size="11" lengthAdjust="spacing" textLength="175" x="358.92" y="51.8198">avec terminaison TLS (CPA-02)</text></g><!--entity Stripe--><g id="elem_Stripe"><rect fill="#D5E8F0" height="53.2813" rx="2.5" ry="2.5" style="stroke:#2E75B6;stroke-width:1.0;" width="177" x="374.92" y="165.5"/><rect fill="#D5E8F0" height="10" style="stroke:#2E75B6;stroke-width:1.0;" width="15" x="531.92" y="170.5"/><rect fill="#D5E8F0" height="2" style="stroke:#2E75B6;stroke-width:1.0;" width="4" x="529.92" y="172.5"/><rect fill="#D5E8F0" height="2" style="stroke:#2E75B6;stroke-width:1.0;" width="4" x="529.92" y="176.5"/><text fill="#000000" font-family="DejaVu Sans" font-size="10" lengthAdjust="spacing" textLength="49" x="389.92" y="194.7822">Stripe API</text><text fill="#000000" font-family="DejaVu Sans" font-size="10" lengthAdjust="spacing" textLength="137" x="389.92" y="206.4229">Paiement par carte (IFS-04)</text></g><!--entity SendGrid--><g id="elem_SendGrid"><rect fill="#D5E8F0" height="53.2813" rx="2.5" ry="2.5" style="stroke:#2E75B6;stroke-width:1.0;" width="195" x="841.42" y="478.5"/><rect fill="#D5E8F0" height="10" style="stroke:#2E75B6;stroke-width:1.0;" width="15" x="1016.42" y="483.5"/><rect fill="#D5E8F0" height="2" style="stroke:#2E75B6;stroke-width:1.0;" width="4" x="1014.42" y="485.5"/><rect fill="#D5E8F0" height="2" style="stroke:#2E75B6;stroke-width:1.0;" width="4" x="1014.42" y="489.5"/><text fill="#000000" font-family="DejaVu Sans" font-size="10" lengthAdjust="spacing" textLength="45" x="856.42" y="507.7822">SendGrid</text><text fill="#000000" font-family="DejaVu Sans" font-size="10" lengthAdjust="spacing" textLength="155" x="856.42" y="519.4229">E-mails transactionnels (IFS-06)</text></g><g id="elem_GMN34"><path d="M374.42,94 L374.42,129.6094 L552.42,129.6094 L552.42,104 L542.42,94 L374.42,94 " fill="#FFFBE6" style="stroke:#F0A500;stroke-width:1.0;"/><path d="M542.42,94 L542.42,104 L552.42,104 L542.42,94 " fill="#FFFBE6" style="stroke:#F0A500;stroke-width:1.0;"/><text fill="#000000" font-family="DejaVu Sans" font-size="11" lengthAdjust="spacing" textLength="105" x="380.42" y="109.2104">CPA-05 : stateless</text><text fill="#000000" font-family="DejaVu Sans" font-size="11" lengthAdjust="spacing" textLength="157" x="380.42" y="122.0151">&#201;tat dans postgres et redis</text></g><!--link UserB to BuyerNode--><g id="link_UserB_BuyerNode"><path d="M463.42,1394.78 C463.42,1384.25 463.42,1373.2475 463.42,1364.3625 C463.42,1362.1413 463.42,1360.0523 463.42,1358.1363 C463.42,1357.1782 463.42,1356.2634 463.42,1355.3968 C463.42,1354.9635 463.42,1360.5423 463.42,1360.1337 " fill="none" id="UserB-to-BuyerNode" style="stroke:#2E75B6;stroke-width:1.0;"/><polygon fill="#2E75B6" points="463.42,1354.1337,459.42,1363.1337,463.42,1359.1337,467.42,1363.1337,463.42,1354.1337" style="stroke:#2E75B6;stroke-width:1.0;"/><text fill="#000000" font-family="DejaVu Sans" font-size="11" lengthAdjust="spacing" textLength="89" x="408.92" y="1374.8904">HTTPS (CPA-02)</text></g><!--link UserV to VendorNode--><g id="link_UserV_VendorNode"><path d="M463.42,1101.78 C463.42,1091.25 463.42,1080.2475 463.42,1071.3625 C463.42,1069.1413 463.42,1067.0523 463.42,1065.1363 C463.42,1064.1782 463.42,1063.2634 463.42,1062.3968 C463.42,1061.9635 463.42,1067.5423 463.42,1067.1337 " fill="none" id="UserV-to-VendorNode" style="stroke:#2E75B6;stroke-width:1.0;"/><polygon fill="#2E75B6" points="463.42,1061.1337,459.42,1070.1337,463.42,1066.1337,467.42,1070.1337,463.42,1061.1337" style="stroke:#2E75B6;stroke-width:1.0;"/><text fill="#000000" font-family="DejaVu Sans" font-size="11" lengthAdjust="spacing" textLength="89" x="408.92" y="1081.8904">HTTPS (CPA-02)</text></g><!--link UserA to AdminNode--><g id="link_UserA_AdminNode"><path d="M463.42,808.78 C463.42,798.25 463.42,787.2475 463.42,778.3625 C463.42,776.1412 463.42,774.0523 463.42,772.1363 C463.42,771.1782 463.42,770.2634 463.42,769.3968 C463.42,768.9635 463.42,774.5423 463.42,774.1337 " fill="none" id="UserA-to-AdminNode" style="stroke:#2E75B6;stroke-width:1.0;"/><polygon fill="#2E75B6" points="463.42,768.1337,459.42,777.1337,463.42,773.1337,467.42,777.1337,463.42,768.1337" style="stroke:#2E75B6;stroke-width:1.0;"/><text fill="#000000" font-family="DejaVu Sans" font-size="11" lengthAdjust="spacing" textLength="89" x="408.92" y="788.8904">HTTPS (CPA-02)</text></g><!--link BuyerNode to AppServer--><g id="link_BuyerNode_AppServer"><path d="M428.3128,1354.024 C428.0716,1354.0663 427.8294,1354.1085 427.5864,1354.1506 C423.6973,1354.8245 419.5759,1355.4749 415.2658,1356.071 C406.6455,1357.2632 397.2703,1358.2384 387.4888,1358.7513 C348.3625,1360.8025 302.735,1355.455 272.92,1327 C11,1077.01 180.82,882.11 154.42,521 C147.16,421.74 191.35,388.02 272.92,331 C277.1775,328.0238 281.6038,325.2353 286.1636,322.6229 C286.7336,322.2963 287.3057,321.9725 287.8798,321.6514 C288.1668,321.4909 283.2029,324.2331 283.4909,324.0739 " fill="none" id="BuyerNode-to-AppServer" style="stroke:#2E75B6;stroke-width:1.0;"/><polygon fill="#2E75B6" points="288.7424,321.1719,278.9305,322.024,284.3662,323.5902,282.7999,329.0259,288.7424,321.1719" style="stroke:#2E75B6;stroke-width:1.0;"/><text fill="#000000" font-family="DejaVu Sans" font-size="11" lengthAdjust="spacing" textLength="141" x="108.42" y="518.2104">HTTP /api (proxy interne)</text></g><!--link VendorNode to AppServer--><g id="link_VendorNode_AppServer"><path d="M427.0056,1061.1129 C426.7616,1061.1539 426.5167,1061.1948 426.2709,1061.2356 C425.7793,1061.3173 425.2841,1061.3985 424.7855,1061.4792 C423.7883,1061.6407 422.7772,1061.8002 421.753,1061.9573 C419.7045,1062.2715 417.6033,1062.576 415.4548,1062.8671 C406.8608,1064.0315 397.51,1064.9809 387.7475,1065.4738 C348.6975,1067.445 303.06,1062.11 272.92,1034 C156.26,925.2 49.49,446.16 154.42,326 C176.5,300.7175 206.0094,285.2175 238.0544,276.2445 C254.0769,271.758 264.7617,269.4869 281.4403,267.857 " fill="none" id="VendorNode-to-AppServer" style="stroke:#2E75B6;stroke-width:1.0;"/><polygon fill="#2E75B6" points="287.4119,267.2734,278.0655,264.1677,282.4356,267.7597,278.8436,272.1298,287.4119,267.2734" style="stroke:#2E75B6;stroke-width:1.0;"/><text fill="#000000" font-family="DejaVu Sans" font-size="11" lengthAdjust="spacing" textLength="141" x="108.42" y="337.2104">HTTP /api (proxy interne)</text></g><!--link AdminNode to AppServer--><g id="link_AdminNode_AppServer"><path d="M326.0448,756.3411 C324.9852,756.1805 323.9242,756.016 322.8619,755.8474 C320.7373,755.5103 318.6074,755.1572 316.4739,754.7874 C312.2068,754.0477 307.9249,753.2413 303.64,752.363 C295.0702,750.6064 286.4884,748.5621 277.9895,746.1887 C260.9915,741.4421 244.3248,735.3793 228.7473,727.6695 C197.5925,712.25 170.795,690.2425 154.42,659 C82.47,521.71 157,433.89 272.92,331 C276.8688,327.495 281.0377,324.2421 285.3857,321.2238 C286.4727,320.4692 282.5504,323.0147 283.6591,322.2891 " fill="none" id="AdminNode-to-AppServer" style="stroke:#2E75B6;stroke-width:1.0;"/><polygon fill="#2E75B6" points="288.6796,319.0037,278.9585,320.5848,284.4959,321.7415,283.3391,327.2789,288.6796,319.0037" style="stroke:#2E75B6;stroke-width:1.0;"/><text fill="#000000" font-family="DejaVu Sans" font-size="11" lengthAdjust="spacing" textLength="141" x="108.42" y="656.2104">HTTP /api (proxy interne)</text></g><!--link AppServer to DB--><g id="link_AppServer_DB"><path d="M639.0264,247.8623 C639.9084,247.6797 640.7915,247.4969 641.6759,247.3139 C643.4446,246.9478 645.2181,246.5808 646.9958,246.2128 C650.5514,245.4769 654.1241,244.7375 657.7106,243.9952 C672.0568,241.026 686.6234,238.0111 701.19,234.9963 C759.4563,222.9369 817.7212,210.8778 861.8684,201.7411 C872.9052,199.4569 883.0597,197.3554 892.1112,195.4822 C894.374,195.0138 890.6925,195.7757 892.814,195.3367 " fill="none" id="AppServer-to-DB" style="stroke:#2E75B6;stroke-width:1.0;"/><polygon fill="#2E75B6" points="898.6895,194.1207,889.0657,192.0276,893.7933,195.134,890.6869,199.8616,898.6895,194.1207" style="stroke:#2E75B6;stroke-width:1.0;"/><text fill="#000000" font-family="DejaVu Sans" font-size="11" lengthAdjust="spacing" textLength="103" x="667.92" y="218.2104">TCP :5432 (IFL-13)</text></g><!--link AppServer to Cache--><g id="link_AppServer_Cache"><path d="M639.6576,327.4175 C640.2677,327.5683 640.8775,327.7191 641.487,327.8698 C642.706,328.1711 643.9237,328.4722 645.1398,328.7728 C647.5721,329.374 649.9979,329.9736 652.4152,330.5709 C662.0841,332.9603 671.6147,335.314 680.8607,337.5957 C699.3526,342.1591 716.7058,346.4342 731.7491,350.1291 C761.8356,357.5187 782.6825,362.5875 784.92,363 C789.0656,363.7656 793.2803,364.5089 797.5398,365.2298 C798.6046,365.41 793.7531,364.6075 794.8232,364.7849 " fill="none" id="AppServer-to-Cache" style="stroke:#2E75B6;stroke-width:1.0;"/><polygon fill="#2E75B6" points="800.7424,365.7662,792.5178,360.3481,795.8097,364.9485,791.2094,368.2404,800.7424,365.7662" style="stroke:#2E75B6;stroke-width:1.0;"/><text fill="#000000" font-family="DejaVu Sans" font-size="11" lengthAdjust="spacing" textLength="110" x="664.42" y="332.2104">TCP :6379 (CPA-04)</text></g><!--link Adapters to Stripe--><g id="link_Adapters_Stripe"><path d="M396.42,483.91 C287.76,446.22 92.51,361.93 168.42,263 C215.72,201.36 300.4506,187.2633 368.8606,186.3133 " fill="none" id="Adapters-to-Stripe" style="stroke:#2E75B6;stroke-width:1.0;"/><polygon fill="#2E75B6" points="374.86,186.23,365.8053,182.3554,369.8605,186.2994,365.9164,190.3546,374.86,186.23" style="stroke:#2E75B6;stroke-width:1.0;"/><text fill="#000000" font-family="DejaVu Sans" font-size="11" lengthAdjust="spacing" textLength="113" x="122.42" y="274.2104">HTTPS :443 (IFS-04)</text></g><!--link Stripe to Adapters--><g id="link_Stripe_Adapters"><path d="M374.7,200.22 C341.05,206.28 303.51,216.79 272.92,235 C132.1,318.83 127.02,383.3 139.92,401 C187.53,466.31 270.8786,490.7382 343.6086,500.0482 " fill="none" id="Stripe-to-Adapters" style="stroke:#2E75B6;stroke-width:1.0;"/><polygon fill="#2E75B6" points="349.56,500.81,341.1407,495.6996,344.6005,500.1751,340.125,503.6349,349.56,500.81" style="stroke:#2E75B6;stroke-width:1.0;"/><text fill="#000000" font-family="DejaVu Sans" font-size="11" lengthAdjust="spacing" textLength="170" x="93.92" y="398.2104">HTTPS :443 &#8212; webhook sign&#233;</text></g><!--link Adapters to SendGrid--><g id="link_Adapters_SendGrid"><path d="M576.93,505 C657.34,505 758.44,505 835.05,505 " fill="none" id="Adapters-to-SendGrid" style="stroke:#2E75B6;stroke-width:1.0;"/><polygon fill="#2E75B6" points="841.05,505,832.05,501,836.05,505,832.05,509,841.05,505" style="stroke:#2E75B6;stroke-width:1.0;"/><text fill="#000000" font-family="DejaVu Sans" font-size="11" lengthAdjust="spacing" textLength="113" x="662.92" y="502.2104">HTTPS :443 (IFS-06)</text></g><!--link AppServer to GMN34--><g id="link_AppServer_GMN34"><path d="M288.3626,244.6637 C287.7732,244.3638 287.1855,244.0616 286.5997,243.7572 C281.9129,241.3215 277.3419,238.7387 272.92,236 C245.69,219.13 246.81,195.54 257.92,165.5 C274.45,120.81 326.67,107.61 374.33,105.49 " fill="none" id="AppServer-GMN34" style="stroke:#2E75B6;stroke-width:1.0;stroke-dasharray:7.0,7.0;"/></g><!--SRC=[dLRBRkCs5DthAsuzcmI5K3j-P9f50Scssfb90qtakXi31ItHDXkPL4dAIMOQeDlPzoVo1TrF_cI-f9VKmr9Y5stbZKNod7juxiF-Ic_ebaAM4iOTTSDuHYJPWjgGHDmoleOLIHLjx2HqHV9K1uBhY7sWqEiTthmYIDkPq5_9F8U8SDLnKhhIe0L8jjveI9YaiMQ2Emq2BX8A7nq0dyGtQoboden5AYIy2hh1wo0mEq8cL9QhPzFpeJ_2rQQUXmPXBBQPu9JhmwpJry4WcFmBrcwBTINDxGxhzCpdEQDddnO75_eOHH3uqz5pYg3h3Rjj6PwKuhQjsI6nnjUE5s-efhdi057mawBIhtRcb2TsezgPrvXaopYkrpkUuzY4TDH6PEuolwVIpOJK95tmgpNZT_0rp1bUuyIimh1tteSlV_o9PR0xjO5z0xcgShhFHMSbqLcNb28N_EIQeWY8Ggy01cRVnyis1UnGkP3k4lqIgnMBwJ4LWxQAkSKTbx4h73cYOlvC1J4kkR7WIgH75GpR2gop_-23sJuItYl28tadb2B9RSl01IonNbAgG6cYsMyvLGkE6Tin1LWRa7DGD4yn5DUKu-N0wbnmigCnQ2en864AcMQN4PoCGy_jdXLHhp2MFMp2LJSV8mzE22h1jVNgecKB7cNIZ0XV26tlwuLlu7eQpQmeYkfKIJqiRSYo23KYYx6XQABEZtWfSv7jqwDcj2ZOSYseswnbclcAVdp-2sA2jIZMkNt924VyWkFsbc16YpM6uuth1QTtsTDZmgnxk86ECYmXKhrBafdSDQDZs8UzJ2yXcRbLBXL4atTbMd6DocCw8orPHk4jsH430VWT84BZlfSigLTRH3Rams7J5SLwWaHm_lHeiXqAfTUIHkyleJSgVUuNFazyAoP1TvO6rrcAt1R9ByaIoon8xs_9VN4qN4_yGn6lQS8moDYqA8fMolX4DRpzULR66XG4nObskD1cmYG_CfeMt4-nPbAcpFY_eLmP6eksOGe5But3Si9hbXcqPHqJQRhiJH3LySkphoP3dENT5ajfzO9FtIrXgG8jyNU8s0xY5DyBeb59L6McedBis8JYSUsFbliTD6OQO1l-C9k5-mQoaFaBI6C07OPuBo3xYN40qfJGWDJTLK7W6v8n74fItDq3mqaWEJrrcch-Exefx7-W6-TS_8V13TZKQ_LSm6mSmiLmq3ypwRbqU_rZgABocgXH__pRkZgTggdQnfRr0WrVBmQ3VbrKJkD0AnyrMGjcnjujNMw4k075rjYRxRYrshgy3iOTdPP3VYcq5biGgxsbs5h544LWFLXnyUaJlc3NOJjbnInGfaEbQIa7ezb_6CxV]--></g></svg>